G04 #@! TF.GenerationSoftware,KiCad,Pcbnew,7.0.1-0*
G04 #@! TF.CreationDate,2023-06-03T13:22:35+09:00*
G04 #@! TF.ProjectId,cool536lc,636f6f6c-3533-4366-9c63-2e6b69636164,rev?*
G04 #@! TF.SameCoordinates,Original*
G04 #@! TF.FileFunction,Profile,NP*
%FSLAX46Y46*%
G04 Gerber Fmt 4.6, Leading zero omitted, Abs format (unit mm)*
G04 Created by KiCad (PCBNEW 7.0.1-0) date 2023-06-03 13:22:35*
%MOMM*%
%LPD*%
G01*
G04 APERTURE LIST*
G04 #@! TA.AperFunction,Profile*
%ADD10C,0.150000*%
G04 #@! TD*
G04 APERTURE END LIST*
D10*
X248548475Y-16553802D02*
X248558475Y-9173802D01*
X248558475Y-9173802D02*
X160135000Y-8760000D01*
X258568475Y-87913802D02*
X256788475Y-75163802D01*
X264288475Y-74193802D02*
X256378475Y-17623802D01*
X147155000Y-8790000D02*
X160135000Y-8760000D01*
X57408475Y-16953802D02*
X51098475Y-17873802D01*
X256788475Y-75163802D02*
X264288475Y-74193802D01*
X48528475Y-88103802D02*
X125805000Y-112230000D01*
X147155000Y-8790000D02*
X58568475Y-8783802D01*
X256378475Y-17623802D02*
X248548475Y-16553802D01*
X125805000Y-112230000D02*
X181515000Y-112230000D01*
X43118475Y-74243802D02*
X50598475Y-75253802D01*
X48528475Y-88103802D02*
X50598475Y-75253802D01*
X181515000Y-112230000D02*
X258568475Y-87913802D01*
X43118475Y-74243802D02*
X51098475Y-17873802D01*
X57408475Y-16953802D02*
X58568475Y-8783802D01*
X67515000Y-56150000D02*
X81375000Y-58100000D01*
X79425000Y-71970000D02*
X65565000Y-70020000D01*
X65565000Y-70020000D02*
X67515000Y-56150000D01*
X81375000Y-58100000D02*
X79425000Y-71970000D01*
X104035000Y-70640000D02*
X105985000Y-56770000D01*
X119845000Y-58720000D02*
X117895000Y-72590000D01*
X105985000Y-56770000D02*
X119845000Y-58720000D01*
X117895000Y-72590000D02*
X104035000Y-70640000D01*
X101615000Y-51290000D02*
X99665000Y-65160000D01*
X99665000Y-65160000D02*
X85805000Y-63210000D01*
X85805000Y-63210000D02*
X87755000Y-49340000D01*
X87755000Y-49340000D02*
X101615000Y-51290000D01*
X138675000Y-61380000D02*
X136725000Y-75250000D01*
X124815000Y-59430000D02*
X138675000Y-61380000D01*
X122865000Y-73300000D02*
X124815000Y-59430000D01*
X136725000Y-75250000D02*
X122865000Y-73300000D01*
X61875000Y-60150000D02*
X59925000Y-74020000D01*
X59925000Y-74020000D02*
X46065000Y-72070000D01*
X46065000Y-72070000D02*
X48015000Y-58200000D01*
X48015000Y-58200000D02*
X61875000Y-60150000D01*
X242995000Y-41125000D02*
X256855000Y-39175000D01*
X244945000Y-54995000D02*
X242995000Y-41125000D01*
X256855000Y-39175000D02*
X258805000Y-53045000D01*
X258805000Y-53045000D02*
X244945000Y-54995000D01*
X225445000Y-52945000D02*
X223495000Y-39075000D01*
X237355000Y-37125000D02*
X239305000Y-50995000D01*
X223495000Y-39075000D02*
X237355000Y-37125000D01*
X239305000Y-50995000D02*
X225445000Y-52945000D01*
X168145000Y-56225000D02*
X166195000Y-42355000D01*
X166195000Y-42355000D02*
X180055000Y-40405000D01*
X182005000Y-54275000D02*
X168145000Y-56225000D01*
X180055000Y-40405000D02*
X182005000Y-54275000D01*
X198885000Y-37745000D02*
X200835000Y-51615000D01*
X185025000Y-39695000D02*
X198885000Y-37745000D01*
X200835000Y-51615000D02*
X186975000Y-53565000D01*
X186975000Y-53565000D02*
X185025000Y-39695000D01*
X219065000Y-44185000D02*
X205205000Y-46135000D01*
X217115000Y-30315000D02*
X219065000Y-44185000D01*
X203255000Y-32265000D02*
X217115000Y-30315000D01*
X205205000Y-46135000D02*
X203255000Y-32265000D01*
X84680000Y-34235000D02*
X70820000Y-32285000D01*
X70820000Y-32285000D02*
X72770000Y-18415000D01*
X72770000Y-18415000D02*
X86630000Y-20365000D01*
X86630000Y-20365000D02*
X84680000Y-34235000D01*
X125100000Y-20985000D02*
X123150000Y-34855000D01*
X109290000Y-32905000D02*
X111240000Y-19035000D01*
X123150000Y-34855000D02*
X109290000Y-32905000D01*
X111240000Y-19035000D02*
X125100000Y-20985000D01*
X128120000Y-35565000D02*
X130070000Y-21695000D01*
X143930000Y-23645000D02*
X141980000Y-37515000D01*
X130070000Y-21695000D02*
X143930000Y-23645000D01*
X141980000Y-37515000D02*
X128120000Y-35565000D01*
X93010000Y-11605000D02*
X106870000Y-13555000D01*
X91060000Y-25475000D02*
X93010000Y-11605000D01*
X104920000Y-27425000D02*
X91060000Y-25475000D01*
X106870000Y-13555000D02*
X104920000Y-27425000D01*
X53270000Y-20465000D02*
X67130000Y-22415000D01*
X67130000Y-22415000D02*
X65180000Y-36285000D01*
X51320000Y-34335000D02*
X53270000Y-20465000D01*
X65180000Y-36285000D02*
X51320000Y-34335000D01*
X116825000Y-78710000D02*
X111355000Y-91600000D01*
X129695000Y-84180000D02*
X116825000Y-78710000D01*
X111355000Y-91600000D02*
X124235000Y-97060000D01*
X124235000Y-97060000D02*
X129695000Y-84180000D01*
X93855000Y-74280000D02*
X107715000Y-76230000D01*
X105765000Y-90100000D02*
X91905000Y-88150000D01*
X107715000Y-76230000D02*
X105765000Y-90100000D01*
X91905000Y-88150000D02*
X93855000Y-74280000D01*
X148875000Y-97570000D02*
X137845000Y-88950000D01*
X140245000Y-108600000D02*
X148875000Y-97570000D01*
X129215000Y-99970000D02*
X140245000Y-108600000D01*
X137845000Y-88950000D02*
X129215000Y-99970000D01*
X122465000Y-39860000D02*
X120515000Y-53730000D01*
X120515000Y-53730000D02*
X106655000Y-51780000D01*
X108605000Y-37910000D02*
X122465000Y-39860000D01*
X106655000Y-51780000D02*
X108605000Y-37910000D01*
X68185000Y-51160000D02*
X70135000Y-37290000D01*
X82045000Y-53110000D02*
X68185000Y-51160000D01*
X83995000Y-39240000D02*
X82045000Y-53110000D01*
X70135000Y-37290000D02*
X83995000Y-39240000D01*
X141295000Y-42520000D02*
X139345000Y-56390000D01*
X139345000Y-56390000D02*
X125485000Y-54440000D01*
X127435000Y-40570000D02*
X141295000Y-42520000D01*
X125485000Y-54440000D02*
X127435000Y-40570000D01*
X90375000Y-30480000D02*
X104235000Y-32430000D01*
X88425000Y-44350000D02*
X90375000Y-30480000D01*
X102285000Y-46300000D02*
X88425000Y-44350000D01*
X104235000Y-32430000D02*
X102285000Y-46300000D01*
X64495000Y-41290000D02*
X62545000Y-55160000D01*
X48685000Y-53210000D02*
X50635000Y-39340000D01*
X62545000Y-55160000D02*
X48685000Y-53210000D01*
X50635000Y-39340000D02*
X64495000Y-41290000D01*
X222810000Y-34070000D02*
X220860000Y-20200000D01*
X234720000Y-18250000D02*
X236670000Y-32120000D01*
X220860000Y-20200000D02*
X234720000Y-18250000D01*
X236670000Y-32120000D02*
X222810000Y-34070000D01*
X200620000Y-13390000D02*
X214480000Y-11440000D01*
X216430000Y-25310000D02*
X202570000Y-27260000D01*
X214480000Y-11440000D02*
X216430000Y-25310000D01*
X202570000Y-27260000D02*
X200620000Y-13390000D01*
X184340000Y-34690000D02*
X182390000Y-20820000D01*
X182390000Y-20820000D02*
X196250000Y-18870000D01*
X198200000Y-32740000D02*
X184340000Y-34690000D01*
X196250000Y-18870000D02*
X198200000Y-32740000D01*
X163560000Y-23480000D02*
X177420000Y-21530000D01*
X179370000Y-35400000D02*
X165510000Y-37350000D01*
X165510000Y-37350000D02*
X163560000Y-23480000D01*
X177420000Y-21530000D02*
X179370000Y-35400000D01*
X256170000Y-34170000D02*
X242310000Y-36120000D01*
X240360000Y-22250000D02*
X254220000Y-20300000D01*
X242310000Y-36120000D02*
X240360000Y-22250000D01*
X254220000Y-20300000D02*
X256170000Y-34170000D01*
X167265000Y-108420000D02*
X178295000Y-99790000D01*
X169665000Y-88770000D02*
X158635000Y-97390000D01*
X178295000Y-99790000D02*
X169665000Y-88770000D01*
X158635000Y-97390000D02*
X167265000Y-108420000D01*
X199795000Y-76050000D02*
X213655000Y-74100000D01*
X215605000Y-87970000D02*
X201745000Y-89920000D01*
X201745000Y-89920000D02*
X199795000Y-76050000D01*
X213655000Y-74100000D02*
X215605000Y-87970000D01*
X190685000Y-78530000D02*
X177815000Y-84000000D01*
X183275000Y-96880000D02*
X196155000Y-91420000D01*
X177815000Y-84000000D02*
X183275000Y-96880000D01*
X196155000Y-91420000D02*
X190685000Y-78530000D01*
X219735000Y-49175000D02*
X221685000Y-63045000D01*
X221685000Y-63045000D02*
X207825000Y-64995000D01*
X207825000Y-64995000D02*
X205875000Y-51125000D01*
X205875000Y-51125000D02*
X219735000Y-49175000D01*
X228065000Y-71805000D02*
X226115000Y-57935000D01*
X226115000Y-57935000D02*
X239975000Y-55985000D01*
X241925000Y-69855000D02*
X228065000Y-71805000D01*
X239975000Y-55985000D02*
X241925000Y-69855000D01*
X247565000Y-73855000D02*
X245615000Y-59985000D01*
X261425000Y-71905000D02*
X247565000Y-73855000D01*
X259475000Y-58035000D02*
X261425000Y-71905000D01*
X245615000Y-59985000D02*
X259475000Y-58035000D01*
X170765000Y-75085000D02*
X168815000Y-61215000D01*
X182675000Y-59265000D02*
X184625000Y-73135000D01*
X168815000Y-61215000D02*
X182675000Y-59265000D01*
X184625000Y-73135000D02*
X170765000Y-75085000D01*
X187645000Y-58555000D02*
X201505000Y-56605000D01*
X203455000Y-70475000D02*
X189595000Y-72425000D01*
X201505000Y-56605000D02*
X203455000Y-70475000D01*
X189595000Y-72425000D02*
X187645000Y-58555000D01*
M02*
