G04 #@! TF.GenerationSoftware,KiCad,Pcbnew,7.0.1-0*
G04 #@! TF.CreationDate,2023-06-03T13:21:34+09:00*
G04 #@! TF.ProjectId,cool536lc,636f6f6c-3533-4366-9c63-2e6b69636164,rev?*
G04 #@! TF.SameCoordinates,Original*
G04 #@! TF.FileFunction,Soldermask,Top*
G04 #@! TF.FilePolarity,Negative*
%FSLAX46Y46*%
G04 Gerber Fmt 4.6, Leading zero omitted, Abs format (unit mm)*
G04 Created by KiCad (PCBNEW 7.0.1-0) date 2023-06-03 13:21:34*
%MOMM*%
%LPD*%
G01*
G04 APERTURE LIST*
G04 Aperture macros list*
%AMRoundRect*
0 Rectangle with rounded corners*
0 $1 Rounding radius*
0 $2 $3 $4 $5 $6 $7 $8 $9 X,Y pos of 4 corners*
0 Add a 4 corners polygon primitive as box body*
4,1,4,$2,$3,$4,$5,$6,$7,$8,$9,$2,$3,0*
0 Add four circle primitives for the rounded corners*
1,1,$1+$1,$2,$3*
1,1,$1+$1,$4,$5*
1,1,$1+$1,$6,$7*
1,1,$1+$1,$8,$9*
0 Add four rect primitives between the rounded corners*
20,1,$1+$1,$2,$3,$4,$5,0*
20,1,$1+$1,$4,$5,$6,$7,0*
20,1,$1+$1,$6,$7,$8,$9,0*
20,1,$1+$1,$8,$9,$2,$3,0*%
G04 Aperture macros list end*
%ADD10RoundRect,0.051000X-0.698500X-0.698500X0.698500X-0.698500X0.698500X0.698500X-0.698500X0.698500X0*%
%ADD11RoundRect,0.051000X-0.650000X-0.475000X0.650000X-0.475000X0.650000X0.475000X-0.650000X0.475000X0*%
%ADD12C,1.499000*%
%ADD13C,2.002000*%
%ADD14C,3.102000*%
%ADD15C,4.202000*%
%ADD16C,1.626000*%
G04 APERTURE END LIST*
D10*
X147140000Y-193590000D03*
D11*
X149175000Y-193590000D03*
X152725000Y-193590000D03*
D12*
X154760000Y-193590000D03*
D10*
X157851525Y-201206198D03*
D11*
X159886525Y-201206198D03*
X163436525Y-201206198D03*
D12*
X165471525Y-201206198D03*
D10*
X157851525Y-195906198D03*
D11*
X159886525Y-195906198D03*
X163436525Y-195906198D03*
D12*
X165471525Y-195906198D03*
D13*
X192900316Y-210320178D03*
D14*
X196122596Y-214997240D03*
D15*
X197930878Y-209613179D03*
D14*
X202057299Y-211598210D03*
D13*
X202961440Y-208906180D03*
X190199754Y-191467177D03*
D14*
X193422034Y-196144239D03*
D15*
X195230316Y-190760178D03*
D14*
X199356737Y-192745209D03*
D13*
X200260878Y-190053179D03*
D10*
X227836525Y-220296198D03*
D11*
X229871525Y-220296198D03*
X233421525Y-220296198D03*
D12*
X235456525Y-220296198D03*
D13*
X204960316Y-227830178D03*
D14*
X208182596Y-232507240D03*
D15*
X209990878Y-227123179D03*
D14*
X214117299Y-229108210D03*
D13*
X215021440Y-226416180D03*
X231290878Y-209723179D03*
D14*
X234513158Y-214400241D03*
D15*
X236321440Y-209016180D03*
D14*
X240447861Y-211001211D03*
D13*
X241352002Y-208309181D03*
D10*
X147140000Y-203940000D03*
D11*
X149175000Y-203940000D03*
X152725000Y-203940000D03*
D12*
X154760000Y-203940000D03*
D10*
X238736525Y-230576198D03*
D11*
X240771525Y-230576198D03*
X244321525Y-230576198D03*
D12*
X246356525Y-230576198D03*
D10*
X238796525Y-225406198D03*
D11*
X240831525Y-225406198D03*
X244381525Y-225406198D03*
D12*
X246416525Y-225406198D03*
D13*
X111775963Y-190199199D03*
D14*
X113584245Y-195583260D03*
D15*
X116806525Y-190906198D03*
D14*
X120225947Y-193951728D03*
D13*
X121837087Y-191613197D03*
X245489754Y-174097177D03*
D14*
X248712034Y-178774239D03*
D15*
X250520316Y-173390178D03*
D14*
X254646737Y-175375209D03*
D13*
X255550878Y-172683179D03*
D10*
X227936525Y-230796198D03*
D11*
X229971525Y-230796198D03*
X233521525Y-230796198D03*
D12*
X235556525Y-230796198D03*
D13*
X250790878Y-211753179D03*
D14*
X254013158Y-216430241D03*
D15*
X255821440Y-211046180D03*
D14*
X259947861Y-213031211D03*
D13*
X260852002Y-210339181D03*
D10*
X147140000Y-211273802D03*
D11*
X149175000Y-211273802D03*
X152725000Y-211273802D03*
D12*
X154760000Y-211273802D03*
D13*
X76008108Y-170721686D03*
D14*
X77816390Y-176105747D03*
D15*
X81038670Y-171428685D03*
D14*
X84458092Y-174474215D03*
D13*
X86069232Y-172135684D03*
D10*
X65896525Y-224836198D03*
D11*
X67931525Y-224836198D03*
X71481525Y-224836198D03*
D12*
X73516525Y-224836198D03*
D10*
X76696525Y-225016198D03*
D11*
X78731525Y-225016198D03*
X82281525Y-225016198D03*
D12*
X84316525Y-225016198D03*
D13*
X56495963Y-172799199D03*
D14*
X58304245Y-178183260D03*
D15*
X61526525Y-173506198D03*
D14*
X64945947Y-176551728D03*
D13*
X66557087Y-174213197D03*
X96245963Y-163959199D03*
D14*
X98054245Y-169343260D03*
D15*
X101276525Y-164666198D03*
D14*
X104695947Y-167711728D03*
D13*
X106307087Y-165373197D03*
X90928108Y-201661686D03*
D14*
X92736390Y-207045747D03*
D15*
X95958670Y-202368685D03*
D14*
X99378092Y-205414215D03*
D13*
X100989232Y-203075684D03*
D12*
X84306525Y-222576198D03*
D11*
X82271525Y-222576198D03*
X78721525Y-222576198D03*
D10*
X76686525Y-222576198D03*
D13*
X93575401Y-182822200D03*
D14*
X95383683Y-188206261D03*
D15*
X98605963Y-183529199D03*
D14*
X102025385Y-186574729D03*
D13*
X103636525Y-184236198D03*
X133295963Y-173999199D03*
D14*
X135104245Y-179383260D03*
D15*
X138326525Y-174706198D03*
D14*
X141745947Y-177751728D03*
D13*
X143357087Y-175413197D03*
D10*
X65836525Y-222456198D03*
D11*
X67871525Y-222456198D03*
X71421525Y-222456198D03*
D12*
X73456525Y-222456198D03*
D13*
X171339754Y-194117177D03*
D14*
X174562034Y-198794239D03*
D15*
X176370316Y-193410178D03*
D14*
X180496737Y-195395209D03*
D13*
X181400878Y-192703179D03*
D10*
X238796525Y-220106198D03*
D11*
X240831525Y-220106198D03*
X244381525Y-220106198D03*
D12*
X246416525Y-220106198D03*
D10*
X76696525Y-230316198D03*
D11*
X78731525Y-230316198D03*
X82281525Y-230316198D03*
D12*
X84316525Y-230316198D03*
D13*
X228610316Y-190860178D03*
D14*
X231832596Y-195537240D03*
D15*
X233640878Y-190153179D03*
D14*
X237767299Y-192138210D03*
D13*
X238671440Y-189446180D03*
X51216525Y-210526198D03*
D14*
X53024807Y-215910259D03*
D15*
X56247087Y-211233197D03*
D14*
X59666509Y-214278727D03*
D13*
X61277649Y-211940196D03*
D10*
X157736525Y-193436198D03*
D11*
X159771525Y-193436198D03*
X163321525Y-193436198D03*
D12*
X165356525Y-193436198D03*
D13*
X137344549Y-240691078D03*
D14*
X136218536Y-246257952D03*
D15*
X141347644Y-243818638D03*
D14*
X142786185Y-248165856D03*
D13*
X145350739Y-246946198D03*
D10*
X147140000Y-195990000D03*
D11*
X149175000Y-195990000D03*
X152725000Y-195990000D03*
D12*
X154760000Y-195990000D03*
D10*
X65866525Y-227566198D03*
D11*
X67901525Y-227566198D03*
X71451525Y-227566198D03*
D12*
X73486525Y-227566198D03*
D13*
X97065963Y-226649199D03*
D14*
X98874245Y-232033260D03*
D15*
X102096525Y-227356198D03*
D14*
X105515947Y-230401728D03*
D13*
X107127087Y-228063197D03*
X109125963Y-209059199D03*
D14*
X110934245Y-214443260D03*
D15*
X114156525Y-209766198D03*
D14*
X117575947Y-212811728D03*
D13*
X119187087Y-210473197D03*
D10*
X65866525Y-230216198D03*
D11*
X67901525Y-230216198D03*
X71451525Y-230216198D03*
D12*
X73486525Y-230216198D03*
D13*
X70745963Y-208469199D03*
D14*
X72554245Y-213853260D03*
D15*
X75776525Y-209176198D03*
D14*
X79195947Y-212221728D03*
D13*
X80807087Y-209883197D03*
X127995963Y-211709199D03*
D14*
X129804245Y-217093260D03*
D15*
X133026525Y-212416198D03*
D14*
X136445947Y-215461728D03*
D13*
X138057087Y-213123197D03*
X211090316Y-202910178D03*
D14*
X214312596Y-207587240D03*
D15*
X216120878Y-202203179D03*
D14*
X220247299Y-204188210D03*
D13*
X221151440Y-201496180D03*
D10*
X157905000Y-206150000D03*
D11*
X159940000Y-206150000D03*
X163490000Y-206150000D03*
D12*
X165525000Y-206150000D03*
D10*
X65876525Y-220176198D03*
D11*
X67911525Y-220176198D03*
X71461525Y-220176198D03*
D12*
X73496525Y-220176198D03*
D10*
X147140000Y-208620000D03*
D11*
X149175000Y-208620000D03*
X152725000Y-208620000D03*
D12*
X154760000Y-208620000D03*
D10*
X227936525Y-225496198D03*
D11*
X229971525Y-225496198D03*
X233521525Y-225496198D03*
D12*
X235556525Y-225496198D03*
D13*
X184616126Y-234821360D03*
D14*
X188939123Y-238505068D03*
D15*
X189292291Y-232836446D03*
D14*
X193791872Y-233685843D03*
D13*
X193968456Y-230851532D03*
X205768598Y-165156117D03*
D14*
X208990878Y-169833179D03*
D15*
X210799160Y-164449118D03*
D14*
X214925581Y-166434149D03*
D13*
X215829722Y-163742119D03*
X166756594Y-246834172D03*
D14*
X171885702Y-249273487D03*
D15*
X170759689Y-243706612D03*
D14*
X175325790Y-243362489D03*
D13*
X174762784Y-240579052D03*
X208418598Y-184066117D03*
D14*
X211640878Y-188743179D03*
D15*
X213449160Y-183359118D03*
D14*
X217575581Y-185344149D03*
D13*
X218479722Y-182652119D03*
X248129754Y-192907177D03*
D14*
X251352034Y-197584239D03*
D15*
X253160316Y-192200178D03*
D14*
X257286737Y-194185209D03*
D13*
X258190878Y-191493179D03*
X225980316Y-172000178D03*
D14*
X229202596Y-176677240D03*
D15*
X231010878Y-171293179D03*
D14*
X235137299Y-173278210D03*
D13*
X236041440Y-170586180D03*
D10*
X147140000Y-198640000D03*
D11*
X149175000Y-198640000D03*
X152725000Y-198640000D03*
D12*
X154760000Y-198640000D03*
D13*
X168700878Y-175253179D03*
D14*
X171923158Y-179930241D03*
D15*
X173731440Y-174546180D03*
D14*
X177857861Y-176531211D03*
D13*
X178762002Y-173839181D03*
D10*
X227936525Y-222846198D03*
D11*
X229971525Y-222846198D03*
X233521525Y-222846198D03*
D12*
X235556525Y-222846198D03*
D10*
X238796525Y-222756198D03*
D11*
X240831525Y-222756198D03*
X244381525Y-222756198D03*
D12*
X246416525Y-222756198D03*
D13*
X130665963Y-192849199D03*
D14*
X132474245Y-198233260D03*
D15*
X135696525Y-193556198D03*
D14*
X139115947Y-196601728D03*
D13*
X140727087Y-194263197D03*
D10*
X147140000Y-206550000D03*
D11*
X149175000Y-206550000D03*
X152725000Y-206550000D03*
D12*
X154760000Y-206550000D03*
D10*
X238796525Y-228056198D03*
D11*
X240831525Y-228056198D03*
X244381525Y-228056198D03*
D12*
X246416525Y-228056198D03*
D13*
X118161040Y-231044872D03*
D14*
X118514209Y-236713494D03*
D15*
X122837205Y-233029786D03*
D14*
X125351871Y-236856554D03*
D13*
X127513370Y-235014700D03*
X187620316Y-172590178D03*
D14*
X190842596Y-177267240D03*
D15*
X192650878Y-171883179D03*
D14*
X196777299Y-173868210D03*
D13*
X197681440Y-171176180D03*
D10*
X76696525Y-227666198D03*
D11*
X78731525Y-227666198D03*
X82281525Y-227666198D03*
D12*
X84316525Y-227666198D03*
D10*
X227936525Y-228146198D03*
D11*
X229971525Y-228146198D03*
X233521525Y-228146198D03*
D12*
X235556525Y-228146198D03*
D13*
X114445963Y-171359199D03*
D14*
X116254245Y-176743260D03*
D15*
X119476525Y-172066198D03*
D14*
X122895947Y-175111728D03*
D13*
X124507087Y-172773197D03*
D10*
X157885000Y-211100000D03*
D11*
X159920000Y-211100000D03*
X163470000Y-211100000D03*
D12*
X165505000Y-211100000D03*
D13*
X174000316Y-212950178D03*
D14*
X177222596Y-217627240D03*
D15*
X179030878Y-212243179D03*
D14*
X183157299Y-214228210D03*
D13*
X184061440Y-211536180D03*
D10*
X76826525Y-220326198D03*
D11*
X78861525Y-220326198D03*
X82411525Y-220326198D03*
D12*
X84446525Y-220326198D03*
D10*
X157776525Y-203746198D03*
D11*
X159811525Y-203746198D03*
X163361525Y-203746198D03*
D12*
X165396525Y-203746198D03*
D13*
X53876541Y-191673669D03*
D14*
X55684823Y-197057730D03*
D15*
X58907103Y-192380668D03*
D14*
X62326525Y-195426198D03*
D13*
X63937665Y-193087667D03*
D10*
X147140000Y-201290000D03*
D11*
X149175000Y-201290000D03*
X152725000Y-201290000D03*
D12*
X154760000Y-201290000D03*
D13*
X73398108Y-189591686D03*
D14*
X75206390Y-194975747D03*
D15*
X78428670Y-190298685D03*
D14*
X81848092Y-193344215D03*
D13*
X83459232Y-191005684D03*
D10*
X157888525Y-208736198D03*
D11*
X159923525Y-208736198D03*
X163473525Y-208736198D03*
D12*
X165508525Y-208736198D03*
D10*
X157851525Y-198556198D03*
D11*
X159886525Y-198556198D03*
X163436525Y-198556198D03*
D12*
X165471525Y-198556198D03*
D16*
X148346525Y-155516198D03*
X148346525Y-158056198D03*
X148346525Y-160596198D03*
X148346525Y-163136198D03*
X148346525Y-165676198D03*
X148346525Y-168216198D03*
X148346525Y-170756198D03*
X148346525Y-173296198D03*
X148346525Y-175836198D03*
X150886525Y-175836198D03*
X153426525Y-175836198D03*
X155966525Y-175836198D03*
X158506525Y-175836198D03*
X161046525Y-175836198D03*
X163586525Y-175836198D03*
X163586525Y-173296198D03*
X163586525Y-170756198D03*
X163586525Y-168216198D03*
X163586525Y-165676198D03*
X163586525Y-163136198D03*
X163586525Y-160596198D03*
X163586525Y-158056198D03*
X163586525Y-155516198D03*
M02*
