M48
; DRILL file {KiCad 7.0.1-0} date 2023 June 03, Saturday 13:21:37
; FORMAT={-:-/ absolute / metric / decimal}
; #@! TF.CreationDate,2023-06-03T13:21:37+09:00
; #@! TF.GenerationSoftware,Kicad,Pcbnew,7.0.1-0
; #@! TF.FileFunction,NonPlated,1,2,NPTH
FMAT,2
METRIC
; #@! TA.AperFunction,NonPlated,NPTH,ComponentDrill
T1C1.900
; #@! TA.AperFunction,NonPlated,NPTH,ComponentDrill
T2C3.000
; #@! TA.AperFunction,NonPlated,NPTH,ComponentDrill
T3C4.100
%
G90
G05
T1
X51.217Y-210.526
X53.877Y-191.674
X56.496Y-172.799
X61.278Y-211.94
X63.938Y-193.088
X66.557Y-174.213
X70.746Y-208.469
X73.398Y-189.592
X76.008Y-170.722
X80.807Y-209.883
X83.459Y-191.006
X86.069Y-172.136
X90.928Y-201.662
X93.575Y-182.822
X96.246Y-163.959
X97.066Y-226.649
X100.989Y-203.076
X103.637Y-184.236
X106.307Y-165.373
X107.127Y-228.063
X109.126Y-209.059
X111.776Y-190.199
X114.446Y-171.359
X118.161Y-231.045
X119.187Y-210.473
X121.837Y-191.613
X124.507Y-172.773
X127.513Y-235.015
X127.996Y-211.709
X130.666Y-192.849
X133.296Y-173.999
X137.345Y-240.691
X138.057Y-213.123
X140.727Y-194.263
X143.357Y-175.413
X145.351Y-246.946
X166.757Y-246.834
X168.701Y-175.253
X171.34Y-194.117
X174.0Y-212.95
X174.763Y-240.579
X178.762Y-173.839
X181.401Y-192.703
X184.061Y-211.536
X184.616Y-234.821
X187.62Y-172.59
X190.2Y-191.467
X192.9Y-210.32
X193.968Y-230.852
X197.681Y-171.176
X200.261Y-190.053
X202.961Y-208.906
X204.96Y-227.83
X205.769Y-165.156
X208.419Y-184.066
X211.09Y-202.91
X215.021Y-226.416
X215.83Y-163.742
X218.48Y-182.652
X221.151Y-201.496
X225.98Y-172.0
X228.61Y-190.86
X231.291Y-209.723
X236.041Y-170.586
X238.671Y-189.446
X241.352Y-208.309
X245.49Y-174.097
X248.13Y-192.907
X250.791Y-211.753
X255.551Y-172.683
X258.191Y-191.493
X260.852Y-210.339
T2
X53.025Y-215.91
X55.685Y-197.058
X58.304Y-178.183
X59.667Y-214.279
X62.327Y-195.426
X64.946Y-176.552
X72.554Y-213.853
X75.206Y-194.976
X77.816Y-176.106
X79.196Y-212.222
X81.848Y-193.344
X84.458Y-174.474
X92.736Y-207.046
X95.384Y-188.206
X98.054Y-169.343
X98.874Y-232.033
X99.378Y-205.414
X102.025Y-186.575
X104.696Y-167.712
X105.516Y-230.402
X110.934Y-214.443
X113.584Y-195.583
X116.254Y-176.743
X117.576Y-212.812
X118.514Y-236.713
X120.226Y-193.952
X122.896Y-175.112
X125.352Y-236.857
X129.804Y-217.093
X132.474Y-198.233
X135.104Y-179.383
X136.219Y-246.258
X136.446Y-215.462
X139.116Y-196.602
X141.746Y-177.752
X142.786Y-248.166
X171.886Y-249.273
X171.923Y-179.93
X174.562Y-198.794
X175.326Y-243.362
X177.223Y-217.627
X177.858Y-176.531
X180.497Y-195.395
X183.157Y-214.228
X188.939Y-238.505
X190.843Y-177.267
X193.422Y-196.144
X193.792Y-233.686
X196.123Y-214.997
X196.777Y-173.868
X199.357Y-192.745
X202.057Y-211.598
X208.183Y-232.507
X208.991Y-169.833
X211.641Y-188.743
X214.117Y-229.108
X214.313Y-207.587
X214.926Y-166.434
X217.576Y-185.344
X220.247Y-204.188
X229.203Y-176.677
X231.833Y-195.537
X234.513Y-214.4
X235.137Y-173.278
X237.767Y-192.138
X240.448Y-211.001
X248.712Y-178.774
X251.352Y-197.584
X254.013Y-216.43
X254.647Y-175.375
X257.287Y-194.185
X259.948Y-213.031
T3
X56.247Y-211.233
X58.907Y-192.381
X61.527Y-173.506
X75.777Y-209.176
X78.429Y-190.299
X81.039Y-171.429
X95.959Y-202.369
X98.606Y-183.529
X101.277Y-164.666
X102.097Y-227.356
X114.157Y-209.766
X116.807Y-190.906
X119.477Y-172.066
X122.837Y-233.03
X133.027Y-212.416
X135.697Y-193.556
X138.327Y-174.706
X141.348Y-243.819
X170.76Y-243.707
X173.731Y-174.546
X176.37Y-193.41
X179.031Y-212.243
X189.292Y-232.836
X192.651Y-171.883
X195.23Y-190.76
X197.931Y-209.613
X209.991Y-227.123
X210.799Y-164.449
X213.449Y-183.359
X216.121Y-202.203
X231.011Y-171.293
X233.641Y-190.153
X236.321Y-209.016
X250.52Y-173.39
X253.16Y-192.2
X255.821Y-211.046
T0
M30
