M48
; DRILL file {KiCad 7.0.1-0} date 2023 June 03, Saturday 13:21:37
; FORMAT={-:-/ absolute / metric / decimal}
; #@! TF.CreationDate,2023-06-03T13:21:37+09:00
; #@! TF.GenerationSoftware,Kicad,Pcbnew,7.0.1-0
; #@! TF.FileFunction,Plated,1,2,PTH
FMAT,2
METRIC
; #@! TA.AperFunction,Plated,PTH,ViaDrill
T1C0.400
; #@! TA.AperFunction,Plated,PTH,ComponentDrill
T2C0.813
%
G90
G05
T1
X49.56Y-219.03
X52.48Y-203.9
X63.94Y-202.72
X66.294Y-203.97
X67.06Y-202.72
X69.32Y-218.02
X71.79Y-202.32
X74.45Y-181.27
X86.67Y-202.32
X88.41Y-194.08
X88.49Y-181.19
X89.53Y-220.52
X91.91Y-194.14
X94.79Y-212.29
X96.02Y-211.13
X97.75Y-218.27
X99.05Y-219.0
X105.11Y-211.07
X106.34Y-211.14
X107.52Y-221.4
X122.47Y-219.05
X123.71Y-218.1
X126.16Y-222.66
X160.74Y-228.24
X161.53Y-229.59
X169.73Y-184.41
X170.42Y-225.88
X170.44Y-224.23
X170.79Y-222.69
X171.225Y-221.3
X171.75Y-201.65
X174.7Y-237.74
X174.86Y-236.01
X179.44Y-236.11
X181.91Y-237.67
X188.15Y-182.45
X188.67Y-201.56
X188.75Y-220.05
X190.09Y-218.92
X192.75Y-221.31
X206.12Y-180.87
X208.82Y-217.84
X211.47Y-222.61
X225.83Y-222.95
X226.05Y-182.93
X226.61Y-221.53
X229.27Y-218.84
X229.29Y-212.66
X229.29Y-216.81
X229.311Y-217.809
X241.98Y-180.81
X242.003Y-181.809
X242.01Y-179.69
X242.031Y-182.808
X247.53Y-217.08
X248.15Y-214.7
X248.98Y-219.91
X249.05Y-213.87
T2
X65.837Y-222.456
X65.867Y-227.566
X65.867Y-230.216
X65.877Y-220.176
X65.897Y-224.836
X73.457Y-222.456
X73.487Y-227.566
X73.487Y-230.216
X73.497Y-220.176
X73.517Y-224.836
X76.687Y-222.576
X76.697Y-225.016
X76.697Y-227.666
X76.697Y-230.316
X76.827Y-220.326
X84.307Y-222.576
X84.317Y-225.016
X84.317Y-227.666
X84.317Y-230.316
X84.447Y-220.326
X147.14Y-193.59
X147.14Y-195.99
X147.14Y-198.64
X147.14Y-201.29
X147.14Y-203.94
X147.14Y-206.55
X147.14Y-208.62
X147.14Y-211.274
X148.347Y-155.516
X148.347Y-158.056
X148.347Y-160.596
X148.347Y-163.136
X148.347Y-165.676
X148.347Y-168.216
X148.347Y-170.756
X148.347Y-173.296
X148.347Y-175.836
X150.887Y-175.836
X153.427Y-175.836
X154.76Y-193.59
X154.76Y-195.99
X154.76Y-198.64
X154.76Y-201.29
X154.76Y-203.94
X154.76Y-206.55
X154.76Y-208.62
X154.76Y-211.274
X155.967Y-175.836
X157.737Y-193.436
X157.777Y-203.746
X157.852Y-195.906
X157.852Y-198.556
X157.852Y-201.206
X157.885Y-211.1
X157.889Y-208.736
X157.905Y-206.15
X158.507Y-175.836
X161.047Y-175.836
X163.587Y-155.516
X163.587Y-158.056
X163.587Y-160.596
X163.587Y-163.136
X163.587Y-165.676
X163.587Y-168.216
X163.587Y-170.756
X163.587Y-173.296
X163.587Y-175.836
X165.357Y-193.436
X165.397Y-203.746
X165.472Y-195.906
X165.472Y-198.556
X165.472Y-201.206
X165.505Y-211.1
X165.509Y-208.736
X165.525Y-206.15
X227.837Y-220.296
X227.937Y-222.846
X227.937Y-225.496
X227.937Y-228.146
X227.937Y-230.796
X235.457Y-220.296
X235.557Y-222.846
X235.557Y-225.496
X235.557Y-228.146
X235.557Y-230.796
X238.737Y-230.576
X238.797Y-220.106
X238.797Y-222.756
X238.797Y-225.406
X238.797Y-228.056
X246.357Y-230.576
X246.417Y-220.106
X246.417Y-222.756
X246.417Y-225.406
X246.417Y-228.056
T0
M30
