G04 #@! TF.GenerationSoftware,KiCad,Pcbnew,7.0.1-0*
G04 #@! TF.CreationDate,2023-06-03T13:21:35+09:00*
G04 #@! TF.ProjectId,cool536lc,636f6f6c-3533-4366-9c63-2e6b69636164,rev?*
G04 #@! TF.SameCoordinates,Original*
G04 #@! TF.FileFunction,Profile,NP*
%FSLAX46Y46*%
G04 Gerber Fmt 4.6, Leading zero omitted, Abs format (unit mm)*
G04 Created by KiCad (PCBNEW 7.0.1-0) date 2023-06-03 13:21:35*
%MOMM*%
%LPD*%
G01*
G04 APERTURE LIST*
G04 #@! TA.AperFunction,Profile*
%ADD10C,0.150000*%
G04 #@! TD*
G04 APERTURE END LIST*
D10*
X91680000Y-163370000D02*
X71420000Y-160390000D01*
X95496525Y-156866198D02*
X91680000Y-163370000D01*
X220150000Y-163160000D02*
X240700000Y-160220000D01*
X220150000Y-163160000D02*
X216556525Y-156696198D01*
X142996525Y-257066198D02*
X110230000Y-238530000D01*
X201940000Y-238120000D02*
X168926525Y-257016198D01*
X216556525Y-156696198D02*
X162436525Y-153906198D01*
X247556525Y-221826198D02*
X249206525Y-231746198D01*
X47126525Y-219616198D02*
X54696525Y-162836198D01*
X149456525Y-153936198D02*
X95496525Y-156866198D01*
X265866525Y-219426198D02*
X258116525Y-162756198D01*
X258116525Y-162756198D02*
X240700000Y-160220000D01*
X142996525Y-257066198D02*
X168926525Y-257016198D01*
X71420000Y-160390000D02*
X54696525Y-162836198D01*
X62786525Y-232096198D02*
X110230000Y-238530000D01*
X47126525Y-219616198D02*
X64266525Y-221926198D01*
X265866525Y-219426198D02*
X247556525Y-221826198D01*
X64266525Y-221926198D02*
X62786525Y-232096198D01*
X201940000Y-238120000D02*
X249206525Y-231746198D01*
X162436525Y-153906198D02*
X162436525Y-174706198D01*
X149446525Y-174706198D02*
X149456525Y-153936198D01*
X162436525Y-174706198D02*
X149446525Y-174706198D01*
M02*
