G04 #@! TF.GenerationSoftware,KiCad,Pcbnew,7.0.1-0*
G04 #@! TF.CreationDate,2023-06-03T13:21:34+09:00*
G04 #@! TF.ProjectId,cool536lc,636f6f6c-3533-4366-9c63-2e6b69636164,rev?*
G04 #@! TF.SameCoordinates,Original*
G04 #@! TF.FileFunction,Legend,Bot*
G04 #@! TF.FilePolarity,Positive*
%FSLAX46Y46*%
G04 Gerber Fmt 4.6, Leading zero omitted, Abs format (unit mm)*
G04 Created by KiCad (PCBNEW 7.0.1-0) date 2023-06-03 13:21:34*
%MOMM*%
%LPD*%
G01*
G04 APERTURE LIST*
%ADD10C,0.150000*%
%ADD11C,0.400000*%
%ADD12C,0.500000*%
%ADD13C,1.000000*%
%ADD14C,3.500000*%
%ADD15C,3.000000*%
%ADD16C,0.800000*%
%ADD17C,0.300000*%
G04 APERTURE END LIST*
D10*
X156088429Y-165148817D02*
X156088429Y-165958340D01*
X156088429Y-165958340D02*
X156040810Y-166053578D01*
X156040810Y-166053578D02*
X155993191Y-166101198D01*
X155993191Y-166101198D02*
X155897953Y-166148817D01*
X155897953Y-166148817D02*
X155707477Y-166148817D01*
X155707477Y-166148817D02*
X155612239Y-166101198D01*
X155612239Y-166101198D02*
X155564620Y-166053578D01*
X155564620Y-166053578D02*
X155517001Y-165958340D01*
X155517001Y-165958340D02*
X155517001Y-165148817D01*
X154517001Y-166148817D02*
X155088429Y-166148817D01*
X154802715Y-166148817D02*
X154802715Y-165148817D01*
X154802715Y-165148817D02*
X154897953Y-165291674D01*
X154897953Y-165291674D02*
X154993191Y-165386912D01*
X154993191Y-165386912D02*
X155088429Y-165434531D01*
X146520810Y-160106436D02*
X146616048Y-160058817D01*
X146616048Y-160058817D02*
X146758905Y-160058817D01*
X146758905Y-160058817D02*
X146901762Y-160106436D01*
X146901762Y-160106436D02*
X146997000Y-160201674D01*
X146997000Y-160201674D02*
X147044619Y-160296912D01*
X147044619Y-160296912D02*
X147092238Y-160487388D01*
X147092238Y-160487388D02*
X147092238Y-160630245D01*
X147092238Y-160630245D02*
X147044619Y-160820721D01*
X147044619Y-160820721D02*
X146997000Y-160915959D01*
X146997000Y-160915959D02*
X146901762Y-161011198D01*
X146901762Y-161011198D02*
X146758905Y-161058817D01*
X146758905Y-161058817D02*
X146663667Y-161058817D01*
X146663667Y-161058817D02*
X146520810Y-161011198D01*
X146520810Y-161011198D02*
X146473191Y-160963578D01*
X146473191Y-160963578D02*
X146473191Y-160630245D01*
X146473191Y-160630245D02*
X146663667Y-160630245D01*
X146044619Y-161058817D02*
X146044619Y-160058817D01*
X146044619Y-160058817D02*
X145663667Y-160058817D01*
X145663667Y-160058817D02*
X145568429Y-160106436D01*
X145568429Y-160106436D02*
X145520810Y-160154055D01*
X145520810Y-160154055D02*
X145473191Y-160249293D01*
X145473191Y-160249293D02*
X145473191Y-160392150D01*
X145473191Y-160392150D02*
X145520810Y-160487388D01*
X145520810Y-160487388D02*
X145568429Y-160535007D01*
X145568429Y-160535007D02*
X145663667Y-160582626D01*
X145663667Y-160582626D02*
X146044619Y-160582626D01*
X145092238Y-160154055D02*
X145044619Y-160106436D01*
X145044619Y-160106436D02*
X144949381Y-160058817D01*
X144949381Y-160058817D02*
X144711286Y-160058817D01*
X144711286Y-160058817D02*
X144616048Y-160106436D01*
X144616048Y-160106436D02*
X144568429Y-160154055D01*
X144568429Y-160154055D02*
X144520810Y-160249293D01*
X144520810Y-160249293D02*
X144520810Y-160344531D01*
X144520810Y-160344531D02*
X144568429Y-160487388D01*
X144568429Y-160487388D02*
X145139857Y-161058817D01*
X145139857Y-161058817D02*
X144520810Y-161058817D01*
X167458972Y-159435798D02*
X166839925Y-159435798D01*
X166839925Y-159435798D02*
X167173258Y-159816750D01*
X167173258Y-159816750D02*
X167030401Y-159816750D01*
X167030401Y-159816750D02*
X166935163Y-159864369D01*
X166935163Y-159864369D02*
X166887544Y-159911988D01*
X166887544Y-159911988D02*
X166839925Y-160007226D01*
X166839925Y-160007226D02*
X166839925Y-160245321D01*
X166839925Y-160245321D02*
X166887544Y-160340559D01*
X166887544Y-160340559D02*
X166935163Y-160388179D01*
X166935163Y-160388179D02*
X167030401Y-160435798D01*
X167030401Y-160435798D02*
X167316115Y-160435798D01*
X167316115Y-160435798D02*
X167411353Y-160388179D01*
X167411353Y-160388179D02*
X167458972Y-160340559D01*
X166554210Y-159435798D02*
X166220877Y-160435798D01*
X166220877Y-160435798D02*
X165887544Y-159435798D01*
X165649448Y-159435798D02*
X165030401Y-159435798D01*
X165030401Y-159435798D02*
X165363734Y-159816750D01*
X165363734Y-159816750D02*
X165220877Y-159816750D01*
X165220877Y-159816750D02*
X165125639Y-159864369D01*
X165125639Y-159864369D02*
X165078020Y-159911988D01*
X165078020Y-159911988D02*
X165030401Y-160007226D01*
X165030401Y-160007226D02*
X165030401Y-160245321D01*
X165030401Y-160245321D02*
X165078020Y-160340559D01*
X165078020Y-160340559D02*
X165125639Y-160388179D01*
X165125639Y-160388179D02*
X165220877Y-160435798D01*
X165220877Y-160435798D02*
X165506591Y-160435798D01*
X165506591Y-160435798D02*
X165601829Y-160388179D01*
X165601829Y-160388179D02*
X165649448Y-160340559D01*
X146520810Y-157566436D02*
X146616048Y-157518817D01*
X146616048Y-157518817D02*
X146758905Y-157518817D01*
X146758905Y-157518817D02*
X146901762Y-157566436D01*
X146901762Y-157566436D02*
X146997000Y-157661674D01*
X146997000Y-157661674D02*
X147044619Y-157756912D01*
X147044619Y-157756912D02*
X147092238Y-157947388D01*
X147092238Y-157947388D02*
X147092238Y-158090245D01*
X147092238Y-158090245D02*
X147044619Y-158280721D01*
X147044619Y-158280721D02*
X146997000Y-158375959D01*
X146997000Y-158375959D02*
X146901762Y-158471198D01*
X146901762Y-158471198D02*
X146758905Y-158518817D01*
X146758905Y-158518817D02*
X146663667Y-158518817D01*
X146663667Y-158518817D02*
X146520810Y-158471198D01*
X146520810Y-158471198D02*
X146473191Y-158423578D01*
X146473191Y-158423578D02*
X146473191Y-158090245D01*
X146473191Y-158090245D02*
X146663667Y-158090245D01*
X146044619Y-158518817D02*
X146044619Y-157518817D01*
X146044619Y-157518817D02*
X145663667Y-157518817D01*
X145663667Y-157518817D02*
X145568429Y-157566436D01*
X145568429Y-157566436D02*
X145520810Y-157614055D01*
X145520810Y-157614055D02*
X145473191Y-157709293D01*
X145473191Y-157709293D02*
X145473191Y-157852150D01*
X145473191Y-157852150D02*
X145520810Y-157947388D01*
X145520810Y-157947388D02*
X145568429Y-157995007D01*
X145568429Y-157995007D02*
X145663667Y-158042626D01*
X145663667Y-158042626D02*
X146044619Y-158042626D01*
X144520810Y-158518817D02*
X145092238Y-158518817D01*
X144806524Y-158518817D02*
X144806524Y-157518817D01*
X144806524Y-157518817D02*
X144901762Y-157661674D01*
X144901762Y-157661674D02*
X144997000Y-157756912D01*
X144997000Y-157756912D02*
X145092238Y-157804531D01*
X167411354Y-162023417D02*
X167506592Y-161975798D01*
X167506592Y-161975798D02*
X167649449Y-161975798D01*
X167649449Y-161975798D02*
X167792306Y-162023417D01*
X167792306Y-162023417D02*
X167887544Y-162118655D01*
X167887544Y-162118655D02*
X167935163Y-162213893D01*
X167935163Y-162213893D02*
X167982782Y-162404369D01*
X167982782Y-162404369D02*
X167982782Y-162547226D01*
X167982782Y-162547226D02*
X167935163Y-162737702D01*
X167935163Y-162737702D02*
X167887544Y-162832940D01*
X167887544Y-162832940D02*
X167792306Y-162928179D01*
X167792306Y-162928179D02*
X167649449Y-162975798D01*
X167649449Y-162975798D02*
X167554211Y-162975798D01*
X167554211Y-162975798D02*
X167411354Y-162928179D01*
X167411354Y-162928179D02*
X167363735Y-162880559D01*
X167363735Y-162880559D02*
X167363735Y-162547226D01*
X167363735Y-162547226D02*
X167554211Y-162547226D01*
X166935163Y-162975798D02*
X166935163Y-161975798D01*
X166935163Y-161975798D02*
X166554211Y-161975798D01*
X166554211Y-161975798D02*
X166458973Y-162023417D01*
X166458973Y-162023417D02*
X166411354Y-162071036D01*
X166411354Y-162071036D02*
X166363735Y-162166274D01*
X166363735Y-162166274D02*
X166363735Y-162309131D01*
X166363735Y-162309131D02*
X166411354Y-162404369D01*
X166411354Y-162404369D02*
X166458973Y-162451988D01*
X166458973Y-162451988D02*
X166554211Y-162499607D01*
X166554211Y-162499607D02*
X166935163Y-162499607D01*
X165982782Y-162071036D02*
X165935163Y-162023417D01*
X165935163Y-162023417D02*
X165839925Y-161975798D01*
X165839925Y-161975798D02*
X165601830Y-161975798D01*
X165601830Y-161975798D02*
X165506592Y-162023417D01*
X165506592Y-162023417D02*
X165458973Y-162071036D01*
X165458973Y-162071036D02*
X165411354Y-162166274D01*
X165411354Y-162166274D02*
X165411354Y-162261512D01*
X165411354Y-162261512D02*
X165458973Y-162404369D01*
X165458973Y-162404369D02*
X166030401Y-162975798D01*
X166030401Y-162975798D02*
X165411354Y-162975798D01*
X164935163Y-162975798D02*
X164744687Y-162975798D01*
X164744687Y-162975798D02*
X164649449Y-162928179D01*
X164649449Y-162928179D02*
X164601830Y-162880559D01*
X164601830Y-162880559D02*
X164506592Y-162737702D01*
X164506592Y-162737702D02*
X164458973Y-162547226D01*
X164458973Y-162547226D02*
X164458973Y-162166274D01*
X164458973Y-162166274D02*
X164506592Y-162071036D01*
X164506592Y-162071036D02*
X164554211Y-162023417D01*
X164554211Y-162023417D02*
X164649449Y-161975798D01*
X164649449Y-161975798D02*
X164839925Y-161975798D01*
X164839925Y-161975798D02*
X164935163Y-162023417D01*
X164935163Y-162023417D02*
X164982782Y-162071036D01*
X164982782Y-162071036D02*
X165030401Y-162166274D01*
X165030401Y-162166274D02*
X165030401Y-162404369D01*
X165030401Y-162404369D02*
X164982782Y-162499607D01*
X164982782Y-162499607D02*
X164935163Y-162547226D01*
X164935163Y-162547226D02*
X164839925Y-162594845D01*
X164839925Y-162594845D02*
X164649449Y-162594845D01*
X164649449Y-162594845D02*
X164554211Y-162547226D01*
X164554211Y-162547226D02*
X164506592Y-162499607D01*
X164506592Y-162499607D02*
X164458973Y-162404369D01*
X167411354Y-164563417D02*
X167506592Y-164515798D01*
X167506592Y-164515798D02*
X167649449Y-164515798D01*
X167649449Y-164515798D02*
X167792306Y-164563417D01*
X167792306Y-164563417D02*
X167887544Y-164658655D01*
X167887544Y-164658655D02*
X167935163Y-164753893D01*
X167935163Y-164753893D02*
X167982782Y-164944369D01*
X167982782Y-164944369D02*
X167982782Y-165087226D01*
X167982782Y-165087226D02*
X167935163Y-165277702D01*
X167935163Y-165277702D02*
X167887544Y-165372940D01*
X167887544Y-165372940D02*
X167792306Y-165468179D01*
X167792306Y-165468179D02*
X167649449Y-165515798D01*
X167649449Y-165515798D02*
X167554211Y-165515798D01*
X167554211Y-165515798D02*
X167411354Y-165468179D01*
X167411354Y-165468179D02*
X167363735Y-165420559D01*
X167363735Y-165420559D02*
X167363735Y-165087226D01*
X167363735Y-165087226D02*
X167554211Y-165087226D01*
X166935163Y-165515798D02*
X166935163Y-164515798D01*
X166935163Y-164515798D02*
X166554211Y-164515798D01*
X166554211Y-164515798D02*
X166458973Y-164563417D01*
X166458973Y-164563417D02*
X166411354Y-164611036D01*
X166411354Y-164611036D02*
X166363735Y-164706274D01*
X166363735Y-164706274D02*
X166363735Y-164849131D01*
X166363735Y-164849131D02*
X166411354Y-164944369D01*
X166411354Y-164944369D02*
X166458973Y-164991988D01*
X166458973Y-164991988D02*
X166554211Y-165039607D01*
X166554211Y-165039607D02*
X166935163Y-165039607D01*
X165982782Y-164611036D02*
X165935163Y-164563417D01*
X165935163Y-164563417D02*
X165839925Y-164515798D01*
X165839925Y-164515798D02*
X165601830Y-164515798D01*
X165601830Y-164515798D02*
X165506592Y-164563417D01*
X165506592Y-164563417D02*
X165458973Y-164611036D01*
X165458973Y-164611036D02*
X165411354Y-164706274D01*
X165411354Y-164706274D02*
X165411354Y-164801512D01*
X165411354Y-164801512D02*
X165458973Y-164944369D01*
X165458973Y-164944369D02*
X166030401Y-165515798D01*
X166030401Y-165515798D02*
X165411354Y-165515798D01*
X164839925Y-164944369D02*
X164935163Y-164896750D01*
X164935163Y-164896750D02*
X164982782Y-164849131D01*
X164982782Y-164849131D02*
X165030401Y-164753893D01*
X165030401Y-164753893D02*
X165030401Y-164706274D01*
X165030401Y-164706274D02*
X164982782Y-164611036D01*
X164982782Y-164611036D02*
X164935163Y-164563417D01*
X164935163Y-164563417D02*
X164839925Y-164515798D01*
X164839925Y-164515798D02*
X164649449Y-164515798D01*
X164649449Y-164515798D02*
X164554211Y-164563417D01*
X164554211Y-164563417D02*
X164506592Y-164611036D01*
X164506592Y-164611036D02*
X164458973Y-164706274D01*
X164458973Y-164706274D02*
X164458973Y-164753893D01*
X164458973Y-164753893D02*
X164506592Y-164849131D01*
X164506592Y-164849131D02*
X164554211Y-164896750D01*
X164554211Y-164896750D02*
X164649449Y-164944369D01*
X164649449Y-164944369D02*
X164839925Y-164944369D01*
X164839925Y-164944369D02*
X164935163Y-164991988D01*
X164935163Y-164991988D02*
X164982782Y-165039607D01*
X164982782Y-165039607D02*
X165030401Y-165134845D01*
X165030401Y-165134845D02*
X165030401Y-165325321D01*
X165030401Y-165325321D02*
X164982782Y-165420559D01*
X164982782Y-165420559D02*
X164935163Y-165468179D01*
X164935163Y-165468179D02*
X164839925Y-165515798D01*
X164839925Y-165515798D02*
X164649449Y-165515798D01*
X164649449Y-165515798D02*
X164554211Y-165468179D01*
X164554211Y-165468179D02*
X164506592Y-165420559D01*
X164506592Y-165420559D02*
X164458973Y-165325321D01*
X164458973Y-165325321D02*
X164458973Y-165134845D01*
X164458973Y-165134845D02*
X164506592Y-165039607D01*
X164506592Y-165039607D02*
X164554211Y-164991988D01*
X164554211Y-164991988D02*
X164649449Y-164944369D01*
X166982782Y-156943417D02*
X167078020Y-156895798D01*
X167078020Y-156895798D02*
X167220877Y-156895798D01*
X167220877Y-156895798D02*
X167363734Y-156943417D01*
X167363734Y-156943417D02*
X167458972Y-157038655D01*
X167458972Y-157038655D02*
X167506591Y-157133893D01*
X167506591Y-157133893D02*
X167554210Y-157324369D01*
X167554210Y-157324369D02*
X167554210Y-157467226D01*
X167554210Y-157467226D02*
X167506591Y-157657702D01*
X167506591Y-157657702D02*
X167458972Y-157752940D01*
X167458972Y-157752940D02*
X167363734Y-157848179D01*
X167363734Y-157848179D02*
X167220877Y-157895798D01*
X167220877Y-157895798D02*
X167125639Y-157895798D01*
X167125639Y-157895798D02*
X166982782Y-157848179D01*
X166982782Y-157848179D02*
X166935163Y-157800559D01*
X166935163Y-157800559D02*
X166935163Y-157467226D01*
X166935163Y-157467226D02*
X167125639Y-157467226D01*
X166506591Y-157895798D02*
X166506591Y-156895798D01*
X166506591Y-156895798D02*
X165935163Y-157895798D01*
X165935163Y-157895798D02*
X165935163Y-156895798D01*
X165458972Y-157895798D02*
X165458972Y-156895798D01*
X165458972Y-156895798D02*
X165220877Y-156895798D01*
X165220877Y-156895798D02*
X165078020Y-156943417D01*
X165078020Y-156943417D02*
X164982782Y-157038655D01*
X164982782Y-157038655D02*
X164935163Y-157133893D01*
X164935163Y-157133893D02*
X164887544Y-157324369D01*
X164887544Y-157324369D02*
X164887544Y-157467226D01*
X164887544Y-157467226D02*
X164935163Y-157657702D01*
X164935163Y-157657702D02*
X164982782Y-157752940D01*
X164982782Y-157752940D02*
X165078020Y-157848179D01*
X165078020Y-157848179D02*
X165220877Y-157895798D01*
X165220877Y-157895798D02*
X165458972Y-157895798D01*
X146520810Y-165186436D02*
X146616048Y-165138817D01*
X146616048Y-165138817D02*
X146758905Y-165138817D01*
X146758905Y-165138817D02*
X146901762Y-165186436D01*
X146901762Y-165186436D02*
X146997000Y-165281674D01*
X146997000Y-165281674D02*
X147044619Y-165376912D01*
X147044619Y-165376912D02*
X147092238Y-165567388D01*
X147092238Y-165567388D02*
X147092238Y-165710245D01*
X147092238Y-165710245D02*
X147044619Y-165900721D01*
X147044619Y-165900721D02*
X146997000Y-165995959D01*
X146997000Y-165995959D02*
X146901762Y-166091198D01*
X146901762Y-166091198D02*
X146758905Y-166138817D01*
X146758905Y-166138817D02*
X146663667Y-166138817D01*
X146663667Y-166138817D02*
X146520810Y-166091198D01*
X146520810Y-166091198D02*
X146473191Y-166043578D01*
X146473191Y-166043578D02*
X146473191Y-165710245D01*
X146473191Y-165710245D02*
X146663667Y-165710245D01*
X146044619Y-166138817D02*
X146044619Y-165138817D01*
X146044619Y-165138817D02*
X145663667Y-165138817D01*
X145663667Y-165138817D02*
X145568429Y-165186436D01*
X145568429Y-165186436D02*
X145520810Y-165234055D01*
X145520810Y-165234055D02*
X145473191Y-165329293D01*
X145473191Y-165329293D02*
X145473191Y-165472150D01*
X145473191Y-165472150D02*
X145520810Y-165567388D01*
X145520810Y-165567388D02*
X145568429Y-165615007D01*
X145568429Y-165615007D02*
X145663667Y-165662626D01*
X145663667Y-165662626D02*
X146044619Y-165662626D01*
X144616048Y-165472150D02*
X144616048Y-166138817D01*
X144854143Y-165091198D02*
X145092238Y-165805483D01*
X145092238Y-165805483D02*
X144473191Y-165805483D01*
X146520810Y-175346436D02*
X146616048Y-175298817D01*
X146616048Y-175298817D02*
X146758905Y-175298817D01*
X146758905Y-175298817D02*
X146901762Y-175346436D01*
X146901762Y-175346436D02*
X146997000Y-175441674D01*
X146997000Y-175441674D02*
X147044619Y-175536912D01*
X147044619Y-175536912D02*
X147092238Y-175727388D01*
X147092238Y-175727388D02*
X147092238Y-175870245D01*
X147092238Y-175870245D02*
X147044619Y-176060721D01*
X147044619Y-176060721D02*
X146997000Y-176155959D01*
X146997000Y-176155959D02*
X146901762Y-176251198D01*
X146901762Y-176251198D02*
X146758905Y-176298817D01*
X146758905Y-176298817D02*
X146663667Y-176298817D01*
X146663667Y-176298817D02*
X146520810Y-176251198D01*
X146520810Y-176251198D02*
X146473191Y-176203578D01*
X146473191Y-176203578D02*
X146473191Y-175870245D01*
X146473191Y-175870245D02*
X146663667Y-175870245D01*
X146044619Y-176298817D02*
X146044619Y-175298817D01*
X146044619Y-175298817D02*
X145663667Y-175298817D01*
X145663667Y-175298817D02*
X145568429Y-175346436D01*
X145568429Y-175346436D02*
X145520810Y-175394055D01*
X145520810Y-175394055D02*
X145473191Y-175489293D01*
X145473191Y-175489293D02*
X145473191Y-175632150D01*
X145473191Y-175632150D02*
X145520810Y-175727388D01*
X145520810Y-175727388D02*
X145568429Y-175775007D01*
X145568429Y-175775007D02*
X145663667Y-175822626D01*
X145663667Y-175822626D02*
X146044619Y-175822626D01*
X144901762Y-175727388D02*
X144997000Y-175679769D01*
X144997000Y-175679769D02*
X145044619Y-175632150D01*
X145044619Y-175632150D02*
X145092238Y-175536912D01*
X145092238Y-175536912D02*
X145092238Y-175489293D01*
X145092238Y-175489293D02*
X145044619Y-175394055D01*
X145044619Y-175394055D02*
X144997000Y-175346436D01*
X144997000Y-175346436D02*
X144901762Y-175298817D01*
X144901762Y-175298817D02*
X144711286Y-175298817D01*
X144711286Y-175298817D02*
X144616048Y-175346436D01*
X144616048Y-175346436D02*
X144568429Y-175394055D01*
X144568429Y-175394055D02*
X144520810Y-175489293D01*
X144520810Y-175489293D02*
X144520810Y-175536912D01*
X144520810Y-175536912D02*
X144568429Y-175632150D01*
X144568429Y-175632150D02*
X144616048Y-175679769D01*
X144616048Y-175679769D02*
X144711286Y-175727388D01*
X144711286Y-175727388D02*
X144901762Y-175727388D01*
X144901762Y-175727388D02*
X144997000Y-175775007D01*
X144997000Y-175775007D02*
X145044619Y-175822626D01*
X145044619Y-175822626D02*
X145092238Y-175917864D01*
X145092238Y-175917864D02*
X145092238Y-176108340D01*
X145092238Y-176108340D02*
X145044619Y-176203578D01*
X145044619Y-176203578D02*
X144997000Y-176251198D01*
X144997000Y-176251198D02*
X144901762Y-176298817D01*
X144901762Y-176298817D02*
X144711286Y-176298817D01*
X144711286Y-176298817D02*
X144616048Y-176251198D01*
X144616048Y-176251198D02*
X144568429Y-176203578D01*
X144568429Y-176203578D02*
X144520810Y-176108340D01*
X144520810Y-176108340D02*
X144520810Y-175917864D01*
X144520810Y-175917864D02*
X144568429Y-175822626D01*
X144568429Y-175822626D02*
X144616048Y-175775007D01*
X144616048Y-175775007D02*
X144711286Y-175727388D01*
X167411354Y-174723417D02*
X167506592Y-174675798D01*
X167506592Y-174675798D02*
X167649449Y-174675798D01*
X167649449Y-174675798D02*
X167792306Y-174723417D01*
X167792306Y-174723417D02*
X167887544Y-174818655D01*
X167887544Y-174818655D02*
X167935163Y-174913893D01*
X167935163Y-174913893D02*
X167982782Y-175104369D01*
X167982782Y-175104369D02*
X167982782Y-175247226D01*
X167982782Y-175247226D02*
X167935163Y-175437702D01*
X167935163Y-175437702D02*
X167887544Y-175532940D01*
X167887544Y-175532940D02*
X167792306Y-175628179D01*
X167792306Y-175628179D02*
X167649449Y-175675798D01*
X167649449Y-175675798D02*
X167554211Y-175675798D01*
X167554211Y-175675798D02*
X167411354Y-175628179D01*
X167411354Y-175628179D02*
X167363735Y-175580559D01*
X167363735Y-175580559D02*
X167363735Y-175247226D01*
X167363735Y-175247226D02*
X167554211Y-175247226D01*
X166935163Y-175675798D02*
X166935163Y-174675798D01*
X166935163Y-174675798D02*
X166554211Y-174675798D01*
X166554211Y-174675798D02*
X166458973Y-174723417D01*
X166458973Y-174723417D02*
X166411354Y-174771036D01*
X166411354Y-174771036D02*
X166363735Y-174866274D01*
X166363735Y-174866274D02*
X166363735Y-175009131D01*
X166363735Y-175009131D02*
X166411354Y-175104369D01*
X166411354Y-175104369D02*
X166458973Y-175151988D01*
X166458973Y-175151988D02*
X166554211Y-175199607D01*
X166554211Y-175199607D02*
X166935163Y-175199607D01*
X165411354Y-175675798D02*
X165982782Y-175675798D01*
X165697068Y-175675798D02*
X165697068Y-174675798D01*
X165697068Y-174675798D02*
X165792306Y-174818655D01*
X165792306Y-174818655D02*
X165887544Y-174913893D01*
X165887544Y-174913893D02*
X165982782Y-174961512D01*
X164554211Y-175009131D02*
X164554211Y-175675798D01*
X164792306Y-174628179D02*
X165030401Y-175342464D01*
X165030401Y-175342464D02*
X164411354Y-175342464D01*
X160651116Y-176562702D02*
X160603497Y-176467464D01*
X160603497Y-176467464D02*
X160603497Y-176324607D01*
X160603497Y-176324607D02*
X160651116Y-176181750D01*
X160651116Y-176181750D02*
X160746354Y-176086512D01*
X160746354Y-176086512D02*
X160841592Y-176038893D01*
X160841592Y-176038893D02*
X161032068Y-175991274D01*
X161032068Y-175991274D02*
X161174925Y-175991274D01*
X161174925Y-175991274D02*
X161365401Y-176038893D01*
X161365401Y-176038893D02*
X161460639Y-176086512D01*
X161460639Y-176086512D02*
X161555878Y-176181750D01*
X161555878Y-176181750D02*
X161603497Y-176324607D01*
X161603497Y-176324607D02*
X161603497Y-176419845D01*
X161603497Y-176419845D02*
X161555878Y-176562702D01*
X161555878Y-176562702D02*
X161508258Y-176610321D01*
X161508258Y-176610321D02*
X161174925Y-176610321D01*
X161174925Y-176610321D02*
X161174925Y-176419845D01*
X161603497Y-177038893D02*
X160603497Y-177038893D01*
X160603497Y-177038893D02*
X160603497Y-177419845D01*
X160603497Y-177419845D02*
X160651116Y-177515083D01*
X160651116Y-177515083D02*
X160698735Y-177562702D01*
X160698735Y-177562702D02*
X160793973Y-177610321D01*
X160793973Y-177610321D02*
X160936830Y-177610321D01*
X160936830Y-177610321D02*
X161032068Y-177562702D01*
X161032068Y-177562702D02*
X161079687Y-177515083D01*
X161079687Y-177515083D02*
X161127306Y-177419845D01*
X161127306Y-177419845D02*
X161127306Y-177038893D01*
X161603497Y-178562702D02*
X161603497Y-177991274D01*
X161603497Y-178276988D02*
X160603497Y-178276988D01*
X160603497Y-178276988D02*
X160746354Y-178181750D01*
X160746354Y-178181750D02*
X160841592Y-178086512D01*
X160841592Y-178086512D02*
X160889211Y-177991274D01*
X160603497Y-178896036D02*
X160603497Y-179515083D01*
X160603497Y-179515083D02*
X160984449Y-179181750D01*
X160984449Y-179181750D02*
X160984449Y-179324607D01*
X160984449Y-179324607D02*
X161032068Y-179419845D01*
X161032068Y-179419845D02*
X161079687Y-179467464D01*
X161079687Y-179467464D02*
X161174925Y-179515083D01*
X161174925Y-179515083D02*
X161413020Y-179515083D01*
X161413020Y-179515083D02*
X161508258Y-179467464D01*
X161508258Y-179467464D02*
X161555878Y-179419845D01*
X161555878Y-179419845D02*
X161603497Y-179324607D01*
X161603497Y-179324607D02*
X161603497Y-179038893D01*
X161603497Y-179038893D02*
X161555878Y-178943655D01*
X161555878Y-178943655D02*
X161508258Y-178896036D01*
X167411354Y-167103417D02*
X167506592Y-167055798D01*
X167506592Y-167055798D02*
X167649449Y-167055798D01*
X167649449Y-167055798D02*
X167792306Y-167103417D01*
X167792306Y-167103417D02*
X167887544Y-167198655D01*
X167887544Y-167198655D02*
X167935163Y-167293893D01*
X167935163Y-167293893D02*
X167982782Y-167484369D01*
X167982782Y-167484369D02*
X167982782Y-167627226D01*
X167982782Y-167627226D02*
X167935163Y-167817702D01*
X167935163Y-167817702D02*
X167887544Y-167912940D01*
X167887544Y-167912940D02*
X167792306Y-168008179D01*
X167792306Y-168008179D02*
X167649449Y-168055798D01*
X167649449Y-168055798D02*
X167554211Y-168055798D01*
X167554211Y-168055798D02*
X167411354Y-168008179D01*
X167411354Y-168008179D02*
X167363735Y-167960559D01*
X167363735Y-167960559D02*
X167363735Y-167627226D01*
X167363735Y-167627226D02*
X167554211Y-167627226D01*
X166935163Y-168055798D02*
X166935163Y-167055798D01*
X166935163Y-167055798D02*
X166554211Y-167055798D01*
X166554211Y-167055798D02*
X166458973Y-167103417D01*
X166458973Y-167103417D02*
X166411354Y-167151036D01*
X166411354Y-167151036D02*
X166363735Y-167246274D01*
X166363735Y-167246274D02*
X166363735Y-167389131D01*
X166363735Y-167389131D02*
X166411354Y-167484369D01*
X166411354Y-167484369D02*
X166458973Y-167531988D01*
X166458973Y-167531988D02*
X166554211Y-167579607D01*
X166554211Y-167579607D02*
X166935163Y-167579607D01*
X165982782Y-167151036D02*
X165935163Y-167103417D01*
X165935163Y-167103417D02*
X165839925Y-167055798D01*
X165839925Y-167055798D02*
X165601830Y-167055798D01*
X165601830Y-167055798D02*
X165506592Y-167103417D01*
X165506592Y-167103417D02*
X165458973Y-167151036D01*
X165458973Y-167151036D02*
X165411354Y-167246274D01*
X165411354Y-167246274D02*
X165411354Y-167341512D01*
X165411354Y-167341512D02*
X165458973Y-167484369D01*
X165458973Y-167484369D02*
X166030401Y-168055798D01*
X166030401Y-168055798D02*
X165411354Y-168055798D01*
X165078020Y-167055798D02*
X164411354Y-167055798D01*
X164411354Y-167055798D02*
X164839925Y-168055798D01*
X150396763Y-177661912D02*
X150349144Y-177566674D01*
X150349144Y-177566674D02*
X150349144Y-177423817D01*
X150349144Y-177423817D02*
X150396763Y-177280960D01*
X150396763Y-177280960D02*
X150492001Y-177185722D01*
X150492001Y-177185722D02*
X150587239Y-177138103D01*
X150587239Y-177138103D02*
X150777715Y-177090484D01*
X150777715Y-177090484D02*
X150920572Y-177090484D01*
X150920572Y-177090484D02*
X151111048Y-177138103D01*
X151111048Y-177138103D02*
X151206286Y-177185722D01*
X151206286Y-177185722D02*
X151301525Y-177280960D01*
X151301525Y-177280960D02*
X151349144Y-177423817D01*
X151349144Y-177423817D02*
X151349144Y-177519055D01*
X151349144Y-177519055D02*
X151301525Y-177661912D01*
X151301525Y-177661912D02*
X151253905Y-177709531D01*
X151253905Y-177709531D02*
X150920572Y-177709531D01*
X150920572Y-177709531D02*
X150920572Y-177519055D01*
X151349144Y-178138103D02*
X150349144Y-178138103D01*
X150349144Y-178138103D02*
X150349144Y-178519055D01*
X150349144Y-178519055D02*
X150396763Y-178614293D01*
X150396763Y-178614293D02*
X150444382Y-178661912D01*
X150444382Y-178661912D02*
X150539620Y-178709531D01*
X150539620Y-178709531D02*
X150682477Y-178709531D01*
X150682477Y-178709531D02*
X150777715Y-178661912D01*
X150777715Y-178661912D02*
X150825334Y-178614293D01*
X150825334Y-178614293D02*
X150872953Y-178519055D01*
X150872953Y-178519055D02*
X150872953Y-178138103D01*
X151349144Y-179185722D02*
X151349144Y-179376198D01*
X151349144Y-179376198D02*
X151301525Y-179471436D01*
X151301525Y-179471436D02*
X151253905Y-179519055D01*
X151253905Y-179519055D02*
X151111048Y-179614293D01*
X151111048Y-179614293D02*
X150920572Y-179661912D01*
X150920572Y-179661912D02*
X150539620Y-179661912D01*
X150539620Y-179661912D02*
X150444382Y-179614293D01*
X150444382Y-179614293D02*
X150396763Y-179566674D01*
X150396763Y-179566674D02*
X150349144Y-179471436D01*
X150349144Y-179471436D02*
X150349144Y-179280960D01*
X150349144Y-179280960D02*
X150396763Y-179185722D01*
X150396763Y-179185722D02*
X150444382Y-179138103D01*
X150444382Y-179138103D02*
X150539620Y-179090484D01*
X150539620Y-179090484D02*
X150777715Y-179090484D01*
X150777715Y-179090484D02*
X150872953Y-179138103D01*
X150872953Y-179138103D02*
X150920572Y-179185722D01*
X150920572Y-179185722D02*
X150968191Y-179280960D01*
X150968191Y-179280960D02*
X150968191Y-179471436D01*
X150968191Y-179471436D02*
X150920572Y-179566674D01*
X150920572Y-179566674D02*
X150872953Y-179614293D01*
X150872953Y-179614293D02*
X150777715Y-179661912D01*
X167411354Y-169643417D02*
X167506592Y-169595798D01*
X167506592Y-169595798D02*
X167649449Y-169595798D01*
X167649449Y-169595798D02*
X167792306Y-169643417D01*
X167792306Y-169643417D02*
X167887544Y-169738655D01*
X167887544Y-169738655D02*
X167935163Y-169833893D01*
X167935163Y-169833893D02*
X167982782Y-170024369D01*
X167982782Y-170024369D02*
X167982782Y-170167226D01*
X167982782Y-170167226D02*
X167935163Y-170357702D01*
X167935163Y-170357702D02*
X167887544Y-170452940D01*
X167887544Y-170452940D02*
X167792306Y-170548179D01*
X167792306Y-170548179D02*
X167649449Y-170595798D01*
X167649449Y-170595798D02*
X167554211Y-170595798D01*
X167554211Y-170595798D02*
X167411354Y-170548179D01*
X167411354Y-170548179D02*
X167363735Y-170500559D01*
X167363735Y-170500559D02*
X167363735Y-170167226D01*
X167363735Y-170167226D02*
X167554211Y-170167226D01*
X166935163Y-170595798D02*
X166935163Y-169595798D01*
X166935163Y-169595798D02*
X166554211Y-169595798D01*
X166554211Y-169595798D02*
X166458973Y-169643417D01*
X166458973Y-169643417D02*
X166411354Y-169691036D01*
X166411354Y-169691036D02*
X166363735Y-169786274D01*
X166363735Y-169786274D02*
X166363735Y-169929131D01*
X166363735Y-169929131D02*
X166411354Y-170024369D01*
X166411354Y-170024369D02*
X166458973Y-170071988D01*
X166458973Y-170071988D02*
X166554211Y-170119607D01*
X166554211Y-170119607D02*
X166935163Y-170119607D01*
X165982782Y-169691036D02*
X165935163Y-169643417D01*
X165935163Y-169643417D02*
X165839925Y-169595798D01*
X165839925Y-169595798D02*
X165601830Y-169595798D01*
X165601830Y-169595798D02*
X165506592Y-169643417D01*
X165506592Y-169643417D02*
X165458973Y-169691036D01*
X165458973Y-169691036D02*
X165411354Y-169786274D01*
X165411354Y-169786274D02*
X165411354Y-169881512D01*
X165411354Y-169881512D02*
X165458973Y-170024369D01*
X165458973Y-170024369D02*
X166030401Y-170595798D01*
X166030401Y-170595798D02*
X165411354Y-170595798D01*
X164554211Y-169595798D02*
X164744687Y-169595798D01*
X164744687Y-169595798D02*
X164839925Y-169643417D01*
X164839925Y-169643417D02*
X164887544Y-169691036D01*
X164887544Y-169691036D02*
X164982782Y-169833893D01*
X164982782Y-169833893D02*
X165030401Y-170024369D01*
X165030401Y-170024369D02*
X165030401Y-170405321D01*
X165030401Y-170405321D02*
X164982782Y-170500559D01*
X164982782Y-170500559D02*
X164935163Y-170548179D01*
X164935163Y-170548179D02*
X164839925Y-170595798D01*
X164839925Y-170595798D02*
X164649449Y-170595798D01*
X164649449Y-170595798D02*
X164554211Y-170548179D01*
X164554211Y-170548179D02*
X164506592Y-170500559D01*
X164506592Y-170500559D02*
X164458973Y-170405321D01*
X164458973Y-170405321D02*
X164458973Y-170167226D01*
X164458973Y-170167226D02*
X164506592Y-170071988D01*
X164506592Y-170071988D02*
X164554211Y-170024369D01*
X164554211Y-170024369D02*
X164649449Y-169976750D01*
X164649449Y-169976750D02*
X164839925Y-169976750D01*
X164839925Y-169976750D02*
X164935163Y-170024369D01*
X164935163Y-170024369D02*
X164982782Y-170071988D01*
X164982782Y-170071988D02*
X165030401Y-170167226D01*
X146520810Y-162646436D02*
X146616048Y-162598817D01*
X146616048Y-162598817D02*
X146758905Y-162598817D01*
X146758905Y-162598817D02*
X146901762Y-162646436D01*
X146901762Y-162646436D02*
X146997000Y-162741674D01*
X146997000Y-162741674D02*
X147044619Y-162836912D01*
X147044619Y-162836912D02*
X147092238Y-163027388D01*
X147092238Y-163027388D02*
X147092238Y-163170245D01*
X147092238Y-163170245D02*
X147044619Y-163360721D01*
X147044619Y-163360721D02*
X146997000Y-163455959D01*
X146997000Y-163455959D02*
X146901762Y-163551198D01*
X146901762Y-163551198D02*
X146758905Y-163598817D01*
X146758905Y-163598817D02*
X146663667Y-163598817D01*
X146663667Y-163598817D02*
X146520810Y-163551198D01*
X146520810Y-163551198D02*
X146473191Y-163503578D01*
X146473191Y-163503578D02*
X146473191Y-163170245D01*
X146473191Y-163170245D02*
X146663667Y-163170245D01*
X146044619Y-163598817D02*
X146044619Y-162598817D01*
X146044619Y-162598817D02*
X145663667Y-162598817D01*
X145663667Y-162598817D02*
X145568429Y-162646436D01*
X145568429Y-162646436D02*
X145520810Y-162694055D01*
X145520810Y-162694055D02*
X145473191Y-162789293D01*
X145473191Y-162789293D02*
X145473191Y-162932150D01*
X145473191Y-162932150D02*
X145520810Y-163027388D01*
X145520810Y-163027388D02*
X145568429Y-163075007D01*
X145568429Y-163075007D02*
X145663667Y-163122626D01*
X145663667Y-163122626D02*
X146044619Y-163122626D01*
X145139857Y-162598817D02*
X144520810Y-162598817D01*
X144520810Y-162598817D02*
X144854143Y-162979769D01*
X144854143Y-162979769D02*
X144711286Y-162979769D01*
X144711286Y-162979769D02*
X144616048Y-163027388D01*
X144616048Y-163027388D02*
X144568429Y-163075007D01*
X144568429Y-163075007D02*
X144520810Y-163170245D01*
X144520810Y-163170245D02*
X144520810Y-163408340D01*
X144520810Y-163408340D02*
X144568429Y-163503578D01*
X144568429Y-163503578D02*
X144616048Y-163551198D01*
X144616048Y-163551198D02*
X144711286Y-163598817D01*
X144711286Y-163598817D02*
X144997000Y-163598817D01*
X144997000Y-163598817D02*
X145092238Y-163551198D01*
X145092238Y-163551198D02*
X145139857Y-163503578D01*
X146520810Y-155026436D02*
X146616048Y-154978817D01*
X146616048Y-154978817D02*
X146758905Y-154978817D01*
X146758905Y-154978817D02*
X146901762Y-155026436D01*
X146901762Y-155026436D02*
X146997000Y-155121674D01*
X146997000Y-155121674D02*
X147044619Y-155216912D01*
X147044619Y-155216912D02*
X147092238Y-155407388D01*
X147092238Y-155407388D02*
X147092238Y-155550245D01*
X147092238Y-155550245D02*
X147044619Y-155740721D01*
X147044619Y-155740721D02*
X146997000Y-155835959D01*
X146997000Y-155835959D02*
X146901762Y-155931198D01*
X146901762Y-155931198D02*
X146758905Y-155978817D01*
X146758905Y-155978817D02*
X146663667Y-155978817D01*
X146663667Y-155978817D02*
X146520810Y-155931198D01*
X146520810Y-155931198D02*
X146473191Y-155883578D01*
X146473191Y-155883578D02*
X146473191Y-155550245D01*
X146473191Y-155550245D02*
X146663667Y-155550245D01*
X146044619Y-155978817D02*
X146044619Y-154978817D01*
X146044619Y-154978817D02*
X145663667Y-154978817D01*
X145663667Y-154978817D02*
X145568429Y-155026436D01*
X145568429Y-155026436D02*
X145520810Y-155074055D01*
X145520810Y-155074055D02*
X145473191Y-155169293D01*
X145473191Y-155169293D02*
X145473191Y-155312150D01*
X145473191Y-155312150D02*
X145520810Y-155407388D01*
X145520810Y-155407388D02*
X145568429Y-155455007D01*
X145568429Y-155455007D02*
X145663667Y-155502626D01*
X145663667Y-155502626D02*
X146044619Y-155502626D01*
X144854143Y-154978817D02*
X144758905Y-154978817D01*
X144758905Y-154978817D02*
X144663667Y-155026436D01*
X144663667Y-155026436D02*
X144616048Y-155074055D01*
X144616048Y-155074055D02*
X144568429Y-155169293D01*
X144568429Y-155169293D02*
X144520810Y-155359769D01*
X144520810Y-155359769D02*
X144520810Y-155597864D01*
X144520810Y-155597864D02*
X144568429Y-155788340D01*
X144568429Y-155788340D02*
X144616048Y-155883578D01*
X144616048Y-155883578D02*
X144663667Y-155931198D01*
X144663667Y-155931198D02*
X144758905Y-155978817D01*
X144758905Y-155978817D02*
X144854143Y-155978817D01*
X144854143Y-155978817D02*
X144949381Y-155931198D01*
X144949381Y-155931198D02*
X144997000Y-155883578D01*
X144997000Y-155883578D02*
X145044619Y-155788340D01*
X145044619Y-155788340D02*
X145092238Y-155597864D01*
X145092238Y-155597864D02*
X145092238Y-155359769D01*
X145092238Y-155359769D02*
X145044619Y-155169293D01*
X145044619Y-155169293D02*
X144997000Y-155074055D01*
X144997000Y-155074055D02*
X144949381Y-155026436D01*
X144949381Y-155026436D02*
X144854143Y-154978817D01*
X166411354Y-154355798D02*
X166887544Y-154355798D01*
X166887544Y-154355798D02*
X166935163Y-154831988D01*
X166935163Y-154831988D02*
X166887544Y-154784369D01*
X166887544Y-154784369D02*
X166792306Y-154736750D01*
X166792306Y-154736750D02*
X166554211Y-154736750D01*
X166554211Y-154736750D02*
X166458973Y-154784369D01*
X166458973Y-154784369D02*
X166411354Y-154831988D01*
X166411354Y-154831988D02*
X166363735Y-154927226D01*
X166363735Y-154927226D02*
X166363735Y-155165321D01*
X166363735Y-155165321D02*
X166411354Y-155260559D01*
X166411354Y-155260559D02*
X166458973Y-155308179D01*
X166458973Y-155308179D02*
X166554211Y-155355798D01*
X166554211Y-155355798D02*
X166792306Y-155355798D01*
X166792306Y-155355798D02*
X166887544Y-155308179D01*
X166887544Y-155308179D02*
X166935163Y-155260559D01*
X166078020Y-154355798D02*
X165744687Y-155355798D01*
X165744687Y-155355798D02*
X165411354Y-154355798D01*
X155571116Y-176562702D02*
X155523497Y-176467464D01*
X155523497Y-176467464D02*
X155523497Y-176324607D01*
X155523497Y-176324607D02*
X155571116Y-176181750D01*
X155571116Y-176181750D02*
X155666354Y-176086512D01*
X155666354Y-176086512D02*
X155761592Y-176038893D01*
X155761592Y-176038893D02*
X155952068Y-175991274D01*
X155952068Y-175991274D02*
X156094925Y-175991274D01*
X156094925Y-175991274D02*
X156285401Y-176038893D01*
X156285401Y-176038893D02*
X156380639Y-176086512D01*
X156380639Y-176086512D02*
X156475878Y-176181750D01*
X156475878Y-176181750D02*
X156523497Y-176324607D01*
X156523497Y-176324607D02*
X156523497Y-176419845D01*
X156523497Y-176419845D02*
X156475878Y-176562702D01*
X156475878Y-176562702D02*
X156428258Y-176610321D01*
X156428258Y-176610321D02*
X156094925Y-176610321D01*
X156094925Y-176610321D02*
X156094925Y-176419845D01*
X156523497Y-177038893D02*
X155523497Y-177038893D01*
X155523497Y-177038893D02*
X155523497Y-177419845D01*
X155523497Y-177419845D02*
X155571116Y-177515083D01*
X155571116Y-177515083D02*
X155618735Y-177562702D01*
X155618735Y-177562702D02*
X155713973Y-177610321D01*
X155713973Y-177610321D02*
X155856830Y-177610321D01*
X155856830Y-177610321D02*
X155952068Y-177562702D01*
X155952068Y-177562702D02*
X155999687Y-177515083D01*
X155999687Y-177515083D02*
X156047306Y-177419845D01*
X156047306Y-177419845D02*
X156047306Y-177038893D01*
X156523497Y-178562702D02*
X156523497Y-177991274D01*
X156523497Y-178276988D02*
X155523497Y-178276988D01*
X155523497Y-178276988D02*
X155666354Y-178181750D01*
X155666354Y-178181750D02*
X155761592Y-178086512D01*
X155761592Y-178086512D02*
X155809211Y-177991274D01*
X156523497Y-179515083D02*
X156523497Y-178943655D01*
X156523497Y-179229369D02*
X155523497Y-179229369D01*
X155523497Y-179229369D02*
X155666354Y-179134131D01*
X155666354Y-179134131D02*
X155761592Y-179038893D01*
X155761592Y-179038893D02*
X155809211Y-178943655D01*
X152936763Y-177185721D02*
X152889144Y-177090483D01*
X152889144Y-177090483D02*
X152889144Y-176947626D01*
X152889144Y-176947626D02*
X152936763Y-176804769D01*
X152936763Y-176804769D02*
X153032001Y-176709531D01*
X153032001Y-176709531D02*
X153127239Y-176661912D01*
X153127239Y-176661912D02*
X153317715Y-176614293D01*
X153317715Y-176614293D02*
X153460572Y-176614293D01*
X153460572Y-176614293D02*
X153651048Y-176661912D01*
X153651048Y-176661912D02*
X153746286Y-176709531D01*
X153746286Y-176709531D02*
X153841525Y-176804769D01*
X153841525Y-176804769D02*
X153889144Y-176947626D01*
X153889144Y-176947626D02*
X153889144Y-177042864D01*
X153889144Y-177042864D02*
X153841525Y-177185721D01*
X153841525Y-177185721D02*
X153793905Y-177233340D01*
X153793905Y-177233340D02*
X153460572Y-177233340D01*
X153460572Y-177233340D02*
X153460572Y-177042864D01*
X153889144Y-177661912D02*
X152889144Y-177661912D01*
X152889144Y-177661912D02*
X152889144Y-178042864D01*
X152889144Y-178042864D02*
X152936763Y-178138102D01*
X152936763Y-178138102D02*
X152984382Y-178185721D01*
X152984382Y-178185721D02*
X153079620Y-178233340D01*
X153079620Y-178233340D02*
X153222477Y-178233340D01*
X153222477Y-178233340D02*
X153317715Y-178185721D01*
X153317715Y-178185721D02*
X153365334Y-178138102D01*
X153365334Y-178138102D02*
X153412953Y-178042864D01*
X153412953Y-178042864D02*
X153412953Y-177661912D01*
X153889144Y-179185721D02*
X153889144Y-178614293D01*
X153889144Y-178900007D02*
X152889144Y-178900007D01*
X152889144Y-178900007D02*
X153032001Y-178804769D01*
X153032001Y-178804769D02*
X153127239Y-178709531D01*
X153127239Y-178709531D02*
X153174858Y-178614293D01*
X152889144Y-179804769D02*
X152889144Y-179900007D01*
X152889144Y-179900007D02*
X152936763Y-179995245D01*
X152936763Y-179995245D02*
X152984382Y-180042864D01*
X152984382Y-180042864D02*
X153079620Y-180090483D01*
X153079620Y-180090483D02*
X153270096Y-180138102D01*
X153270096Y-180138102D02*
X153508191Y-180138102D01*
X153508191Y-180138102D02*
X153698667Y-180090483D01*
X153698667Y-180090483D02*
X153793905Y-180042864D01*
X153793905Y-180042864D02*
X153841525Y-179995245D01*
X153841525Y-179995245D02*
X153889144Y-179900007D01*
X153889144Y-179900007D02*
X153889144Y-179804769D01*
X153889144Y-179804769D02*
X153841525Y-179709531D01*
X153841525Y-179709531D02*
X153793905Y-179661912D01*
X153793905Y-179661912D02*
X153698667Y-179614293D01*
X153698667Y-179614293D02*
X153508191Y-179566674D01*
X153508191Y-179566674D02*
X153270096Y-179566674D01*
X153270096Y-179566674D02*
X153079620Y-179614293D01*
X153079620Y-179614293D02*
X152984382Y-179661912D01*
X152984382Y-179661912D02*
X152936763Y-179709531D01*
X152936763Y-179709531D02*
X152889144Y-179804769D01*
X146520810Y-170266436D02*
X146616048Y-170218817D01*
X146616048Y-170218817D02*
X146758905Y-170218817D01*
X146758905Y-170218817D02*
X146901762Y-170266436D01*
X146901762Y-170266436D02*
X146997000Y-170361674D01*
X146997000Y-170361674D02*
X147044619Y-170456912D01*
X147044619Y-170456912D02*
X147092238Y-170647388D01*
X147092238Y-170647388D02*
X147092238Y-170790245D01*
X147092238Y-170790245D02*
X147044619Y-170980721D01*
X147044619Y-170980721D02*
X146997000Y-171075959D01*
X146997000Y-171075959D02*
X146901762Y-171171198D01*
X146901762Y-171171198D02*
X146758905Y-171218817D01*
X146758905Y-171218817D02*
X146663667Y-171218817D01*
X146663667Y-171218817D02*
X146520810Y-171171198D01*
X146520810Y-171171198D02*
X146473191Y-171123578D01*
X146473191Y-171123578D02*
X146473191Y-170790245D01*
X146473191Y-170790245D02*
X146663667Y-170790245D01*
X146044619Y-171218817D02*
X146044619Y-170218817D01*
X146044619Y-170218817D02*
X145663667Y-170218817D01*
X145663667Y-170218817D02*
X145568429Y-170266436D01*
X145568429Y-170266436D02*
X145520810Y-170314055D01*
X145520810Y-170314055D02*
X145473191Y-170409293D01*
X145473191Y-170409293D02*
X145473191Y-170552150D01*
X145473191Y-170552150D02*
X145520810Y-170647388D01*
X145520810Y-170647388D02*
X145568429Y-170695007D01*
X145568429Y-170695007D02*
X145663667Y-170742626D01*
X145663667Y-170742626D02*
X146044619Y-170742626D01*
X144616048Y-170218817D02*
X144806524Y-170218817D01*
X144806524Y-170218817D02*
X144901762Y-170266436D01*
X144901762Y-170266436D02*
X144949381Y-170314055D01*
X144949381Y-170314055D02*
X145044619Y-170456912D01*
X145044619Y-170456912D02*
X145092238Y-170647388D01*
X145092238Y-170647388D02*
X145092238Y-171028340D01*
X145092238Y-171028340D02*
X145044619Y-171123578D01*
X145044619Y-171123578D02*
X144997000Y-171171198D01*
X144997000Y-171171198D02*
X144901762Y-171218817D01*
X144901762Y-171218817D02*
X144711286Y-171218817D01*
X144711286Y-171218817D02*
X144616048Y-171171198D01*
X144616048Y-171171198D02*
X144568429Y-171123578D01*
X144568429Y-171123578D02*
X144520810Y-171028340D01*
X144520810Y-171028340D02*
X144520810Y-170790245D01*
X144520810Y-170790245D02*
X144568429Y-170695007D01*
X144568429Y-170695007D02*
X144616048Y-170647388D01*
X144616048Y-170647388D02*
X144711286Y-170599769D01*
X144711286Y-170599769D02*
X144901762Y-170599769D01*
X144901762Y-170599769D02*
X144997000Y-170647388D01*
X144997000Y-170647388D02*
X145044619Y-170695007D01*
X145044619Y-170695007D02*
X145092238Y-170790245D01*
X146520810Y-167726436D02*
X146616048Y-167678817D01*
X146616048Y-167678817D02*
X146758905Y-167678817D01*
X146758905Y-167678817D02*
X146901762Y-167726436D01*
X146901762Y-167726436D02*
X146997000Y-167821674D01*
X146997000Y-167821674D02*
X147044619Y-167916912D01*
X147044619Y-167916912D02*
X147092238Y-168107388D01*
X147092238Y-168107388D02*
X147092238Y-168250245D01*
X147092238Y-168250245D02*
X147044619Y-168440721D01*
X147044619Y-168440721D02*
X146997000Y-168535959D01*
X146997000Y-168535959D02*
X146901762Y-168631198D01*
X146901762Y-168631198D02*
X146758905Y-168678817D01*
X146758905Y-168678817D02*
X146663667Y-168678817D01*
X146663667Y-168678817D02*
X146520810Y-168631198D01*
X146520810Y-168631198D02*
X146473191Y-168583578D01*
X146473191Y-168583578D02*
X146473191Y-168250245D01*
X146473191Y-168250245D02*
X146663667Y-168250245D01*
X146044619Y-168678817D02*
X146044619Y-167678817D01*
X146044619Y-167678817D02*
X145663667Y-167678817D01*
X145663667Y-167678817D02*
X145568429Y-167726436D01*
X145568429Y-167726436D02*
X145520810Y-167774055D01*
X145520810Y-167774055D02*
X145473191Y-167869293D01*
X145473191Y-167869293D02*
X145473191Y-168012150D01*
X145473191Y-168012150D02*
X145520810Y-168107388D01*
X145520810Y-168107388D02*
X145568429Y-168155007D01*
X145568429Y-168155007D02*
X145663667Y-168202626D01*
X145663667Y-168202626D02*
X146044619Y-168202626D01*
X144568429Y-167678817D02*
X145044619Y-167678817D01*
X145044619Y-167678817D02*
X145092238Y-168155007D01*
X145092238Y-168155007D02*
X145044619Y-168107388D01*
X145044619Y-168107388D02*
X144949381Y-168059769D01*
X144949381Y-168059769D02*
X144711286Y-168059769D01*
X144711286Y-168059769D02*
X144616048Y-168107388D01*
X144616048Y-168107388D02*
X144568429Y-168155007D01*
X144568429Y-168155007D02*
X144520810Y-168250245D01*
X144520810Y-168250245D02*
X144520810Y-168488340D01*
X144520810Y-168488340D02*
X144568429Y-168583578D01*
X144568429Y-168583578D02*
X144616048Y-168631198D01*
X144616048Y-168631198D02*
X144711286Y-168678817D01*
X144711286Y-168678817D02*
X144949381Y-168678817D01*
X144949381Y-168678817D02*
X145044619Y-168631198D01*
X145044619Y-168631198D02*
X145092238Y-168583578D01*
X167411354Y-172183417D02*
X167506592Y-172135798D01*
X167506592Y-172135798D02*
X167649449Y-172135798D01*
X167649449Y-172135798D02*
X167792306Y-172183417D01*
X167792306Y-172183417D02*
X167887544Y-172278655D01*
X167887544Y-172278655D02*
X167935163Y-172373893D01*
X167935163Y-172373893D02*
X167982782Y-172564369D01*
X167982782Y-172564369D02*
X167982782Y-172707226D01*
X167982782Y-172707226D02*
X167935163Y-172897702D01*
X167935163Y-172897702D02*
X167887544Y-172992940D01*
X167887544Y-172992940D02*
X167792306Y-173088179D01*
X167792306Y-173088179D02*
X167649449Y-173135798D01*
X167649449Y-173135798D02*
X167554211Y-173135798D01*
X167554211Y-173135798D02*
X167411354Y-173088179D01*
X167411354Y-173088179D02*
X167363735Y-173040559D01*
X167363735Y-173040559D02*
X167363735Y-172707226D01*
X167363735Y-172707226D02*
X167554211Y-172707226D01*
X166935163Y-173135798D02*
X166935163Y-172135798D01*
X166935163Y-172135798D02*
X166554211Y-172135798D01*
X166554211Y-172135798D02*
X166458973Y-172183417D01*
X166458973Y-172183417D02*
X166411354Y-172231036D01*
X166411354Y-172231036D02*
X166363735Y-172326274D01*
X166363735Y-172326274D02*
X166363735Y-172469131D01*
X166363735Y-172469131D02*
X166411354Y-172564369D01*
X166411354Y-172564369D02*
X166458973Y-172611988D01*
X166458973Y-172611988D02*
X166554211Y-172659607D01*
X166554211Y-172659607D02*
X166935163Y-172659607D01*
X165411354Y-173135798D02*
X165982782Y-173135798D01*
X165697068Y-173135798D02*
X165697068Y-172135798D01*
X165697068Y-172135798D02*
X165792306Y-172278655D01*
X165792306Y-172278655D02*
X165887544Y-172373893D01*
X165887544Y-172373893D02*
X165982782Y-172421512D01*
X164506592Y-172135798D02*
X164982782Y-172135798D01*
X164982782Y-172135798D02*
X165030401Y-172611988D01*
X165030401Y-172611988D02*
X164982782Y-172564369D01*
X164982782Y-172564369D02*
X164887544Y-172516750D01*
X164887544Y-172516750D02*
X164649449Y-172516750D01*
X164649449Y-172516750D02*
X164554211Y-172564369D01*
X164554211Y-172564369D02*
X164506592Y-172611988D01*
X164506592Y-172611988D02*
X164458973Y-172707226D01*
X164458973Y-172707226D02*
X164458973Y-172945321D01*
X164458973Y-172945321D02*
X164506592Y-173040559D01*
X164506592Y-173040559D02*
X164554211Y-173088179D01*
X164554211Y-173088179D02*
X164649449Y-173135798D01*
X164649449Y-173135798D02*
X164887544Y-173135798D01*
X164887544Y-173135798D02*
X164982782Y-173088179D01*
X164982782Y-173088179D02*
X165030401Y-173040559D01*
X158111116Y-176562702D02*
X158063497Y-176467464D01*
X158063497Y-176467464D02*
X158063497Y-176324607D01*
X158063497Y-176324607D02*
X158111116Y-176181750D01*
X158111116Y-176181750D02*
X158206354Y-176086512D01*
X158206354Y-176086512D02*
X158301592Y-176038893D01*
X158301592Y-176038893D02*
X158492068Y-175991274D01*
X158492068Y-175991274D02*
X158634925Y-175991274D01*
X158634925Y-175991274D02*
X158825401Y-176038893D01*
X158825401Y-176038893D02*
X158920639Y-176086512D01*
X158920639Y-176086512D02*
X159015878Y-176181750D01*
X159015878Y-176181750D02*
X159063497Y-176324607D01*
X159063497Y-176324607D02*
X159063497Y-176419845D01*
X159063497Y-176419845D02*
X159015878Y-176562702D01*
X159015878Y-176562702D02*
X158968258Y-176610321D01*
X158968258Y-176610321D02*
X158634925Y-176610321D01*
X158634925Y-176610321D02*
X158634925Y-176419845D01*
X159063497Y-177038893D02*
X158063497Y-177038893D01*
X158063497Y-177038893D02*
X158063497Y-177419845D01*
X158063497Y-177419845D02*
X158111116Y-177515083D01*
X158111116Y-177515083D02*
X158158735Y-177562702D01*
X158158735Y-177562702D02*
X158253973Y-177610321D01*
X158253973Y-177610321D02*
X158396830Y-177610321D01*
X158396830Y-177610321D02*
X158492068Y-177562702D01*
X158492068Y-177562702D02*
X158539687Y-177515083D01*
X158539687Y-177515083D02*
X158587306Y-177419845D01*
X158587306Y-177419845D02*
X158587306Y-177038893D01*
X159063497Y-178562702D02*
X159063497Y-177991274D01*
X159063497Y-178276988D02*
X158063497Y-178276988D01*
X158063497Y-178276988D02*
X158206354Y-178181750D01*
X158206354Y-178181750D02*
X158301592Y-178086512D01*
X158301592Y-178086512D02*
X158349211Y-177991274D01*
X158158735Y-178943655D02*
X158111116Y-178991274D01*
X158111116Y-178991274D02*
X158063497Y-179086512D01*
X158063497Y-179086512D02*
X158063497Y-179324607D01*
X158063497Y-179324607D02*
X158111116Y-179419845D01*
X158111116Y-179419845D02*
X158158735Y-179467464D01*
X158158735Y-179467464D02*
X158253973Y-179515083D01*
X158253973Y-179515083D02*
X158349211Y-179515083D01*
X158349211Y-179515083D02*
X158492068Y-179467464D01*
X158492068Y-179467464D02*
X159063497Y-178896036D01*
X159063497Y-178896036D02*
X159063497Y-179515083D01*
X146520810Y-172806436D02*
X146616048Y-172758817D01*
X146616048Y-172758817D02*
X146758905Y-172758817D01*
X146758905Y-172758817D02*
X146901762Y-172806436D01*
X146901762Y-172806436D02*
X146997000Y-172901674D01*
X146997000Y-172901674D02*
X147044619Y-172996912D01*
X147044619Y-172996912D02*
X147092238Y-173187388D01*
X147092238Y-173187388D02*
X147092238Y-173330245D01*
X147092238Y-173330245D02*
X147044619Y-173520721D01*
X147044619Y-173520721D02*
X146997000Y-173615959D01*
X146997000Y-173615959D02*
X146901762Y-173711198D01*
X146901762Y-173711198D02*
X146758905Y-173758817D01*
X146758905Y-173758817D02*
X146663667Y-173758817D01*
X146663667Y-173758817D02*
X146520810Y-173711198D01*
X146520810Y-173711198D02*
X146473191Y-173663578D01*
X146473191Y-173663578D02*
X146473191Y-173330245D01*
X146473191Y-173330245D02*
X146663667Y-173330245D01*
X146044619Y-173758817D02*
X146044619Y-172758817D01*
X146044619Y-172758817D02*
X145663667Y-172758817D01*
X145663667Y-172758817D02*
X145568429Y-172806436D01*
X145568429Y-172806436D02*
X145520810Y-172854055D01*
X145520810Y-172854055D02*
X145473191Y-172949293D01*
X145473191Y-172949293D02*
X145473191Y-173092150D01*
X145473191Y-173092150D02*
X145520810Y-173187388D01*
X145520810Y-173187388D02*
X145568429Y-173235007D01*
X145568429Y-173235007D02*
X145663667Y-173282626D01*
X145663667Y-173282626D02*
X146044619Y-173282626D01*
X145139857Y-172758817D02*
X144473191Y-172758817D01*
X144473191Y-172758817D02*
X144901762Y-173758817D01*
X148250000Y-192840000D02*
X148250000Y-194340000D01*
X148250000Y-194340000D02*
X153650000Y-194340000D01*
X150450000Y-193090000D02*
X150450000Y-194090000D01*
X150550000Y-193590000D02*
X151450000Y-193090000D01*
X151450000Y-193090000D02*
X151450000Y-194090000D01*
X151450000Y-194090000D02*
X150550000Y-193590000D01*
X153650000Y-192840000D02*
X148250000Y-192840000D01*
X153650000Y-194340000D02*
X153650000Y-192840000D01*
X158961525Y-200456198D02*
X158961525Y-201956198D01*
X158961525Y-201956198D02*
X164361525Y-201956198D01*
X161161525Y-200706198D02*
X161161525Y-201706198D01*
X161261525Y-201206198D02*
X162161525Y-200706198D01*
X162161525Y-200706198D02*
X162161525Y-201706198D01*
X162161525Y-201706198D02*
X161261525Y-201206198D01*
X164361525Y-200456198D02*
X158961525Y-200456198D01*
X164361525Y-201956198D02*
X164361525Y-200456198D01*
X158961525Y-195156198D02*
X158961525Y-196656198D01*
X158961525Y-196656198D02*
X164361525Y-196656198D01*
X161161525Y-195406198D02*
X161161525Y-196406198D01*
X161261525Y-195906198D02*
X162161525Y-195406198D01*
X162161525Y-195406198D02*
X162161525Y-196406198D01*
X162161525Y-196406198D02*
X161261525Y-195906198D01*
X164361525Y-195156198D02*
X158961525Y-195156198D01*
X164361525Y-196656198D02*
X164361525Y-195156198D01*
X193991218Y-213196345D02*
X194492241Y-216761310D01*
X194492241Y-216761310D02*
X202612440Y-215620090D01*
X194150196Y-214183829D02*
X194463336Y-216411933D01*
D11*
X194612947Y-216542380D02*
X195850782Y-216368414D01*
D12*
X194224065Y-213416077D02*
X195518372Y-213284666D01*
D13*
X194903871Y-216097563D02*
X194555938Y-213621892D01*
D14*
X196024212Y-214728316D02*
X202659008Y-213795856D01*
D10*
X198744505Y-212528314D02*
X193991218Y-213196345D01*
D15*
X202770079Y-214083194D02*
X202458331Y-211864994D01*
D16*
X203401976Y-210459990D02*
X203652487Y-212242472D01*
D12*
X203508764Y-210142034D02*
X201082607Y-210483008D01*
D10*
X203678983Y-209916146D02*
X200678471Y-210337840D01*
X204298303Y-214322839D02*
X203678983Y-209916146D01*
D17*
X204238084Y-212816561D02*
X204328546Y-213460235D01*
D10*
X204323193Y-212703617D02*
X204125140Y-212731451D01*
X204427573Y-213446318D02*
X204323193Y-212703617D01*
X198744505Y-212528313D02*
G75*
G03*
X200677812Y-210359615I-237640J2157928D01*
G01*
D13*
X199196281Y-212868751D02*
G75*
G03*
X201129588Y-210700053I-237638J2157927D01*
G01*
D10*
X202612440Y-215620090D02*
G75*
G03*
X204427573Y-213446317I-179320J1994453D01*
G01*
X191290656Y-194343344D02*
X191791679Y-197908309D01*
X191791679Y-197908309D02*
X199911878Y-196767089D01*
X191449634Y-195330828D02*
X191762774Y-197558932D01*
D11*
X191912385Y-197689379D02*
X193150220Y-197515413D01*
D12*
X191523503Y-194563076D02*
X192817810Y-194431665D01*
D13*
X192203309Y-197244562D02*
X191855376Y-194768891D01*
D14*
X193323650Y-195875315D02*
X199958446Y-194942855D01*
D10*
X196043943Y-193675313D02*
X191290656Y-194343344D01*
D15*
X200069517Y-195230193D02*
X199757769Y-193011993D01*
D16*
X200701414Y-191606989D02*
X200951925Y-193389471D01*
D12*
X200808202Y-191289033D02*
X198382045Y-191630007D01*
D10*
X200978421Y-191063145D02*
X197977909Y-191484839D01*
X201597741Y-195469838D02*
X200978421Y-191063145D01*
D17*
X201537522Y-193963560D02*
X201627984Y-194607234D01*
D10*
X201622631Y-193850616D02*
X201424578Y-193878450D01*
X201727011Y-194593317D02*
X201622631Y-193850616D01*
X196043943Y-193675312D02*
G75*
G03*
X197977250Y-191506614I-237640J2157928D01*
G01*
D13*
X196495719Y-194015750D02*
G75*
G03*
X198429026Y-191847052I-237638J2157927D01*
G01*
D10*
X199911878Y-196767089D02*
G75*
G03*
X201727011Y-194593316I-179320J1994453D01*
G01*
X228946525Y-219546198D02*
X228946525Y-221046198D01*
X228946525Y-221046198D02*
X234346525Y-221046198D01*
X231146525Y-219796198D02*
X231146525Y-220796198D01*
X231246525Y-220296198D02*
X232146525Y-219796198D01*
X232146525Y-219796198D02*
X232146525Y-220796198D01*
X232146525Y-220796198D02*
X231246525Y-220296198D01*
X234346525Y-219546198D02*
X228946525Y-219546198D01*
X234346525Y-221046198D02*
X234346525Y-219546198D01*
X206051218Y-230706345D02*
X206552241Y-234271310D01*
X206552241Y-234271310D02*
X214672440Y-233130090D01*
X206210196Y-231693829D02*
X206523336Y-233921933D01*
D11*
X206672947Y-234052380D02*
X207910782Y-233878414D01*
D12*
X206284065Y-230926077D02*
X207578372Y-230794666D01*
D13*
X206963871Y-233607563D02*
X206615938Y-231131892D01*
D14*
X208084212Y-232238316D02*
X214719008Y-231305856D01*
D10*
X210804505Y-230038314D02*
X206051218Y-230706345D01*
D15*
X214830079Y-231593194D02*
X214518331Y-229374994D01*
D16*
X215461976Y-227969990D02*
X215712487Y-229752472D01*
D12*
X215568764Y-227652034D02*
X213142607Y-227993008D01*
D10*
X215738983Y-227426146D02*
X212738471Y-227847840D01*
X216358303Y-231832839D02*
X215738983Y-227426146D01*
D17*
X216298084Y-230326561D02*
X216388546Y-230970235D01*
D10*
X216383193Y-230213617D02*
X216185140Y-230241451D01*
X216487573Y-230956318D02*
X216383193Y-230213617D01*
X210804505Y-230038313D02*
G75*
G03*
X212737812Y-227869615I-237640J2157928D01*
G01*
D13*
X211256281Y-230378751D02*
G75*
G03*
X213189588Y-228210053I-237638J2157927D01*
G01*
D10*
X214672440Y-233130090D02*
G75*
G03*
X216487573Y-230956317I-179320J1994453D01*
G01*
X232381780Y-212599346D02*
X232882803Y-216164311D01*
X232882803Y-216164311D02*
X241003002Y-215023091D01*
X232540758Y-213586830D02*
X232853898Y-215814934D01*
D11*
X233003509Y-215945381D02*
X234241344Y-215771415D01*
D12*
X232614627Y-212819078D02*
X233908934Y-212687667D01*
D13*
X233294433Y-215500564D02*
X232946500Y-213024893D01*
D14*
X234414774Y-214131317D02*
X241049570Y-213198857D01*
D10*
X237135067Y-211931315D02*
X232381780Y-212599346D01*
D15*
X241160641Y-213486195D02*
X240848893Y-211267995D01*
D16*
X241792538Y-209862991D02*
X242043049Y-211645473D01*
D12*
X241899326Y-209545035D02*
X239473169Y-209886009D01*
D10*
X242069545Y-209319147D02*
X239069033Y-209740841D01*
X242688865Y-213725840D02*
X242069545Y-209319147D01*
D17*
X242628646Y-212219562D02*
X242719108Y-212863236D01*
D10*
X242713755Y-212106618D02*
X242515702Y-212134452D01*
X242818135Y-212849319D02*
X242713755Y-212106618D01*
X237135067Y-211931314D02*
G75*
G03*
X239068374Y-209762616I-237640J2157928D01*
G01*
D13*
X237586843Y-212271752D02*
G75*
G03*
X239520150Y-210103054I-237638J2157927D01*
G01*
D10*
X241003002Y-215023091D02*
G75*
G03*
X242818135Y-212849318I-179320J1994453D01*
G01*
X148250000Y-203190000D02*
X148250000Y-204690000D01*
X148250000Y-204690000D02*
X153650000Y-204690000D01*
X150450000Y-203440000D02*
X150450000Y-204440000D01*
X150550000Y-203940000D02*
X151450000Y-203440000D01*
X151450000Y-203440000D02*
X151450000Y-204440000D01*
X151450000Y-204440000D02*
X150550000Y-203940000D01*
X153650000Y-203190000D02*
X148250000Y-203190000D01*
X153650000Y-204690000D02*
X153650000Y-203190000D01*
X239846525Y-229826198D02*
X239846525Y-231326198D01*
X239846525Y-231326198D02*
X245246525Y-231326198D01*
X242046525Y-230076198D02*
X242046525Y-231076198D01*
X242146525Y-230576198D02*
X243046525Y-230076198D01*
X243046525Y-230076198D02*
X243046525Y-231076198D01*
X243046525Y-231076198D02*
X242146525Y-230576198D01*
X245246525Y-229826198D02*
X239846525Y-229826198D01*
X245246525Y-231326198D02*
X245246525Y-229826198D01*
X239906525Y-224656198D02*
X239906525Y-226156198D01*
X239906525Y-226156198D02*
X245306525Y-226156198D01*
X242106525Y-224906198D02*
X242106525Y-225906198D01*
X242206525Y-225406198D02*
X243106525Y-224906198D01*
X243106525Y-224906198D02*
X243106525Y-225906198D01*
X243106525Y-225906198D02*
X242206525Y-225406198D01*
X245306525Y-224656198D02*
X239906525Y-224656198D01*
X245306525Y-226156198D02*
X245306525Y-224656198D01*
X112031826Y-193264641D02*
X111530803Y-196829606D01*
X111530803Y-196829606D02*
X119651002Y-197970825D01*
X111912458Y-194257692D02*
X111599319Y-196485795D01*
D11*
X111707178Y-196652428D02*
X112945013Y-196826394D01*
D12*
X112195087Y-193540042D02*
X113475476Y-193770481D01*
D13*
X112109441Y-196305031D02*
X112457374Y-193829361D01*
D14*
X113563797Y-195297635D02*
X120198593Y-196230094D01*
D10*
X116785113Y-193932671D02*
X112031826Y-193264641D01*
D15*
X120226160Y-196536917D02*
X120537908Y-194318717D01*
D16*
X121832269Y-193228244D02*
X121581757Y-195010726D01*
D12*
X122022561Y-192952040D02*
X119596404Y-192611066D01*
D10*
X122248449Y-192781821D02*
X119247937Y-192360126D01*
X121629129Y-197188514D02*
X122248449Y-192781821D01*
D17*
X121986429Y-195723988D02*
X121895966Y-196367662D01*
D10*
X122099373Y-195638878D02*
X121901319Y-195611044D01*
X121994993Y-196381579D02*
X122099373Y-195638878D01*
X116785113Y-193932671D02*
G75*
G03*
X119241302Y-192380876I366373J2139835D01*
G01*
D13*
X117125551Y-194384447D02*
G75*
G03*
X119581740Y-192832652I366373J2139835D01*
G01*
D10*
X119651002Y-197970825D02*
G75*
G03*
X121994993Y-196381578I377372J1966619D01*
G01*
X246580656Y-176973344D02*
X247081679Y-180538309D01*
X247081679Y-180538309D02*
X255201878Y-179397089D01*
X246739634Y-177960828D02*
X247052774Y-180188932D01*
D11*
X247202385Y-180319379D02*
X248440220Y-180145413D01*
D12*
X246813503Y-177193076D02*
X248107810Y-177061665D01*
D13*
X247493309Y-179874562D02*
X247145376Y-177398891D01*
D14*
X248613650Y-178505315D02*
X255248446Y-177572855D01*
D10*
X251333943Y-176305313D02*
X246580656Y-176973344D01*
D15*
X255359517Y-177860193D02*
X255047769Y-175641993D01*
D16*
X255991414Y-174236989D02*
X256241925Y-176019471D01*
D12*
X256098202Y-173919033D02*
X253672045Y-174260007D01*
D10*
X256268421Y-173693145D02*
X253267909Y-174114839D01*
X256887741Y-178099838D02*
X256268421Y-173693145D01*
D17*
X256827522Y-176593560D02*
X256917984Y-177237234D01*
D10*
X256912631Y-176480616D02*
X256714578Y-176508450D01*
X257017011Y-177223317D02*
X256912631Y-176480616D01*
X251333943Y-176305312D02*
G75*
G03*
X253267250Y-174136614I-237640J2157928D01*
G01*
D13*
X251785719Y-176645750D02*
G75*
G03*
X253719026Y-174477052I-237638J2157927D01*
G01*
D10*
X255201878Y-179397089D02*
G75*
G03*
X257017011Y-177223316I-179320J1994453D01*
G01*
X229046525Y-230046198D02*
X229046525Y-231546198D01*
X229046525Y-231546198D02*
X234446525Y-231546198D01*
X231246525Y-230296198D02*
X231246525Y-231296198D01*
X231346525Y-230796198D02*
X232246525Y-230296198D01*
X232246525Y-230296198D02*
X232246525Y-231296198D01*
X232246525Y-231296198D02*
X231346525Y-230796198D01*
X234446525Y-230046198D02*
X229046525Y-230046198D01*
X234446525Y-231546198D02*
X234446525Y-230046198D01*
X251881780Y-214629346D02*
X252382803Y-218194311D01*
X252382803Y-218194311D02*
X260503002Y-217053091D01*
X252040758Y-215616830D02*
X252353898Y-217844934D01*
D11*
X252503509Y-217975381D02*
X253741344Y-217801415D01*
D12*
X252114627Y-214849078D02*
X253408934Y-214717667D01*
D13*
X252794433Y-217530564D02*
X252446500Y-215054893D01*
D14*
X253914774Y-216161317D02*
X260549570Y-215228857D01*
D10*
X256635067Y-213961315D02*
X251881780Y-214629346D01*
D15*
X260660641Y-215516195D02*
X260348893Y-213297995D01*
D16*
X261292538Y-211892991D02*
X261543049Y-213675473D01*
D12*
X261399326Y-211575035D02*
X258973169Y-211916009D01*
D10*
X261569545Y-211349147D02*
X258569033Y-211770841D01*
X262188865Y-215755840D02*
X261569545Y-211349147D01*
D17*
X262128646Y-214249562D02*
X262219108Y-214893236D01*
D10*
X262213755Y-214136618D02*
X262015702Y-214164452D01*
X262318135Y-214879319D02*
X262213755Y-214136618D01*
X256635067Y-213961314D02*
G75*
G03*
X258568374Y-211792616I-237640J2157928D01*
G01*
D13*
X257086843Y-214301752D02*
G75*
G03*
X259020150Y-212133054I-237638J2157927D01*
G01*
D10*
X260503002Y-217053091D02*
G75*
G03*
X262318135Y-214879318I-179320J1994453D01*
G01*
X148250000Y-210523802D02*
X148250000Y-212023802D01*
X148250000Y-212023802D02*
X153650000Y-212023802D01*
X150450000Y-210773802D02*
X150450000Y-211773802D01*
X150550000Y-211273802D02*
X151450000Y-210773802D01*
X151450000Y-210773802D02*
X151450000Y-211773802D01*
X151450000Y-211773802D02*
X150550000Y-211273802D01*
X153650000Y-210523802D02*
X148250000Y-210523802D01*
X153650000Y-212023802D02*
X153650000Y-210523802D01*
X76263971Y-173787128D02*
X75762948Y-177352093D01*
X75762948Y-177352093D02*
X83883147Y-178493312D01*
X76144603Y-174780179D02*
X75831464Y-177008282D01*
D11*
X75939323Y-177174915D02*
X77177158Y-177348881D01*
D12*
X76427232Y-174062529D02*
X77707621Y-174292968D01*
D13*
X76341586Y-176827518D02*
X76689519Y-174351848D01*
D14*
X77795942Y-175820122D02*
X84430738Y-176752581D01*
D10*
X81017258Y-174455158D02*
X76263971Y-173787128D01*
D15*
X84458305Y-177059404D02*
X84770053Y-174841204D01*
D16*
X86064414Y-173750731D02*
X85813902Y-175533213D01*
D12*
X86254706Y-173474527D02*
X83828549Y-173133553D01*
D10*
X86480594Y-173304308D02*
X83480082Y-172882613D01*
X85861274Y-177711001D02*
X86480594Y-173304308D01*
D17*
X86218574Y-176246475D02*
X86128111Y-176890149D01*
D10*
X86331518Y-176161365D02*
X86133464Y-176133531D01*
X86227138Y-176904066D02*
X86331518Y-176161365D01*
X81017258Y-174455158D02*
G75*
G03*
X83473447Y-172903363I366373J2139835D01*
G01*
D13*
X81357696Y-174906934D02*
G75*
G03*
X83813885Y-173355139I366373J2139835D01*
G01*
D10*
X83883147Y-178493312D02*
G75*
G03*
X86227138Y-176904065I377372J1966619D01*
G01*
X67006525Y-224086198D02*
X67006525Y-225586198D01*
X67006525Y-225586198D02*
X72406525Y-225586198D01*
X69206525Y-224336198D02*
X69206525Y-225336198D01*
X69306525Y-224836198D02*
X70206525Y-224336198D01*
X70206525Y-224336198D02*
X70206525Y-225336198D01*
X70206525Y-225336198D02*
X69306525Y-224836198D01*
X72406525Y-224086198D02*
X67006525Y-224086198D01*
X72406525Y-225586198D02*
X72406525Y-224086198D01*
X77806525Y-224266198D02*
X77806525Y-225766198D01*
X77806525Y-225766198D02*
X83206525Y-225766198D01*
X80006525Y-224516198D02*
X80006525Y-225516198D01*
X80106525Y-225016198D02*
X81006525Y-224516198D01*
X81006525Y-224516198D02*
X81006525Y-225516198D01*
X81006525Y-225516198D02*
X80106525Y-225016198D01*
X83206525Y-224266198D02*
X77806525Y-224266198D01*
X83206525Y-225766198D02*
X83206525Y-224266198D01*
X56751826Y-175864641D02*
X56250803Y-179429606D01*
X56250803Y-179429606D02*
X64371002Y-180570825D01*
X56632458Y-176857692D02*
X56319319Y-179085795D01*
D11*
X56427178Y-179252428D02*
X57665013Y-179426394D01*
D12*
X56915087Y-176140042D02*
X58195476Y-176370481D01*
D13*
X56829441Y-178905031D02*
X57177374Y-176429361D01*
D14*
X58283797Y-177897635D02*
X64918593Y-178830094D01*
D10*
X61505113Y-176532671D02*
X56751826Y-175864641D01*
D15*
X64946160Y-179136917D02*
X65257908Y-176918717D01*
D16*
X66552269Y-175828244D02*
X66301757Y-177610726D01*
D12*
X66742561Y-175552040D02*
X64316404Y-175211066D01*
D10*
X66968449Y-175381821D02*
X63967937Y-174960126D01*
X66349129Y-179788514D02*
X66968449Y-175381821D01*
D17*
X66706429Y-178323988D02*
X66615966Y-178967662D01*
D10*
X66819373Y-178238878D02*
X66621319Y-178211044D01*
X66714993Y-178981579D02*
X66819373Y-178238878D01*
X61505113Y-176532671D02*
G75*
G03*
X63961302Y-174980876I366373J2139835D01*
G01*
D13*
X61845551Y-176984447D02*
G75*
G03*
X64301740Y-175432652I366373J2139835D01*
G01*
D10*
X64371002Y-180570825D02*
G75*
G03*
X66714993Y-178981578I377372J1966619D01*
G01*
X96501826Y-167024641D02*
X96000803Y-170589606D01*
X96000803Y-170589606D02*
X104121002Y-171730825D01*
X96382458Y-168017692D02*
X96069319Y-170245795D01*
D11*
X96177178Y-170412428D02*
X97415013Y-170586394D01*
D12*
X96665087Y-167300042D02*
X97945476Y-167530481D01*
D13*
X96579441Y-170065031D02*
X96927374Y-167589361D01*
D14*
X98033797Y-169057635D02*
X104668593Y-169990094D01*
D10*
X101255113Y-167692671D02*
X96501826Y-167024641D01*
D15*
X104696160Y-170296917D02*
X105007908Y-168078717D01*
D16*
X106302269Y-166988244D02*
X106051757Y-168770726D01*
D12*
X106492561Y-166712040D02*
X104066404Y-166371066D01*
D10*
X106718449Y-166541821D02*
X103717937Y-166120126D01*
X106099129Y-170948514D02*
X106718449Y-166541821D01*
D17*
X106456429Y-169483988D02*
X106365966Y-170127662D01*
D10*
X106569373Y-169398878D02*
X106371319Y-169371044D01*
X106464993Y-170141579D02*
X106569373Y-169398878D01*
X101255113Y-167692671D02*
G75*
G03*
X103711302Y-166140876I366373J2139835D01*
G01*
D13*
X101595551Y-168144447D02*
G75*
G03*
X104051740Y-166592652I366373J2139835D01*
G01*
D10*
X104121002Y-171730825D02*
G75*
G03*
X106464993Y-170141578I377372J1966619D01*
G01*
X91183971Y-204727128D02*
X90682948Y-208292093D01*
X90682948Y-208292093D02*
X98803147Y-209433312D01*
X91064603Y-205720179D02*
X90751464Y-207948282D01*
D11*
X90859323Y-208114915D02*
X92097158Y-208288881D01*
D12*
X91347232Y-205002529D02*
X92627621Y-205232968D01*
D13*
X91261586Y-207767518D02*
X91609519Y-205291848D01*
D14*
X92715942Y-206760122D02*
X99350738Y-207692581D01*
D10*
X95937258Y-205395158D02*
X91183971Y-204727128D01*
D15*
X99378305Y-207999404D02*
X99690053Y-205781204D01*
D16*
X100984414Y-204690731D02*
X100733902Y-206473213D01*
D12*
X101174706Y-204414527D02*
X98748549Y-204073553D01*
D10*
X101400594Y-204244308D02*
X98400082Y-203822613D01*
X100781274Y-208651001D02*
X101400594Y-204244308D01*
D17*
X101138574Y-207186475D02*
X101048111Y-207830149D01*
D10*
X101251518Y-207101365D02*
X101053464Y-207073531D01*
X101147138Y-207844066D02*
X101251518Y-207101365D01*
X95937258Y-205395158D02*
G75*
G03*
X98393447Y-203843363I366373J2139835D01*
G01*
D13*
X96277696Y-205846934D02*
G75*
G03*
X98733885Y-204295139I366373J2139835D01*
G01*
D10*
X98803147Y-209433312D02*
G75*
G03*
X101147138Y-207844065I377372J1966619D01*
G01*
X83196525Y-223326198D02*
X83196525Y-221826198D01*
X83196525Y-221826198D02*
X77796525Y-221826198D01*
X80996525Y-223076198D02*
X80096525Y-222576198D01*
X80996525Y-222076198D02*
X80996525Y-223076198D01*
X80096525Y-222576198D02*
X80996525Y-222076198D01*
X79996525Y-222076198D02*
X79996525Y-223076198D01*
X77796525Y-223326198D02*
X83196525Y-223326198D01*
X77796525Y-221826198D02*
X77796525Y-223326198D01*
X93831264Y-185887642D02*
X93330241Y-189452607D01*
X93330241Y-189452607D02*
X101450440Y-190593826D01*
X93711896Y-186880693D02*
X93398757Y-189108796D01*
D11*
X93506616Y-189275429D02*
X94744451Y-189449395D01*
D12*
X93994525Y-186163043D02*
X95274914Y-186393482D01*
D13*
X93908879Y-188928032D02*
X94256812Y-186452362D01*
D14*
X95363235Y-187920636D02*
X101998031Y-188853095D01*
D10*
X98584551Y-186555672D02*
X93831264Y-185887642D01*
D15*
X102025598Y-189159918D02*
X102337346Y-186941718D01*
D16*
X103631707Y-185851245D02*
X103381195Y-187633727D01*
D12*
X103821999Y-185575041D02*
X101395842Y-185234067D01*
D10*
X104047887Y-185404822D02*
X101047375Y-184983127D01*
X103428567Y-189811515D02*
X104047887Y-185404822D01*
D17*
X103785867Y-188346989D02*
X103695404Y-188990663D01*
D10*
X103898811Y-188261879D02*
X103700757Y-188234045D01*
X103794431Y-189004580D02*
X103898811Y-188261879D01*
X98584551Y-186555672D02*
G75*
G03*
X101040740Y-185003877I366373J2139835D01*
G01*
D13*
X98924989Y-187007448D02*
G75*
G03*
X101381178Y-185455653I366373J2139835D01*
G01*
D10*
X101450440Y-190593826D02*
G75*
G03*
X103794431Y-189004579I377372J1966619D01*
G01*
X133551826Y-177064641D02*
X133050803Y-180629606D01*
X133050803Y-180629606D02*
X141171002Y-181770825D01*
X133432458Y-178057692D02*
X133119319Y-180285795D01*
D11*
X133227178Y-180452428D02*
X134465013Y-180626394D01*
D12*
X133715087Y-177340042D02*
X134995476Y-177570481D01*
D13*
X133629441Y-180105031D02*
X133977374Y-177629361D01*
D14*
X135083797Y-179097635D02*
X141718593Y-180030094D01*
D10*
X138305113Y-177732671D02*
X133551826Y-177064641D01*
D15*
X141746160Y-180336917D02*
X142057908Y-178118717D01*
D16*
X143352269Y-177028244D02*
X143101757Y-178810726D01*
D12*
X143542561Y-176752040D02*
X141116404Y-176411066D01*
D10*
X143768449Y-176581821D02*
X140767937Y-176160126D01*
X143149129Y-180988514D02*
X143768449Y-176581821D01*
D17*
X143506429Y-179523988D02*
X143415966Y-180167662D01*
D10*
X143619373Y-179438878D02*
X143421319Y-179411044D01*
X143514993Y-180181579D02*
X143619373Y-179438878D01*
X138305113Y-177732671D02*
G75*
G03*
X140761302Y-176180876I366373J2139835D01*
G01*
D13*
X138645551Y-178184447D02*
G75*
G03*
X141101740Y-176632652I366373J2139835D01*
G01*
D10*
X141171002Y-181770825D02*
G75*
G03*
X143514993Y-180181578I377372J1966619D01*
G01*
X66946525Y-221706198D02*
X66946525Y-223206198D01*
X66946525Y-223206198D02*
X72346525Y-223206198D01*
X69146525Y-221956198D02*
X69146525Y-222956198D01*
X69246525Y-222456198D02*
X70146525Y-221956198D01*
X70146525Y-221956198D02*
X70146525Y-222956198D01*
X70146525Y-222956198D02*
X69246525Y-222456198D01*
X72346525Y-221706198D02*
X66946525Y-221706198D01*
X72346525Y-223206198D02*
X72346525Y-221706198D01*
X172430656Y-196993344D02*
X172931679Y-200558309D01*
X172931679Y-200558309D02*
X181051878Y-199417089D01*
X172589634Y-197980828D02*
X172902774Y-200208932D01*
D11*
X173052385Y-200339379D02*
X174290220Y-200165413D01*
D12*
X172663503Y-197213076D02*
X173957810Y-197081665D01*
D13*
X173343309Y-199894562D02*
X172995376Y-197418891D01*
D14*
X174463650Y-198525315D02*
X181098446Y-197592855D01*
D10*
X177183943Y-196325313D02*
X172430656Y-196993344D01*
D15*
X181209517Y-197880193D02*
X180897769Y-195661993D01*
D16*
X181841414Y-194256989D02*
X182091925Y-196039471D01*
D12*
X181948202Y-193939033D02*
X179522045Y-194280007D01*
D10*
X182118421Y-193713145D02*
X179117909Y-194134839D01*
X182737741Y-198119838D02*
X182118421Y-193713145D01*
D17*
X182677522Y-196613560D02*
X182767984Y-197257234D01*
D10*
X182762631Y-196500616D02*
X182564578Y-196528450D01*
X182867011Y-197243317D02*
X182762631Y-196500616D01*
X177183943Y-196325312D02*
G75*
G03*
X179117250Y-194156614I-237640J2157928D01*
G01*
D13*
X177635719Y-196665750D02*
G75*
G03*
X179569026Y-194497052I-237638J2157927D01*
G01*
D10*
X181051878Y-199417089D02*
G75*
G03*
X182867011Y-197243316I-179320J1994453D01*
G01*
X239906525Y-219356198D02*
X239906525Y-220856198D01*
X239906525Y-220856198D02*
X245306525Y-220856198D01*
X242106525Y-219606198D02*
X242106525Y-220606198D01*
X242206525Y-220106198D02*
X243106525Y-219606198D01*
X243106525Y-219606198D02*
X243106525Y-220606198D01*
X243106525Y-220606198D02*
X242206525Y-220106198D01*
X245306525Y-219356198D02*
X239906525Y-219356198D01*
X245306525Y-220856198D02*
X245306525Y-219356198D01*
X77806525Y-229566198D02*
X77806525Y-231066198D01*
X77806525Y-231066198D02*
X83206525Y-231066198D01*
X80006525Y-229816198D02*
X80006525Y-230816198D01*
X80106525Y-230316198D02*
X81006525Y-229816198D01*
X81006525Y-229816198D02*
X81006525Y-230816198D01*
X81006525Y-230816198D02*
X80106525Y-230316198D01*
X83206525Y-229566198D02*
X77806525Y-229566198D01*
X83206525Y-231066198D02*
X83206525Y-229566198D01*
X229701218Y-193736345D02*
X230202241Y-197301310D01*
X230202241Y-197301310D02*
X238322440Y-196160090D01*
X229860196Y-194723829D02*
X230173336Y-196951933D01*
D11*
X230322947Y-197082380D02*
X231560782Y-196908414D01*
D12*
X229934065Y-193956077D02*
X231228372Y-193824666D01*
D13*
X230613871Y-196637563D02*
X230265938Y-194161892D01*
D14*
X231734212Y-195268316D02*
X238369008Y-194335856D01*
D10*
X234454505Y-193068314D02*
X229701218Y-193736345D01*
D15*
X238480079Y-194623194D02*
X238168331Y-192404994D01*
D16*
X239111976Y-190999990D02*
X239362487Y-192782472D01*
D12*
X239218764Y-190682034D02*
X236792607Y-191023008D01*
D10*
X239388983Y-190456146D02*
X236388471Y-190877840D01*
X240008303Y-194862839D02*
X239388983Y-190456146D01*
D17*
X239948084Y-193356561D02*
X240038546Y-194000235D01*
D10*
X240033193Y-193243617D02*
X239835140Y-193271451D01*
X240137573Y-193986318D02*
X240033193Y-193243617D01*
X234454505Y-193068313D02*
G75*
G03*
X236387812Y-190899615I-237640J2157928D01*
G01*
D13*
X234906281Y-193408751D02*
G75*
G03*
X236839588Y-191240053I-237638J2157927D01*
G01*
D10*
X238322440Y-196160090D02*
G75*
G03*
X240137573Y-193986317I-179320J1994453D01*
G01*
X51472388Y-213591640D02*
X50971365Y-217156605D01*
X50971365Y-217156605D02*
X59091564Y-218297824D01*
X51353020Y-214584691D02*
X51039881Y-216812794D01*
D11*
X51147740Y-216979427D02*
X52385575Y-217153393D01*
D12*
X51635649Y-213867041D02*
X52916038Y-214097480D01*
D13*
X51550003Y-216632030D02*
X51897936Y-214156360D01*
D14*
X53004359Y-215624634D02*
X59639155Y-216557093D01*
D10*
X56225675Y-214259670D02*
X51472388Y-213591640D01*
D15*
X59666722Y-216863916D02*
X59978470Y-214645716D01*
D16*
X61272831Y-213555243D02*
X61022319Y-215337725D01*
D12*
X61463123Y-213279039D02*
X59036966Y-212938065D01*
D10*
X61689011Y-213108820D02*
X58688499Y-212687125D01*
X61069691Y-217515513D02*
X61689011Y-213108820D01*
D17*
X61426991Y-216050987D02*
X61336528Y-216694661D01*
D10*
X61539935Y-215965877D02*
X61341881Y-215938043D01*
X61435555Y-216708578D02*
X61539935Y-215965877D01*
X56225675Y-214259670D02*
G75*
G03*
X58681864Y-212707875I366373J2139835D01*
G01*
D13*
X56566113Y-214711446D02*
G75*
G03*
X59022302Y-213159651I366373J2139835D01*
G01*
D10*
X59091564Y-218297824D02*
G75*
G03*
X61435555Y-216708577I377372J1966619D01*
G01*
X158846525Y-192686198D02*
X158846525Y-194186198D01*
X158846525Y-194186198D02*
X164246525Y-194186198D01*
X161046525Y-192936198D02*
X161046525Y-193936198D01*
X161146525Y-193436198D02*
X162046525Y-192936198D01*
X162046525Y-192936198D02*
X162046525Y-193936198D01*
X162046525Y-193936198D02*
X161146525Y-193436198D01*
X164246525Y-192686198D02*
X158846525Y-192686198D01*
X164246525Y-194186198D02*
X164246525Y-192686198D01*
X136033412Y-243473760D02*
X133817031Y-246310598D01*
X133817031Y-246310598D02*
X140278720Y-251359023D01*
X135433511Y-244274084D02*
X134048273Y-246047108D01*
D11*
X134058365Y-246245346D02*
X135043378Y-247014922D01*
D12*
X136037099Y-243793895D02*
X137030730Y-244633655D01*
D13*
X134580433Y-246145623D02*
X136119587Y-244175596D01*
D14*
X136343641Y-246000370D02*
X141623313Y-250125302D01*
D10*
X139815864Y-246428935D02*
X136033412Y-243473760D01*
D15*
X141493775Y-250404801D02*
X142872857Y-248639657D01*
D16*
X144539043Y-248342461D02*
X143430853Y-249760880D01*
D12*
X144841943Y-248198407D02*
X142911316Y-246690036D01*
D10*
X145122677Y-248163937D02*
X142735005Y-246298483D01*
X142382984Y-251670585D02*
X145122677Y-248163937D01*
D17*
X143424677Y-250580918D02*
X143024497Y-251093125D01*
D10*
X143565045Y-250563683D02*
X143407442Y-250440551D01*
X143103299Y-251154691D02*
X143565045Y-250563683D01*
X139815865Y-246428934D02*
G75*
G03*
X142718884Y-246313135I1387205J1669964D01*
G01*
D13*
X139884804Y-246990403D02*
G75*
G03*
X142787824Y-246874604I1387206J1669965D01*
G01*
D10*
X140278720Y-251359023D02*
G75*
G03*
X143103299Y-251154690I1310123J1514456D01*
G01*
X148250000Y-195240000D02*
X148250000Y-196740000D01*
X148250000Y-196740000D02*
X153650000Y-196740000D01*
X150450000Y-195490000D02*
X150450000Y-196490000D01*
X150550000Y-195990000D02*
X151450000Y-195490000D01*
X151450000Y-195490000D02*
X151450000Y-196490000D01*
X151450000Y-196490000D02*
X150550000Y-195990000D01*
X153650000Y-195240000D02*
X148250000Y-195240000D01*
X153650000Y-196740000D02*
X153650000Y-195240000D01*
X66976525Y-226816198D02*
X66976525Y-228316198D01*
X66976525Y-228316198D02*
X72376525Y-228316198D01*
X69176525Y-227066198D02*
X69176525Y-228066198D01*
X69276525Y-227566198D02*
X70176525Y-227066198D01*
X70176525Y-227066198D02*
X70176525Y-228066198D01*
X70176525Y-228066198D02*
X69276525Y-227566198D01*
X72376525Y-226816198D02*
X66976525Y-226816198D01*
X72376525Y-228316198D02*
X72376525Y-226816198D01*
X97321826Y-229714641D02*
X96820803Y-233279606D01*
X96820803Y-233279606D02*
X104941002Y-234420825D01*
X97202458Y-230707692D02*
X96889319Y-232935795D01*
D11*
X96997178Y-233102428D02*
X98235013Y-233276394D01*
D12*
X97485087Y-229990042D02*
X98765476Y-230220481D01*
D13*
X97399441Y-232755031D02*
X97747374Y-230279361D01*
D14*
X98853797Y-231747635D02*
X105488593Y-232680094D01*
D10*
X102075113Y-230382671D02*
X97321826Y-229714641D01*
D15*
X105516160Y-232986917D02*
X105827908Y-230768717D01*
D16*
X107122269Y-229678244D02*
X106871757Y-231460726D01*
D12*
X107312561Y-229402040D02*
X104886404Y-229061066D01*
D10*
X107538449Y-229231821D02*
X104537937Y-228810126D01*
X106919129Y-233638514D02*
X107538449Y-229231821D01*
D17*
X107276429Y-232173988D02*
X107185966Y-232817662D01*
D10*
X107389373Y-232088878D02*
X107191319Y-232061044D01*
X107284993Y-232831579D02*
X107389373Y-232088878D01*
X102075113Y-230382671D02*
G75*
G03*
X104531302Y-228830876I366373J2139835D01*
G01*
D13*
X102415551Y-230834447D02*
G75*
G03*
X104871740Y-229282652I366373J2139835D01*
G01*
D10*
X104941002Y-234420825D02*
G75*
G03*
X107284993Y-232831578I377372J1966619D01*
G01*
X109381826Y-212124641D02*
X108880803Y-215689606D01*
X108880803Y-215689606D02*
X117001002Y-216830825D01*
X109262458Y-213117692D02*
X108949319Y-215345795D01*
D11*
X109057178Y-215512428D02*
X110295013Y-215686394D01*
D12*
X109545087Y-212400042D02*
X110825476Y-212630481D01*
D13*
X109459441Y-215165031D02*
X109807374Y-212689361D01*
D14*
X110913797Y-214157635D02*
X117548593Y-215090094D01*
D10*
X114135113Y-212792671D02*
X109381826Y-212124641D01*
D15*
X117576160Y-215396917D02*
X117887908Y-213178717D01*
D16*
X119182269Y-212088244D02*
X118931757Y-213870726D01*
D12*
X119372561Y-211812040D02*
X116946404Y-211471066D01*
D10*
X119598449Y-211641821D02*
X116597937Y-211220126D01*
X118979129Y-216048514D02*
X119598449Y-211641821D01*
D17*
X119336429Y-214583988D02*
X119245966Y-215227662D01*
D10*
X119449373Y-214498878D02*
X119251319Y-214471044D01*
X119344993Y-215241579D02*
X119449373Y-214498878D01*
X114135113Y-212792671D02*
G75*
G03*
X116591302Y-211240876I366373J2139835D01*
G01*
D13*
X114475551Y-213244447D02*
G75*
G03*
X116931740Y-211692652I366373J2139835D01*
G01*
D10*
X117001002Y-216830825D02*
G75*
G03*
X119344993Y-215241578I377372J1966619D01*
G01*
X66976525Y-229466198D02*
X66976525Y-230966198D01*
X66976525Y-230966198D02*
X72376525Y-230966198D01*
X69176525Y-229716198D02*
X69176525Y-230716198D01*
X69276525Y-230216198D02*
X70176525Y-229716198D01*
X70176525Y-229716198D02*
X70176525Y-230716198D01*
X70176525Y-230716198D02*
X69276525Y-230216198D01*
X72376525Y-229466198D02*
X66976525Y-229466198D01*
X72376525Y-230966198D02*
X72376525Y-229466198D01*
X71001826Y-211534641D02*
X70500803Y-215099606D01*
X70500803Y-215099606D02*
X78621002Y-216240825D01*
X70882458Y-212527692D02*
X70569319Y-214755795D01*
D11*
X70677178Y-214922428D02*
X71915013Y-215096394D01*
D12*
X71165087Y-211810042D02*
X72445476Y-212040481D01*
D13*
X71079441Y-214575031D02*
X71427374Y-212099361D01*
D14*
X72533797Y-213567635D02*
X79168593Y-214500094D01*
D10*
X75755113Y-212202671D02*
X71001826Y-211534641D01*
D15*
X79196160Y-214806917D02*
X79507908Y-212588717D01*
D16*
X80802269Y-211498244D02*
X80551757Y-213280726D01*
D12*
X80992561Y-211222040D02*
X78566404Y-210881066D01*
D10*
X81218449Y-211051821D02*
X78217937Y-210630126D01*
X80599129Y-215458514D02*
X81218449Y-211051821D01*
D17*
X80956429Y-213993988D02*
X80865966Y-214637662D01*
D10*
X81069373Y-213908878D02*
X80871319Y-213881044D01*
X80964993Y-214651579D02*
X81069373Y-213908878D01*
X75755113Y-212202671D02*
G75*
G03*
X78211302Y-210650876I366373J2139835D01*
G01*
D13*
X76095551Y-212654447D02*
G75*
G03*
X78551740Y-211102652I366373J2139835D01*
G01*
D10*
X78621002Y-216240825D02*
G75*
G03*
X80964993Y-214651578I377372J1966619D01*
G01*
X128251826Y-214774641D02*
X127750803Y-218339606D01*
X127750803Y-218339606D02*
X135871002Y-219480825D01*
X128132458Y-215767692D02*
X127819319Y-217995795D01*
D11*
X127927178Y-218162428D02*
X129165013Y-218336394D01*
D12*
X128415087Y-215050042D02*
X129695476Y-215280481D01*
D13*
X128329441Y-217815031D02*
X128677374Y-215339361D01*
D14*
X129783797Y-216807635D02*
X136418593Y-217740094D01*
D10*
X133005113Y-215442671D02*
X128251826Y-214774641D01*
D15*
X136446160Y-218046917D02*
X136757908Y-215828717D01*
D16*
X138052269Y-214738244D02*
X137801757Y-216520726D01*
D12*
X138242561Y-214462040D02*
X135816404Y-214121066D01*
D10*
X138468449Y-214291821D02*
X135467937Y-213870126D01*
X137849129Y-218698514D02*
X138468449Y-214291821D01*
D17*
X138206429Y-217233988D02*
X138115966Y-217877662D01*
D10*
X138319373Y-217148878D02*
X138121319Y-217121044D01*
X138214993Y-217891579D02*
X138319373Y-217148878D01*
X133005113Y-215442671D02*
G75*
G03*
X135461302Y-213890876I366373J2139835D01*
G01*
D13*
X133345551Y-215894447D02*
G75*
G03*
X135801740Y-214342652I366373J2139835D01*
G01*
D10*
X135871002Y-219480825D02*
G75*
G03*
X138214993Y-217891578I377372J1966619D01*
G01*
X212181218Y-205786345D02*
X212682241Y-209351310D01*
X212682241Y-209351310D02*
X220802440Y-208210090D01*
X212340196Y-206773829D02*
X212653336Y-209001933D01*
D11*
X212802947Y-209132380D02*
X214040782Y-208958414D01*
D12*
X212414065Y-206006077D02*
X213708372Y-205874666D01*
D13*
X213093871Y-208687563D02*
X212745938Y-206211892D01*
D14*
X214214212Y-207318316D02*
X220849008Y-206385856D01*
D10*
X216934505Y-205118314D02*
X212181218Y-205786345D01*
D15*
X220960079Y-206673194D02*
X220648331Y-204454994D01*
D16*
X221591976Y-203049990D02*
X221842487Y-204832472D01*
D12*
X221698764Y-202732034D02*
X219272607Y-203073008D01*
D10*
X221868983Y-202506146D02*
X218868471Y-202927840D01*
X222488303Y-206912839D02*
X221868983Y-202506146D01*
D17*
X222428084Y-205406561D02*
X222518546Y-206050235D01*
D10*
X222513193Y-205293617D02*
X222315140Y-205321451D01*
X222617573Y-206036318D02*
X222513193Y-205293617D01*
X216934505Y-205118313D02*
G75*
G03*
X218867812Y-202949615I-237640J2157928D01*
G01*
D13*
X217386281Y-205458751D02*
G75*
G03*
X219319588Y-203290053I-237638J2157927D01*
G01*
D10*
X220802440Y-208210090D02*
G75*
G03*
X222617573Y-206036317I-179320J1994453D01*
G01*
X159015000Y-205400000D02*
X159015000Y-206900000D01*
X159015000Y-206900000D02*
X164415000Y-206900000D01*
X161215000Y-205650000D02*
X161215000Y-206650000D01*
X161315000Y-206150000D02*
X162215000Y-205650000D01*
X162215000Y-205650000D02*
X162215000Y-206650000D01*
X162215000Y-206650000D02*
X161315000Y-206150000D01*
X164415000Y-205400000D02*
X159015000Y-205400000D01*
X164415000Y-206900000D02*
X164415000Y-205400000D01*
X66986525Y-219426198D02*
X66986525Y-220926198D01*
X66986525Y-220926198D02*
X72386525Y-220926198D01*
X69186525Y-219676198D02*
X69186525Y-220676198D01*
X69286525Y-220176198D02*
X70186525Y-219676198D01*
X70186525Y-219676198D02*
X70186525Y-220676198D01*
X70186525Y-220676198D02*
X69286525Y-220176198D01*
X72386525Y-219426198D02*
X66986525Y-219426198D01*
X72386525Y-220926198D02*
X72386525Y-219426198D01*
X148250000Y-207870000D02*
X148250000Y-209370000D01*
X148250000Y-209370000D02*
X153650000Y-209370000D01*
X150450000Y-208120000D02*
X150450000Y-209120000D01*
X150550000Y-208620000D02*
X151450000Y-208120000D01*
X151450000Y-208120000D02*
X151450000Y-209120000D01*
X151450000Y-209120000D02*
X150550000Y-208620000D01*
X153650000Y-207870000D02*
X148250000Y-207870000D01*
X153650000Y-209370000D02*
X153650000Y-207870000D01*
X229046525Y-224746198D02*
X229046525Y-226246198D01*
X229046525Y-226246198D02*
X234446525Y-226246198D01*
X231246525Y-224996198D02*
X231246525Y-225996198D01*
X231346525Y-225496198D02*
X232246525Y-224996198D01*
X232246525Y-224996198D02*
X232246525Y-225996198D01*
X232246525Y-225996198D02*
X231346525Y-225496198D01*
X234446525Y-224746198D02*
X229046525Y-224746198D01*
X234446525Y-226246198D02*
X234446525Y-224746198D01*
X186414263Y-237317178D02*
X187820895Y-240630995D01*
X187820895Y-240630995D02*
X195369036Y-237426999D01*
X186823404Y-238229868D02*
X187702549Y-240301004D01*
D11*
X187880825Y-240388284D02*
X189031456Y-239899870D01*
D12*
X186696047Y-237469158D02*
X187912240Y-237007232D01*
D13*
X188046709Y-239883327D02*
X187069881Y-237582064D01*
D14*
X188774488Y-238270770D02*
X194941870Y-235652872D01*
D10*
X190832686Y-235441668D02*
X186414263Y-237317178D01*
D15*
X195123525Y-235901672D02*
X194248287Y-233839741D01*
D16*
X194796137Y-232238379D02*
X195499452Y-233895287D01*
D12*
X194816993Y-231903618D02*
X192561756Y-232860909D01*
D10*
X194922948Y-231641370D02*
X192133818Y-232825286D01*
X196661701Y-235737617D02*
X194922948Y-231641370D01*
D17*
X196213680Y-234298250D02*
X196467655Y-234896578D01*
D10*
X196266658Y-234167127D02*
X196082557Y-234245273D01*
X196559706Y-234857505D02*
X196266658Y-234167127D01*
X190832686Y-235441667D02*
G75*
G03*
X192138817Y-232846489I-788053J2022892D01*
G01*
D13*
X191357181Y-235653577D02*
G75*
G03*
X192663311Y-233058398I-788054J2022892D01*
G01*
D10*
X195369036Y-237427000D02*
G75*
G03*
X196559706Y-234857504I-689413J1880083D01*
G01*
X206859500Y-168032284D02*
X207360523Y-171597249D01*
X207360523Y-171597249D02*
X215480722Y-170456029D01*
X207018478Y-169019768D02*
X207331618Y-171247872D01*
D11*
X207481229Y-171378319D02*
X208719064Y-171204353D01*
D12*
X207092347Y-168252016D02*
X208386654Y-168120605D01*
D13*
X207772153Y-170933502D02*
X207424220Y-168457831D01*
D14*
X208892494Y-169564255D02*
X215527290Y-168631795D01*
D10*
X211612787Y-167364253D02*
X206859500Y-168032284D01*
D15*
X215638361Y-168919133D02*
X215326613Y-166700933D01*
D16*
X216270258Y-165295929D02*
X216520769Y-167078411D01*
D12*
X216377046Y-164977973D02*
X213950889Y-165318947D01*
D10*
X216547265Y-164752085D02*
X213546753Y-165173779D01*
X217166585Y-169158778D02*
X216547265Y-164752085D01*
D17*
X217106366Y-167652500D02*
X217196828Y-168296174D01*
D10*
X217191475Y-167539556D02*
X216993422Y-167567390D01*
X217295855Y-168282257D02*
X217191475Y-167539556D01*
X211612787Y-167364252D02*
G75*
G03*
X213546094Y-165195554I-237640J2157928D01*
G01*
D13*
X212064563Y-167704690D02*
G75*
G03*
X213997870Y-165535992I-237638J2157927D01*
G01*
D10*
X215480722Y-170456029D02*
G75*
G03*
X217295855Y-168282256I-179320J1994453D01*
G01*
X169139426Y-248779555D02*
X171355807Y-251616393D01*
X171355807Y-251616393D02*
X177817496Y-246567969D01*
X169770848Y-249555252D02*
X171156086Y-251328276D01*
D11*
X171350877Y-251366442D02*
X172335890Y-250596865D01*
D12*
X169450944Y-248853425D02*
X170506141Y-248092466D01*
D13*
X171380416Y-250835756D02*
X169841262Y-248865729D01*
D14*
X171666036Y-249089783D02*
X176945708Y-244964852D01*
D10*
X172921878Y-245824380D02*
X169139426Y-248779555D01*
D15*
X177185567Y-245158158D02*
X175806486Y-243393014D01*
D16*
X175921204Y-241704423D02*
X177029394Y-243122842D01*
D12*
X175854708Y-241375671D02*
X173924081Y-242884042D01*
D10*
X175889177Y-241094936D02*
X173501505Y-242960391D01*
X178628871Y-244601584D02*
X175889177Y-241094936D01*
D17*
X177823580Y-243327219D02*
X178223760Y-243839426D01*
D10*
X177840815Y-243186852D02*
X177683213Y-243309984D01*
X178302561Y-243777860D02*
X177840815Y-243186852D01*
X172921877Y-245824378D02*
G75*
G03*
X173511821Y-242979577I-1284764J1750000D01*
G01*
D13*
X173483346Y-245893318D02*
G75*
G03*
X174073290Y-243048517I-1284764J1750000D01*
G01*
D10*
X177817496Y-246567969D02*
G75*
G03*
X178302561Y-243777859I-1152522J1637587D01*
G01*
X209509500Y-186942284D02*
X210010523Y-190507249D01*
X210010523Y-190507249D02*
X218130722Y-189366029D01*
X209668478Y-187929768D02*
X209981618Y-190157872D01*
D11*
X210131229Y-190288319D02*
X211369064Y-190114353D01*
D12*
X209742347Y-187162016D02*
X211036654Y-187030605D01*
D13*
X210422153Y-189843502D02*
X210074220Y-187367831D01*
D14*
X211542494Y-188474255D02*
X218177290Y-187541795D01*
D10*
X214262787Y-186274253D02*
X209509500Y-186942284D01*
D15*
X218288361Y-187829133D02*
X217976613Y-185610933D01*
D16*
X218920258Y-184205929D02*
X219170769Y-185988411D01*
D12*
X219027046Y-183887973D02*
X216600889Y-184228947D01*
D10*
X219197265Y-183662085D02*
X216196753Y-184083779D01*
X219816585Y-188068778D02*
X219197265Y-183662085D01*
D17*
X219756366Y-186562500D02*
X219846828Y-187206174D01*
D10*
X219841475Y-186449556D02*
X219643422Y-186477390D01*
X219945855Y-187192257D02*
X219841475Y-186449556D01*
X214262787Y-186274252D02*
G75*
G03*
X216196094Y-184105554I-237640J2157928D01*
G01*
D13*
X214714563Y-186614690D02*
G75*
G03*
X216647870Y-184445992I-237638J2157927D01*
G01*
D10*
X218130722Y-189366029D02*
G75*
G03*
X219945855Y-187192256I-179320J1994453D01*
G01*
X249220656Y-195783344D02*
X249721679Y-199348309D01*
X249721679Y-199348309D02*
X257841878Y-198207089D01*
X249379634Y-196770828D02*
X249692774Y-198998932D01*
D11*
X249842385Y-199129379D02*
X251080220Y-198955413D01*
D12*
X249453503Y-196003076D02*
X250747810Y-195871665D01*
D13*
X250133309Y-198684562D02*
X249785376Y-196208891D01*
D14*
X251253650Y-197315315D02*
X257888446Y-196382855D01*
D10*
X253973943Y-195115313D02*
X249220656Y-195783344D01*
D15*
X257999517Y-196670193D02*
X257687769Y-194451993D01*
D16*
X258631414Y-193046989D02*
X258881925Y-194829471D01*
D12*
X258738202Y-192729033D02*
X256312045Y-193070007D01*
D10*
X258908421Y-192503145D02*
X255907909Y-192924839D01*
X259527741Y-196909838D02*
X258908421Y-192503145D01*
D17*
X259467522Y-195403560D02*
X259557984Y-196047234D01*
D10*
X259552631Y-195290616D02*
X259354578Y-195318450D01*
X259657011Y-196033317D02*
X259552631Y-195290616D01*
X253973943Y-195115312D02*
G75*
G03*
X255907250Y-192946614I-237640J2157928D01*
G01*
D13*
X254425719Y-195455750D02*
G75*
G03*
X256359026Y-193287052I-237638J2157927D01*
G01*
D10*
X257841878Y-198207089D02*
G75*
G03*
X259657011Y-196033316I-179320J1994453D01*
G01*
X227071218Y-174876345D02*
X227572241Y-178441310D01*
X227572241Y-178441310D02*
X235692440Y-177300090D01*
X227230196Y-175863829D02*
X227543336Y-178091933D01*
D11*
X227692947Y-178222380D02*
X228930782Y-178048414D01*
D12*
X227304065Y-175096077D02*
X228598372Y-174964666D01*
D13*
X227983871Y-177777563D02*
X227635938Y-175301892D01*
D14*
X229104212Y-176408316D02*
X235739008Y-175475856D01*
D10*
X231824505Y-174208314D02*
X227071218Y-174876345D01*
D15*
X235850079Y-175763194D02*
X235538331Y-173544994D01*
D16*
X236481976Y-172139990D02*
X236732487Y-173922472D01*
D12*
X236588764Y-171822034D02*
X234162607Y-172163008D01*
D10*
X236758983Y-171596146D02*
X233758471Y-172017840D01*
X237378303Y-176002839D02*
X236758983Y-171596146D01*
D17*
X237318084Y-174496561D02*
X237408546Y-175140235D01*
D10*
X237403193Y-174383617D02*
X237205140Y-174411451D01*
X237507573Y-175126318D02*
X237403193Y-174383617D01*
X231824505Y-174208313D02*
G75*
G03*
X233757812Y-172039615I-237640J2157928D01*
G01*
D13*
X232276281Y-174548751D02*
G75*
G03*
X234209588Y-172380053I-237638J2157927D01*
G01*
D10*
X235692440Y-177300090D02*
G75*
G03*
X237507573Y-175126317I-179320J1994453D01*
G01*
X148250000Y-197890000D02*
X148250000Y-199390000D01*
X148250000Y-199390000D02*
X153650000Y-199390000D01*
X150450000Y-198140000D02*
X150450000Y-199140000D01*
X150550000Y-198640000D02*
X151450000Y-198140000D01*
X151450000Y-198140000D02*
X151450000Y-199140000D01*
X151450000Y-199140000D02*
X150550000Y-198640000D01*
X153650000Y-197890000D02*
X148250000Y-197890000D01*
X153650000Y-199390000D02*
X153650000Y-197890000D01*
X169791780Y-178129346D02*
X170292803Y-181694311D01*
X170292803Y-181694311D02*
X178413002Y-180553091D01*
X169950758Y-179116830D02*
X170263898Y-181344934D01*
D11*
X170413509Y-181475381D02*
X171651344Y-181301415D01*
D12*
X170024627Y-178349078D02*
X171318934Y-178217667D01*
D13*
X170704433Y-181030564D02*
X170356500Y-178554893D01*
D14*
X171824774Y-179661317D02*
X178459570Y-178728857D01*
D10*
X174545067Y-177461315D02*
X169791780Y-178129346D01*
D15*
X178570641Y-179016195D02*
X178258893Y-176797995D01*
D16*
X179202538Y-175392991D02*
X179453049Y-177175473D01*
D12*
X179309326Y-175075035D02*
X176883169Y-175416009D01*
D10*
X179479545Y-174849147D02*
X176479033Y-175270841D01*
X180098865Y-179255840D02*
X179479545Y-174849147D01*
D17*
X180038646Y-177749562D02*
X180129108Y-178393236D01*
D10*
X180123755Y-177636618D02*
X179925702Y-177664452D01*
X180228135Y-178379319D02*
X180123755Y-177636618D01*
X174545067Y-177461314D02*
G75*
G03*
X176478374Y-175292616I-237640J2157928D01*
G01*
D13*
X174996843Y-177801752D02*
G75*
G03*
X176930150Y-175633054I-237638J2157927D01*
G01*
D10*
X178413002Y-180553091D02*
G75*
G03*
X180228135Y-178379318I-179320J1994453D01*
G01*
X229046525Y-222096198D02*
X229046525Y-223596198D01*
X229046525Y-223596198D02*
X234446525Y-223596198D01*
X231246525Y-222346198D02*
X231246525Y-223346198D01*
X231346525Y-222846198D02*
X232246525Y-222346198D01*
X232246525Y-222346198D02*
X232246525Y-223346198D01*
X232246525Y-223346198D02*
X231346525Y-222846198D01*
X234446525Y-222096198D02*
X229046525Y-222096198D01*
X234446525Y-223596198D02*
X234446525Y-222096198D01*
X239906525Y-222006198D02*
X239906525Y-223506198D01*
X239906525Y-223506198D02*
X245306525Y-223506198D01*
X242106525Y-222256198D02*
X242106525Y-223256198D01*
X242206525Y-222756198D02*
X243106525Y-222256198D01*
X243106525Y-222256198D02*
X243106525Y-223256198D01*
X243106525Y-223256198D02*
X242206525Y-222756198D01*
X245306525Y-222006198D02*
X239906525Y-222006198D01*
X245306525Y-223506198D02*
X245306525Y-222006198D01*
X130921826Y-195914641D02*
X130420803Y-199479606D01*
X130420803Y-199479606D02*
X138541002Y-200620825D01*
X130802458Y-196907692D02*
X130489319Y-199135795D01*
D11*
X130597178Y-199302428D02*
X131835013Y-199476394D01*
D12*
X131085087Y-196190042D02*
X132365476Y-196420481D01*
D13*
X130999441Y-198955031D02*
X131347374Y-196479361D01*
D14*
X132453797Y-197947635D02*
X139088593Y-198880094D01*
D10*
X135675113Y-196582671D02*
X130921826Y-195914641D01*
D15*
X139116160Y-199186917D02*
X139427908Y-196968717D01*
D16*
X140722269Y-195878244D02*
X140471757Y-197660726D01*
D12*
X140912561Y-195602040D02*
X138486404Y-195261066D01*
D10*
X141138449Y-195431821D02*
X138137937Y-195010126D01*
X140519129Y-199838514D02*
X141138449Y-195431821D01*
D17*
X140876429Y-198373988D02*
X140785966Y-199017662D01*
D10*
X140989373Y-198288878D02*
X140791319Y-198261044D01*
X140884993Y-199031579D02*
X140989373Y-198288878D01*
X135675113Y-196582671D02*
G75*
G03*
X138131302Y-195030876I366373J2139835D01*
G01*
D13*
X136015551Y-197034447D02*
G75*
G03*
X138471740Y-195482652I366373J2139835D01*
G01*
D10*
X138541002Y-200620825D02*
G75*
G03*
X140884993Y-199031578I377372J1966619D01*
G01*
X148250000Y-205800000D02*
X148250000Y-207300000D01*
X148250000Y-207300000D02*
X153650000Y-207300000D01*
X150450000Y-206050000D02*
X150450000Y-207050000D01*
X150550000Y-206550000D02*
X151450000Y-206050000D01*
X151450000Y-206050000D02*
X151450000Y-207050000D01*
X151450000Y-207050000D02*
X150550000Y-206550000D01*
X153650000Y-205800000D02*
X148250000Y-205800000D01*
X153650000Y-207300000D02*
X153650000Y-205800000D01*
X239906525Y-227306198D02*
X239906525Y-228806198D01*
X239906525Y-228806198D02*
X245306525Y-228806198D01*
X242106525Y-227556198D02*
X242106525Y-228556198D01*
X242206525Y-228056198D02*
X243106525Y-227556198D01*
X243106525Y-227556198D02*
X243106525Y-228556198D01*
X243106525Y-228556198D02*
X242206525Y-228056198D01*
X245306525Y-227306198D02*
X239906525Y-227306198D01*
X245306525Y-228806198D02*
X245306525Y-227306198D01*
X117614790Y-234072084D02*
X116208158Y-237385901D01*
X116208158Y-237385901D02*
X123756299Y-240589897D01*
X117242469Y-235000403D02*
X116363324Y-237071539D01*
D11*
X116424380Y-237260410D02*
X117575011Y-237748824D01*
D12*
X117701208Y-234380356D02*
X118878328Y-234934332D01*
D13*
X116902849Y-237028964D02*
X117879677Y-234727702D01*
D14*
X118568383Y-236432308D02*
X124735765Y-239050207D01*
D10*
X122033214Y-235947593D02*
X117614790Y-234072084D01*
D15*
X124682981Y-239353710D02*
X125558219Y-237291779D01*
D16*
X127090711Y-236573469D02*
X126387395Y-238230377D01*
D12*
X127346006Y-236355927D02*
X125090769Y-235398636D01*
D10*
X127608253Y-236249972D02*
X124819123Y-235066057D01*
X125869500Y-240346219D02*
X127608253Y-236249972D01*
D17*
X126593672Y-239024071D02*
X126339697Y-239622399D01*
D10*
X126724796Y-238971094D02*
X126540695Y-238892948D01*
X126431747Y-239661472D02*
X126724796Y-238971094D01*
X122033214Y-235947593D02*
G75*
G03*
X124807345Y-235084382I907719J1972098D01*
G01*
D13*
X122245123Y-236472087D02*
G75*
G03*
X125019253Y-235608877I907719J1972098D01*
G01*
D10*
X123756299Y-240589897D02*
G75*
G03*
X126431748Y-239661472I873512J1801937D01*
G01*
X188711218Y-175466345D02*
X189212241Y-179031310D01*
X189212241Y-179031310D02*
X197332440Y-177890090D01*
X188870196Y-176453829D02*
X189183336Y-178681933D01*
D11*
X189332947Y-178812380D02*
X190570782Y-178638414D01*
D12*
X188944065Y-175686077D02*
X190238372Y-175554666D01*
D13*
X189623871Y-178367563D02*
X189275938Y-175891892D01*
D14*
X190744212Y-176998316D02*
X197379008Y-176065856D01*
D10*
X193464505Y-174798314D02*
X188711218Y-175466345D01*
D15*
X197490079Y-176353194D02*
X197178331Y-174134994D01*
D16*
X198121976Y-172729990D02*
X198372487Y-174512472D01*
D12*
X198228764Y-172412034D02*
X195802607Y-172753008D01*
D10*
X198398983Y-172186146D02*
X195398471Y-172607840D01*
X199018303Y-176592839D02*
X198398983Y-172186146D01*
D17*
X198958084Y-175086561D02*
X199048546Y-175730235D01*
D10*
X199043193Y-174973617D02*
X198845140Y-175001451D01*
X199147573Y-175716318D02*
X199043193Y-174973617D01*
X193464505Y-174798313D02*
G75*
G03*
X195397812Y-172629615I-237640J2157928D01*
G01*
D13*
X193916281Y-175138751D02*
G75*
G03*
X195849588Y-172970053I-237638J2157927D01*
G01*
D10*
X197332440Y-177890090D02*
G75*
G03*
X199147573Y-175716317I-179320J1994453D01*
G01*
X77806525Y-226916198D02*
X77806525Y-228416198D01*
X77806525Y-228416198D02*
X83206525Y-228416198D01*
X80006525Y-227166198D02*
X80006525Y-228166198D01*
X80106525Y-227666198D02*
X81006525Y-227166198D01*
X81006525Y-227166198D02*
X81006525Y-228166198D01*
X81006525Y-228166198D02*
X80106525Y-227666198D01*
X83206525Y-226916198D02*
X77806525Y-226916198D01*
X83206525Y-228416198D02*
X83206525Y-226916198D01*
X229046525Y-227396198D02*
X229046525Y-228896198D01*
X229046525Y-228896198D02*
X234446525Y-228896198D01*
X231246525Y-227646198D02*
X231246525Y-228646198D01*
X231346525Y-228146198D02*
X232246525Y-227646198D01*
X232246525Y-227646198D02*
X232246525Y-228646198D01*
X232246525Y-228646198D02*
X231346525Y-228146198D01*
X234446525Y-227396198D02*
X229046525Y-227396198D01*
X234446525Y-228896198D02*
X234446525Y-227396198D01*
X114701826Y-174424641D02*
X114200803Y-177989606D01*
X114200803Y-177989606D02*
X122321002Y-179130825D01*
X114582458Y-175417692D02*
X114269319Y-177645795D01*
D11*
X114377178Y-177812428D02*
X115615013Y-177986394D01*
D12*
X114865087Y-174700042D02*
X116145476Y-174930481D01*
D13*
X114779441Y-177465031D02*
X115127374Y-174989361D01*
D14*
X116233797Y-176457635D02*
X122868593Y-177390094D01*
D10*
X119455113Y-175092671D02*
X114701826Y-174424641D01*
D15*
X122896160Y-177696917D02*
X123207908Y-175478717D01*
D16*
X124502269Y-174388244D02*
X124251757Y-176170726D01*
D12*
X124692561Y-174112040D02*
X122266404Y-173771066D01*
D10*
X124918449Y-173941821D02*
X121917937Y-173520126D01*
X124299129Y-178348514D02*
X124918449Y-173941821D01*
D17*
X124656429Y-176883988D02*
X124565966Y-177527662D01*
D10*
X124769373Y-176798878D02*
X124571319Y-176771044D01*
X124664993Y-177541579D02*
X124769373Y-176798878D01*
X119455113Y-175092671D02*
G75*
G03*
X121911302Y-173540876I366373J2139835D01*
G01*
D13*
X119795551Y-175544447D02*
G75*
G03*
X122251740Y-173992652I366373J2139835D01*
G01*
D10*
X122321002Y-179130825D02*
G75*
G03*
X124664993Y-177541578I377372J1966619D01*
G01*
X158995000Y-210350000D02*
X158995000Y-211850000D01*
X158995000Y-211850000D02*
X164395000Y-211850000D01*
X161195000Y-210600000D02*
X161195000Y-211600000D01*
X161295000Y-211100000D02*
X162195000Y-210600000D01*
X162195000Y-210600000D02*
X162195000Y-211600000D01*
X162195000Y-211600000D02*
X161295000Y-211100000D01*
X164395000Y-210350000D02*
X158995000Y-210350000D01*
X164395000Y-211850000D02*
X164395000Y-210350000D01*
X175091218Y-215826345D02*
X175592241Y-219391310D01*
X175592241Y-219391310D02*
X183712440Y-218250090D01*
X175250196Y-216813829D02*
X175563336Y-219041933D01*
D11*
X175712947Y-219172380D02*
X176950782Y-218998414D01*
D12*
X175324065Y-216046077D02*
X176618372Y-215914666D01*
D13*
X176003871Y-218727563D02*
X175655938Y-216251892D01*
D14*
X177124212Y-217358316D02*
X183759008Y-216425856D01*
D10*
X179844505Y-215158314D02*
X175091218Y-215826345D01*
D15*
X183870079Y-216713194D02*
X183558331Y-214494994D01*
D16*
X184501976Y-213089990D02*
X184752487Y-214872472D01*
D12*
X184608764Y-212772034D02*
X182182607Y-213113008D01*
D10*
X184778983Y-212546146D02*
X181778471Y-212967840D01*
X185398303Y-216952839D02*
X184778983Y-212546146D01*
D17*
X185338084Y-215446561D02*
X185428546Y-216090235D01*
D10*
X185423193Y-215333617D02*
X185225140Y-215361451D01*
X185527573Y-216076318D02*
X185423193Y-215333617D01*
X179844505Y-215158313D02*
G75*
G03*
X181777812Y-212989615I-237640J2157928D01*
G01*
D13*
X180296281Y-215498751D02*
G75*
G03*
X182229588Y-213330053I-237638J2157927D01*
G01*
D10*
X183712440Y-218250090D02*
G75*
G03*
X185527573Y-216076317I-179320J1994453D01*
G01*
X77936525Y-219576198D02*
X77936525Y-221076198D01*
X77936525Y-221076198D02*
X83336525Y-221076198D01*
X80136525Y-219826198D02*
X80136525Y-220826198D01*
X80236525Y-220326198D02*
X81136525Y-219826198D01*
X81136525Y-219826198D02*
X81136525Y-220826198D01*
X81136525Y-220826198D02*
X80236525Y-220326198D01*
X83336525Y-219576198D02*
X77936525Y-219576198D01*
X83336525Y-221076198D02*
X83336525Y-219576198D01*
X158886525Y-202996198D02*
X158886525Y-204496198D01*
X158886525Y-204496198D02*
X164286525Y-204496198D01*
X161086525Y-203246198D02*
X161086525Y-204246198D01*
X161186525Y-203746198D02*
X162086525Y-203246198D01*
X162086525Y-203246198D02*
X162086525Y-204246198D01*
X162086525Y-204246198D02*
X161186525Y-203746198D01*
X164286525Y-202996198D02*
X158886525Y-202996198D01*
X164286525Y-204496198D02*
X164286525Y-202996198D01*
X54132404Y-194739111D02*
X53631381Y-198304076D01*
X53631381Y-198304076D02*
X61751580Y-199445295D01*
X54013036Y-195732162D02*
X53699897Y-197960265D01*
D11*
X53807756Y-198126898D02*
X55045591Y-198300864D01*
D12*
X54295665Y-195014512D02*
X55576054Y-195244951D01*
D13*
X54210019Y-197779501D02*
X54557952Y-195303831D01*
D14*
X55664375Y-196772105D02*
X62299171Y-197704564D01*
D10*
X58885691Y-195407141D02*
X54132404Y-194739111D01*
D15*
X62326738Y-198011387D02*
X62638486Y-195793187D01*
D16*
X63932847Y-194702714D02*
X63682335Y-196485196D01*
D12*
X64123139Y-194426510D02*
X61696982Y-194085536D01*
D10*
X64349027Y-194256291D02*
X61348515Y-193834596D01*
X63729707Y-198662984D02*
X64349027Y-194256291D01*
D17*
X64087007Y-197198458D02*
X63996544Y-197842132D01*
D10*
X64199951Y-197113348D02*
X64001897Y-197085514D01*
X64095571Y-197856049D02*
X64199951Y-197113348D01*
X58885691Y-195407141D02*
G75*
G03*
X61341880Y-193855346I366373J2139835D01*
G01*
D13*
X59226129Y-195858917D02*
G75*
G03*
X61682318Y-194307122I366373J2139835D01*
G01*
D10*
X61751580Y-199445295D02*
G75*
G03*
X64095571Y-197856048I377372J1966619D01*
G01*
X148250000Y-200540000D02*
X148250000Y-202040000D01*
X148250000Y-202040000D02*
X153650000Y-202040000D01*
X150450000Y-200790000D02*
X150450000Y-201790000D01*
X150550000Y-201290000D02*
X151450000Y-200790000D01*
X151450000Y-200790000D02*
X151450000Y-201790000D01*
X151450000Y-201790000D02*
X150550000Y-201290000D01*
X153650000Y-200540000D02*
X148250000Y-200540000D01*
X153650000Y-202040000D02*
X153650000Y-200540000D01*
X73653971Y-192657128D02*
X73152948Y-196222093D01*
X73152948Y-196222093D02*
X81273147Y-197363312D01*
X73534603Y-193650179D02*
X73221464Y-195878282D01*
D11*
X73329323Y-196044915D02*
X74567158Y-196218881D01*
D12*
X73817232Y-192932529D02*
X75097621Y-193162968D01*
D13*
X73731586Y-195697518D02*
X74079519Y-193221848D01*
D14*
X75185942Y-194690122D02*
X81820738Y-195622581D01*
D10*
X78407258Y-193325158D02*
X73653971Y-192657128D01*
D15*
X81848305Y-195929404D02*
X82160053Y-193711204D01*
D16*
X83454414Y-192620731D02*
X83203902Y-194403213D01*
D12*
X83644706Y-192344527D02*
X81218549Y-192003553D01*
D10*
X83870594Y-192174308D02*
X80870082Y-191752613D01*
X83251274Y-196581001D02*
X83870594Y-192174308D01*
D17*
X83608574Y-195116475D02*
X83518111Y-195760149D01*
D10*
X83721518Y-195031365D02*
X83523464Y-195003531D01*
X83617138Y-195774066D02*
X83721518Y-195031365D01*
X78407258Y-193325158D02*
G75*
G03*
X80863447Y-191773363I366373J2139835D01*
G01*
D13*
X78747696Y-193776934D02*
G75*
G03*
X81203885Y-192225139I366373J2139835D01*
G01*
D10*
X81273147Y-197363312D02*
G75*
G03*
X83617138Y-195774065I377372J1966619D01*
G01*
X158998525Y-207986198D02*
X158998525Y-209486198D01*
X158998525Y-209486198D02*
X164398525Y-209486198D01*
X161198525Y-208236198D02*
X161198525Y-209236198D01*
X161298525Y-208736198D02*
X162198525Y-208236198D01*
X162198525Y-208236198D02*
X162198525Y-209236198D01*
X162198525Y-209236198D02*
X161298525Y-208736198D01*
X164398525Y-207986198D02*
X158998525Y-207986198D01*
X164398525Y-209486198D02*
X164398525Y-207986198D01*
X158961525Y-197806198D02*
X158961525Y-199306198D01*
X158961525Y-199306198D02*
X164361525Y-199306198D01*
X161161525Y-198056198D02*
X161161525Y-199056198D01*
X161261525Y-198556198D02*
X162161525Y-198056198D01*
X162161525Y-198056198D02*
X162161525Y-199056198D01*
X162161525Y-199056198D02*
X161261525Y-198556198D01*
X164361525Y-197806198D02*
X158961525Y-197806198D01*
X164361525Y-199306198D02*
X164361525Y-197806198D01*
X164966525Y-177426198D02*
X164966525Y-153926198D01*
X164966525Y-153926198D02*
X160296525Y-153926198D01*
X164966525Y-153926198D02*
X146966525Y-153926198D01*
X160296525Y-153926198D02*
X160296525Y-152046198D01*
X160296525Y-152046198D02*
X151636525Y-152046198D01*
X151636525Y-153926198D02*
X151636525Y-152046198D01*
X146966525Y-177426198D02*
X164966525Y-177426198D01*
X146966525Y-153926198D02*
X151636525Y-153926198D01*
X146966525Y-153926198D02*
X146966525Y-177426198D01*
M02*
