G04 #@! TF.GenerationSoftware,KiCad,Pcbnew,7.0.1-0*
G04 #@! TF.CreationDate,2023-06-03T13:21:34+09:00*
G04 #@! TF.ProjectId,cool536lc,636f6f6c-3533-4366-9c63-2e6b69636164,rev?*
G04 #@! TF.SameCoordinates,Original*
G04 #@! TF.FileFunction,Copper,L1,Top*
G04 #@! TF.FilePolarity,Positive*
%FSLAX46Y46*%
G04 Gerber Fmt 4.6, Leading zero omitted, Abs format (unit mm)*
G04 Created by KiCad (PCBNEW 7.0.1-0) date 2023-06-03 13:21:34*
%MOMM*%
%LPD*%
G01*
G04 APERTURE LIST*
G04 #@! TA.AperFunction,ComponentPad*
%ADD10R,1.397000X1.397000*%
G04 #@! TD*
G04 #@! TA.AperFunction,SMDPad,CuDef*
%ADD11R,1.300000X0.950000*%
G04 #@! TD*
G04 #@! TA.AperFunction,ComponentPad*
%ADD12C,1.397000*%
G04 #@! TD*
G04 #@! TA.AperFunction,ComponentPad*
%ADD13C,1.524000*%
G04 #@! TD*
G04 #@! TA.AperFunction,ViaPad*
%ADD14C,0.800000*%
G04 #@! TD*
G04 #@! TA.AperFunction,Conductor*
%ADD15C,0.250000*%
G04 #@! TD*
G04 APERTURE END LIST*
D10*
X147140000Y-193590000D03*
D11*
X149175000Y-193590000D03*
X152725000Y-193590000D03*
D12*
X154760000Y-193590000D03*
D10*
X157851525Y-201206198D03*
D11*
X159886525Y-201206198D03*
X163436525Y-201206198D03*
D12*
X165471525Y-201206198D03*
D10*
X157851525Y-195906198D03*
D11*
X159886525Y-195906198D03*
X163436525Y-195906198D03*
D12*
X165471525Y-195906198D03*
D10*
X227836525Y-220296198D03*
D11*
X229871525Y-220296198D03*
X233421525Y-220296198D03*
D12*
X235456525Y-220296198D03*
D10*
X147140000Y-203940000D03*
D11*
X149175000Y-203940000D03*
X152725000Y-203940000D03*
D12*
X154760000Y-203940000D03*
D10*
X238736525Y-230576198D03*
D11*
X240771525Y-230576198D03*
X244321525Y-230576198D03*
D12*
X246356525Y-230576198D03*
D10*
X238796525Y-225406198D03*
D11*
X240831525Y-225406198D03*
X244381525Y-225406198D03*
D12*
X246416525Y-225406198D03*
D10*
X227936525Y-230796198D03*
D11*
X229971525Y-230796198D03*
X233521525Y-230796198D03*
D12*
X235556525Y-230796198D03*
D10*
X147140000Y-211273802D03*
D11*
X149175000Y-211273802D03*
X152725000Y-211273802D03*
D12*
X154760000Y-211273802D03*
D10*
X65896525Y-224836198D03*
D11*
X67931525Y-224836198D03*
X71481525Y-224836198D03*
D12*
X73516525Y-224836198D03*
D10*
X76696525Y-225016198D03*
D11*
X78731525Y-225016198D03*
X82281525Y-225016198D03*
D12*
X84316525Y-225016198D03*
X84306525Y-222576198D03*
D11*
X82271525Y-222576198D03*
X78721525Y-222576198D03*
D10*
X76686525Y-222576198D03*
X65836525Y-222456198D03*
D11*
X67871525Y-222456198D03*
X71421525Y-222456198D03*
D12*
X73456525Y-222456198D03*
D10*
X238796525Y-220106198D03*
D11*
X240831525Y-220106198D03*
X244381525Y-220106198D03*
D12*
X246416525Y-220106198D03*
D10*
X76696525Y-230316198D03*
D11*
X78731525Y-230316198D03*
X82281525Y-230316198D03*
D12*
X84316525Y-230316198D03*
D10*
X157736525Y-193436198D03*
D11*
X159771525Y-193436198D03*
X163321525Y-193436198D03*
D12*
X165356525Y-193436198D03*
D10*
X147140000Y-195990000D03*
D11*
X149175000Y-195990000D03*
X152725000Y-195990000D03*
D12*
X154760000Y-195990000D03*
D10*
X65866525Y-227566198D03*
D11*
X67901525Y-227566198D03*
X71451525Y-227566198D03*
D12*
X73486525Y-227566198D03*
D10*
X65866525Y-230216198D03*
D11*
X67901525Y-230216198D03*
X71451525Y-230216198D03*
D12*
X73486525Y-230216198D03*
D10*
X157905000Y-206150000D03*
D11*
X159940000Y-206150000D03*
X163490000Y-206150000D03*
D12*
X165525000Y-206150000D03*
D10*
X65876525Y-220176198D03*
D11*
X67911525Y-220176198D03*
X71461525Y-220176198D03*
D12*
X73496525Y-220176198D03*
D10*
X147140000Y-208620000D03*
D11*
X149175000Y-208620000D03*
X152725000Y-208620000D03*
D12*
X154760000Y-208620000D03*
D10*
X227936525Y-225496198D03*
D11*
X229971525Y-225496198D03*
X233521525Y-225496198D03*
D12*
X235556525Y-225496198D03*
D10*
X147140000Y-198640000D03*
D11*
X149175000Y-198640000D03*
X152725000Y-198640000D03*
D12*
X154760000Y-198640000D03*
D10*
X227936525Y-222846198D03*
D11*
X229971525Y-222846198D03*
X233521525Y-222846198D03*
D12*
X235556525Y-222846198D03*
D10*
X238796525Y-222756198D03*
D11*
X240831525Y-222756198D03*
X244381525Y-222756198D03*
D12*
X246416525Y-222756198D03*
D10*
X147140000Y-206550000D03*
D11*
X149175000Y-206550000D03*
X152725000Y-206550000D03*
D12*
X154760000Y-206550000D03*
D10*
X238796525Y-228056198D03*
D11*
X240831525Y-228056198D03*
X244381525Y-228056198D03*
D12*
X246416525Y-228056198D03*
D10*
X76696525Y-227666198D03*
D11*
X78731525Y-227666198D03*
X82281525Y-227666198D03*
D12*
X84316525Y-227666198D03*
D10*
X227936525Y-228146198D03*
D11*
X229971525Y-228146198D03*
X233521525Y-228146198D03*
D12*
X235556525Y-228146198D03*
D10*
X157885000Y-211100000D03*
D11*
X159920000Y-211100000D03*
X163470000Y-211100000D03*
D12*
X165505000Y-211100000D03*
D10*
X76826525Y-220326198D03*
D11*
X78861525Y-220326198D03*
X82411525Y-220326198D03*
D12*
X84446525Y-220326198D03*
D10*
X157776525Y-203746198D03*
D11*
X159811525Y-203746198D03*
X163361525Y-203746198D03*
D12*
X165396525Y-203746198D03*
D10*
X147140000Y-201290000D03*
D11*
X149175000Y-201290000D03*
X152725000Y-201290000D03*
D12*
X154760000Y-201290000D03*
D10*
X157888525Y-208736198D03*
D11*
X159923525Y-208736198D03*
X163473525Y-208736198D03*
D12*
X165508525Y-208736198D03*
D10*
X157851525Y-198556198D03*
D11*
X159886525Y-198556198D03*
X163436525Y-198556198D03*
D12*
X165471525Y-198556198D03*
D13*
X148346525Y-155516198D03*
X148346525Y-158056198D03*
X148346525Y-160596198D03*
X148346525Y-163136198D03*
X148346525Y-165676198D03*
X148346525Y-168216198D03*
X148346525Y-170756198D03*
X148346525Y-173296198D03*
X148346525Y-175836198D03*
X150886525Y-175836198D03*
X153426525Y-175836198D03*
X155966525Y-175836198D03*
X158506525Y-175836198D03*
X161046525Y-175836198D03*
X163586525Y-175836198D03*
X163586525Y-173296198D03*
X163586525Y-170756198D03*
X163586525Y-168216198D03*
X163586525Y-165676198D03*
X163586525Y-163136198D03*
X163586525Y-160596198D03*
X163586525Y-158056198D03*
X163586525Y-155516198D03*
D14*
X161530000Y-229590000D03*
X160740000Y-228240000D03*
X122470000Y-219050500D03*
X99050000Y-219000000D03*
X123710000Y-218100000D03*
X97750000Y-218270000D03*
X96020000Y-211130000D03*
X105110000Y-211070000D03*
X94790000Y-212290000D03*
X106340000Y-211140000D03*
X91910000Y-194140000D03*
X88410000Y-194080000D03*
X74450000Y-181270000D03*
X88490000Y-181190000D03*
X86670000Y-202320000D03*
X71790000Y-202320000D03*
X52480000Y-203900000D03*
X66294153Y-203970000D03*
X67060000Y-202720000D03*
X63940000Y-202720000D03*
X49560000Y-219030000D03*
X69320000Y-218020000D03*
X89530000Y-220520000D03*
X107520000Y-221400000D03*
X126160000Y-222660000D03*
X188750000Y-220050000D03*
X171750000Y-201650000D03*
X188670000Y-201560000D03*
X226610000Y-221530000D03*
X190090000Y-218920000D03*
X229270000Y-218840000D03*
X208820000Y-217840000D03*
X229311490Y-217809271D03*
X229290000Y-212660000D03*
X229290000Y-216810000D03*
X249050000Y-213870000D03*
X248980000Y-219910000D03*
X248150000Y-214700000D03*
X226050000Y-182930000D03*
X242030782Y-182808355D03*
X206120000Y-180870000D03*
X242003238Y-181809232D03*
X188150000Y-182450000D03*
X242010000Y-179690000D03*
X241980000Y-180810000D03*
X169730000Y-184410000D03*
X192750000Y-221310000D03*
X171224500Y-221300000D03*
X211470000Y-222610000D03*
X170790000Y-222690000D03*
X225830000Y-222950000D03*
X170440000Y-224230000D03*
X247530000Y-217080000D03*
X170420000Y-225880000D03*
X174860000Y-236010000D03*
X179440000Y-236110000D03*
X181910000Y-237670000D03*
X174700000Y-237740000D03*
D15*
X78731525Y-225016198D02*
X76696525Y-225016198D01*
X76696525Y-227666198D02*
X76696525Y-225016198D01*
X76686525Y-222576198D02*
X76686525Y-225006198D01*
X76686525Y-225006198D02*
X76696525Y-225016198D01*
X159940000Y-206150000D02*
X157905000Y-206150000D01*
X227836525Y-220296198D02*
X227836525Y-222746198D01*
X227836525Y-222746198D02*
X227936525Y-222846198D01*
X76826525Y-220326198D02*
X76826525Y-222436198D01*
X76826525Y-222436198D02*
X76686525Y-222576198D01*
X78721525Y-222576198D02*
X76686525Y-222576198D01*
X211893604Y-230230000D02*
X213643604Y-231980000D01*
X161530000Y-229590000D02*
X161593468Y-229526532D01*
X199573604Y-230230000D02*
X211893604Y-230230000D01*
X161593468Y-229526532D02*
X198870136Y-229526532D01*
X237332723Y-231980000D02*
X238736525Y-230576198D01*
X198870136Y-229526532D02*
X199573604Y-230230000D01*
X213643604Y-231980000D02*
X237332723Y-231980000D01*
X76430000Y-233020000D02*
X74650000Y-231240000D01*
X106721740Y-233908260D02*
X81610000Y-233908260D01*
X76430000Y-233020000D02*
X80721740Y-233020000D01*
X80721740Y-233020000D02*
X81610000Y-233908260D01*
X111040000Y-229590000D02*
X106721740Y-233908260D01*
X74650000Y-231240000D02*
X66890327Y-231240000D01*
X66890327Y-231240000D02*
X65866525Y-230216198D01*
X161530000Y-229590000D02*
X111040000Y-229590000D01*
X160740000Y-228240000D02*
X110330000Y-228240000D01*
X110330000Y-228240000D02*
X107021198Y-224931198D01*
X107021198Y-224931198D02*
X96188802Y-224931198D01*
X96188802Y-224931198D02*
X88930000Y-232190000D01*
X88930000Y-232190000D02*
X78570327Y-232190000D01*
X78570327Y-232190000D02*
X76696525Y-230316198D01*
X160740000Y-228240000D02*
X198220000Y-228240000D01*
X199528179Y-229548179D02*
X211848179Y-229548179D01*
X211848179Y-229548179D02*
X213283210Y-230983210D01*
X213283210Y-230983210D02*
X227749513Y-230983210D01*
X198220000Y-228240000D02*
X199528179Y-229548179D01*
X227749513Y-230983210D02*
X227936525Y-230796198D01*
X112760000Y-219000000D02*
X122419500Y-219000000D01*
X122419500Y-219000000D02*
X122470000Y-219050500D01*
X99050000Y-219000000D02*
X112760000Y-219000000D01*
X123540000Y-218270000D02*
X123710000Y-218100000D01*
X97750000Y-218270000D02*
X123540000Y-218270000D01*
X96020000Y-211130000D02*
X105050000Y-211130000D01*
X105050000Y-211130000D02*
X105110000Y-211070000D01*
X94790000Y-212290000D02*
X105190000Y-212290000D01*
X105190000Y-212290000D02*
X106340000Y-211140000D01*
X91850000Y-194080000D02*
X91910000Y-194140000D01*
X88410000Y-194080000D02*
X91850000Y-194080000D01*
X76696525Y-227666198D02*
X76696525Y-230316198D01*
X74530000Y-181190000D02*
X74450000Y-181270000D01*
X88490000Y-181190000D02*
X74530000Y-181190000D01*
X71790000Y-202320000D02*
X86670000Y-202320000D01*
X66294153Y-203970000D02*
X52550000Y-203970000D01*
X52550000Y-203970000D02*
X52480000Y-203900000D01*
X63940000Y-202720000D02*
X67060000Y-202720000D01*
X69360000Y-218060000D02*
X90065000Y-218060000D01*
X128976396Y-221310000D02*
X142716396Y-221310000D01*
X144270000Y-219756396D02*
X144270000Y-202280000D01*
X90065000Y-218060000D02*
X92230000Y-220225000D01*
X153600000Y-195990000D02*
X154760000Y-195990000D01*
X142716396Y-221310000D02*
X144270000Y-219756396D01*
X146283500Y-200266500D02*
X149323500Y-200266500D01*
X127891396Y-220225000D02*
X128976396Y-221310000D01*
X149323500Y-200266500D02*
X153600000Y-195990000D01*
X69320000Y-218020000D02*
X69360000Y-218060000D01*
X144270000Y-202280000D02*
X146283500Y-200266500D01*
X92230000Y-220225000D02*
X127891396Y-220225000D01*
X90251396Y-217610000D02*
X72390000Y-217610000D01*
X92830000Y-219775000D02*
X92416396Y-219775000D01*
X128077792Y-219775000D02*
X108820000Y-219775000D01*
X62130000Y-219080000D02*
X49610000Y-219080000D01*
X129162792Y-220860000D02*
X128077792Y-219775000D01*
X143820000Y-219570000D02*
X142530000Y-220860000D01*
X146393000Y-197340000D02*
X143820000Y-199913000D01*
X108820000Y-219775000D02*
X92830000Y-219775000D01*
X149600000Y-197340000D02*
X146393000Y-197340000D01*
X49610000Y-219080000D02*
X49560000Y-219030000D01*
X142530000Y-220860000D02*
X130450000Y-220860000D01*
X143820000Y-199913000D02*
X143820000Y-218130000D01*
X154760000Y-193590000D02*
X153350000Y-193590000D01*
X63915000Y-217295000D02*
X62130000Y-219080000D01*
X130450000Y-220860000D02*
X129162792Y-220860000D01*
X153350000Y-193590000D02*
X149600000Y-197340000D01*
X143820000Y-218130000D02*
X143820000Y-219570000D01*
X72075000Y-217295000D02*
X65425000Y-217295000D01*
X72390000Y-217610000D02*
X72075000Y-217295000D01*
X92416396Y-219775000D02*
X90251396Y-217610000D01*
X65425000Y-217295000D02*
X63915000Y-217295000D01*
X154760000Y-198640000D02*
X153600000Y-198640000D01*
X150250000Y-220867208D02*
X149357208Y-221760000D01*
X153600000Y-198640000D02*
X150250000Y-201990000D01*
X150250000Y-201990000D02*
X150250000Y-220867208D01*
X149357208Y-221760000D02*
X128790000Y-221760000D01*
X128790000Y-221760000D02*
X127705000Y-220675000D01*
X127705000Y-220675000D02*
X89685000Y-220675000D01*
X89685000Y-220675000D02*
X89530000Y-220520000D01*
X107520000Y-221400000D02*
X126780000Y-221400000D01*
X126780000Y-221400000D02*
X127590000Y-222210000D01*
X127590000Y-222210000D02*
X149543604Y-222210000D01*
X149543604Y-222210000D02*
X150900000Y-220853604D01*
X150900000Y-220853604D02*
X150900000Y-203990000D01*
X150900000Y-203990000D02*
X153600000Y-201290000D01*
X153600000Y-201290000D02*
X154760000Y-201290000D01*
X153560000Y-203940000D02*
X151480000Y-206020000D01*
X149730000Y-222660000D02*
X126160000Y-222660000D01*
X151480000Y-220910000D02*
X149730000Y-222660000D01*
X151480000Y-206020000D02*
X151480000Y-220910000D01*
X154760000Y-203940000D02*
X153560000Y-203940000D01*
X171840000Y-201560000D02*
X171750000Y-201650000D01*
X193220000Y-220070000D02*
X188770000Y-220070000D01*
X188770000Y-220070000D02*
X188750000Y-220050000D01*
X194680000Y-221530000D02*
X193220000Y-220070000D01*
X188670000Y-201560000D02*
X171840000Y-201560000D01*
X226610000Y-221530000D02*
X194680000Y-221530000D01*
X190170000Y-218840000D02*
X190090000Y-218920000D01*
X229270000Y-218840000D02*
X190170000Y-218840000D01*
X208850729Y-217809271D02*
X208820000Y-217840000D01*
X229311490Y-217809271D02*
X208850729Y-217809271D01*
X229290000Y-216810000D02*
X229290000Y-212660000D01*
X248980000Y-213940000D02*
X249050000Y-213870000D01*
X248980000Y-219910000D02*
X248980000Y-213940000D01*
X67911525Y-220176198D02*
X65876525Y-220176198D01*
X73496525Y-220176198D02*
X71461525Y-220176198D01*
X71421525Y-222456198D02*
X73456525Y-222456198D01*
X65836525Y-222456198D02*
X67871525Y-222456198D01*
X67931525Y-224836198D02*
X65896525Y-224836198D01*
X73516525Y-224836198D02*
X71481525Y-224836198D01*
X71451525Y-227566198D02*
X73486525Y-227566198D01*
X65866525Y-227566198D02*
X67901525Y-227566198D01*
X67901525Y-230216198D02*
X65866525Y-230216198D01*
X73486525Y-230216198D02*
X71451525Y-230216198D01*
X78731525Y-230316198D02*
X76696525Y-230316198D01*
X84316525Y-230316198D02*
X82281525Y-230316198D01*
X82281525Y-227666198D02*
X84316525Y-227666198D01*
X76696525Y-227666198D02*
X78731525Y-227666198D01*
X84316525Y-225016198D02*
X82281525Y-225016198D01*
X82271525Y-222576198D02*
X84306525Y-222576198D01*
X78861525Y-220326198D02*
X76826525Y-220326198D01*
X84446525Y-220326198D02*
X82411525Y-220326198D01*
X159771525Y-193436198D02*
X157736525Y-193436198D01*
X165356525Y-193436198D02*
X163321525Y-193436198D01*
X163436525Y-195906198D02*
X165471525Y-195906198D01*
X157851525Y-195906198D02*
X159886525Y-195906198D01*
X159886525Y-198556198D02*
X157851525Y-198556198D01*
X165471525Y-198556198D02*
X163436525Y-198556198D01*
X163436525Y-201206198D02*
X165471525Y-201206198D01*
X157851525Y-201206198D02*
X159886525Y-201206198D01*
X159811525Y-203746198D02*
X157776525Y-203746198D01*
X165396525Y-203746198D02*
X163361525Y-203746198D01*
X163490000Y-206150000D02*
X165525000Y-206150000D01*
X159923525Y-208736198D02*
X157888525Y-208736198D01*
X165508525Y-208736198D02*
X163473525Y-208736198D01*
X163470000Y-211100000D02*
X165505000Y-211100000D01*
X157885000Y-211100000D02*
X159920000Y-211100000D01*
X149175000Y-211273802D02*
X147140000Y-211273802D01*
X154760000Y-211273802D02*
X152725000Y-211273802D01*
X152725000Y-208620000D02*
X154760000Y-208620000D01*
X147140000Y-208620000D02*
X149175000Y-208620000D01*
X149175000Y-206550000D02*
X147140000Y-206550000D01*
X154760000Y-206550000D02*
X152725000Y-206550000D01*
X152725000Y-203940000D02*
X154760000Y-203940000D01*
X147140000Y-203940000D02*
X149175000Y-203940000D01*
X149175000Y-201290000D02*
X147140000Y-201290000D01*
X154760000Y-201290000D02*
X152725000Y-201290000D01*
X152725000Y-198640000D02*
X154760000Y-198640000D01*
X147140000Y-198640000D02*
X149175000Y-198640000D01*
X149175000Y-195990000D02*
X147140000Y-195990000D01*
X154760000Y-195990000D02*
X152725000Y-195990000D01*
X152725000Y-193590000D02*
X154760000Y-193590000D01*
X147140000Y-193590000D02*
X149175000Y-193590000D01*
X229971525Y-230796198D02*
X227936525Y-230796198D01*
X235556525Y-230796198D02*
X233521525Y-230796198D01*
X233521525Y-228146198D02*
X235556525Y-228146198D01*
X227936525Y-228146198D02*
X229971525Y-228146198D01*
X229971525Y-225496198D02*
X227936525Y-225496198D01*
X235556525Y-225496198D02*
X233521525Y-225496198D01*
X233521525Y-222846198D02*
X235556525Y-222846198D01*
X227936525Y-222846198D02*
X229971525Y-222846198D01*
X229871525Y-220296198D02*
X227836525Y-220296198D01*
X235456525Y-220296198D02*
X233421525Y-220296198D01*
X240831525Y-220106198D02*
X238796525Y-220106198D01*
X246416525Y-220106198D02*
X244381525Y-220106198D01*
X244381525Y-222756198D02*
X246416525Y-222756198D01*
X238796525Y-222756198D02*
X240831525Y-222756198D01*
X240831525Y-225406198D02*
X238796525Y-225406198D01*
X246416525Y-225406198D02*
X244381525Y-225406198D01*
X244381525Y-228056198D02*
X246416525Y-228056198D01*
X238796525Y-228056198D02*
X240831525Y-228056198D01*
X240771525Y-230576198D02*
X238736525Y-230576198D01*
X246356525Y-230576198D02*
X244321525Y-230576198D01*
X248150000Y-214700000D02*
X248255000Y-214805000D01*
X247440025Y-222332250D02*
X247440025Y-229492698D01*
X247440025Y-229492698D02*
X246356525Y-230576198D01*
X248255000Y-214805000D02*
X248255000Y-220941327D01*
X248255000Y-220941327D02*
X247424724Y-221771603D01*
X247424724Y-222316949D02*
X247440025Y-222332250D01*
X247424724Y-221771603D02*
X247424724Y-222316949D01*
X226171645Y-182808355D02*
X226050000Y-182930000D01*
X242030782Y-182808355D02*
X226171645Y-182808355D01*
X206930000Y-180060000D02*
X206120000Y-180870000D01*
X241953927Y-181809232D02*
X240220000Y-180075305D01*
X240204695Y-180060000D02*
X206930000Y-180060000D01*
X240220000Y-180075305D02*
X240204695Y-180060000D01*
X242003238Y-181809232D02*
X241953927Y-181809232D01*
X241980000Y-180810000D02*
X240780000Y-179610000D01*
X240780000Y-179610000D02*
X198790000Y-179610000D01*
X193990000Y-184410000D02*
X169730000Y-184410000D01*
X198790000Y-179610000D02*
X193990000Y-184410000D01*
X241480000Y-179160000D02*
X198060000Y-179160000D01*
X242010000Y-179690000D02*
X241480000Y-179160000D01*
X198060000Y-179160000D02*
X194770000Y-182450000D01*
X194770000Y-182450000D02*
X188150000Y-182450000D01*
X192740000Y-221300000D02*
X192750000Y-221310000D01*
X171224500Y-221300000D02*
X192740000Y-221300000D01*
X211390000Y-222690000D02*
X211470000Y-222610000D01*
X170790000Y-222690000D02*
X211390000Y-222690000D01*
X170440000Y-224230000D02*
X170650000Y-224020000D01*
X170650000Y-224020000D02*
X224760000Y-224020000D01*
X224760000Y-224020000D02*
X225830000Y-222950000D01*
X235377473Y-224472698D02*
X237770000Y-222080171D01*
X237770000Y-219210000D02*
X239900000Y-217080000D01*
X171827302Y-224472698D02*
X235377473Y-224472698D01*
X237770000Y-222080171D02*
X237770000Y-219210000D01*
X170420000Y-225880000D02*
X171827302Y-224472698D01*
X239900000Y-217080000D02*
X247530000Y-217080000D01*
X174960000Y-236110000D02*
X174860000Y-236010000D01*
X179440000Y-236110000D02*
X174960000Y-236110000D01*
X181840000Y-237740000D02*
X181910000Y-237670000D01*
X174700000Y-237740000D02*
X181840000Y-237740000D01*
M02*
