G04 #@! TF.GenerationSoftware,KiCad,Pcbnew,7.0.1-0*
G04 #@! TF.CreationDate,2023-06-03T13:21:34+09:00*
G04 #@! TF.ProjectId,cool536lc,636f6f6c-3533-4366-9c63-2e6b69636164,rev?*
G04 #@! TF.SameCoordinates,Original*
G04 #@! TF.FileFunction,Legend,Top*
G04 #@! TF.FilePolarity,Positive*
%FSLAX46Y46*%
G04 Gerber Fmt 4.6, Leading zero omitted, Abs format (unit mm)*
G04 Created by KiCad (PCBNEW 7.0.1-0) date 2023-06-03 13:21:34*
%MOMM*%
%LPD*%
G01*
G04 APERTURE LIST*
%ADD10C,0.150000*%
%ADD11R,1.397000X1.397000*%
%ADD12C,1.397000*%
G04 APERTURE END LIST*
D10*
X148250000Y-192840000D02*
X148250000Y-194340000D01*
X148250000Y-194340000D02*
X153650000Y-194340000D01*
X150450000Y-193090000D02*
X150450000Y-194090000D01*
X150550000Y-193590000D02*
X151450000Y-193090000D01*
X151450000Y-193090000D02*
X151450000Y-194090000D01*
X151450000Y-194090000D02*
X150550000Y-193590000D01*
X153650000Y-192840000D02*
X148250000Y-192840000D01*
X153650000Y-194340000D02*
X153650000Y-192840000D01*
X158961525Y-200456198D02*
X158961525Y-201956198D01*
X158961525Y-201956198D02*
X164361525Y-201956198D01*
X161161525Y-200706198D02*
X161161525Y-201706198D01*
X161261525Y-201206198D02*
X162161525Y-200706198D01*
X162161525Y-200706198D02*
X162161525Y-201706198D01*
X162161525Y-201706198D02*
X161261525Y-201206198D01*
X164361525Y-200456198D02*
X158961525Y-200456198D01*
X164361525Y-201956198D02*
X164361525Y-200456198D01*
X158961525Y-195156198D02*
X158961525Y-196656198D01*
X158961525Y-196656198D02*
X164361525Y-196656198D01*
X161161525Y-195406198D02*
X161161525Y-196406198D01*
X161261525Y-195906198D02*
X162161525Y-195406198D01*
X162161525Y-195406198D02*
X162161525Y-196406198D01*
X162161525Y-196406198D02*
X161261525Y-195906198D01*
X164361525Y-195156198D02*
X158961525Y-195156198D01*
X164361525Y-196656198D02*
X164361525Y-195156198D01*
X228946525Y-219546198D02*
X228946525Y-221046198D01*
X228946525Y-221046198D02*
X234346525Y-221046198D01*
X231146525Y-219796198D02*
X231146525Y-220796198D01*
X231246525Y-220296198D02*
X232146525Y-219796198D01*
X232146525Y-219796198D02*
X232146525Y-220796198D01*
X232146525Y-220796198D02*
X231246525Y-220296198D01*
X234346525Y-219546198D02*
X228946525Y-219546198D01*
X234346525Y-221046198D02*
X234346525Y-219546198D01*
X148250000Y-203190000D02*
X148250000Y-204690000D01*
X148250000Y-204690000D02*
X153650000Y-204690000D01*
X150450000Y-203440000D02*
X150450000Y-204440000D01*
X150550000Y-203940000D02*
X151450000Y-203440000D01*
X151450000Y-203440000D02*
X151450000Y-204440000D01*
X151450000Y-204440000D02*
X150550000Y-203940000D01*
X153650000Y-203190000D02*
X148250000Y-203190000D01*
X153650000Y-204690000D02*
X153650000Y-203190000D01*
X239846525Y-229826198D02*
X239846525Y-231326198D01*
X239846525Y-231326198D02*
X245246525Y-231326198D01*
X242046525Y-230076198D02*
X242046525Y-231076198D01*
X242146525Y-230576198D02*
X243046525Y-230076198D01*
X243046525Y-230076198D02*
X243046525Y-231076198D01*
X243046525Y-231076198D02*
X242146525Y-230576198D01*
X245246525Y-229826198D02*
X239846525Y-229826198D01*
X245246525Y-231326198D02*
X245246525Y-229826198D01*
X239906525Y-224656198D02*
X239906525Y-226156198D01*
X239906525Y-226156198D02*
X245306525Y-226156198D01*
X242106525Y-224906198D02*
X242106525Y-225906198D01*
X242206525Y-225406198D02*
X243106525Y-224906198D01*
X243106525Y-224906198D02*
X243106525Y-225906198D01*
X243106525Y-225906198D02*
X242206525Y-225406198D01*
X245306525Y-224656198D02*
X239906525Y-224656198D01*
X245306525Y-226156198D02*
X245306525Y-224656198D01*
X229046525Y-230046198D02*
X229046525Y-231546198D01*
X229046525Y-231546198D02*
X234446525Y-231546198D01*
X231246525Y-230296198D02*
X231246525Y-231296198D01*
X231346525Y-230796198D02*
X232246525Y-230296198D01*
X232246525Y-230296198D02*
X232246525Y-231296198D01*
X232246525Y-231296198D02*
X231346525Y-230796198D01*
X234446525Y-230046198D02*
X229046525Y-230046198D01*
X234446525Y-231546198D02*
X234446525Y-230046198D01*
X148250000Y-210523802D02*
X148250000Y-212023802D01*
X148250000Y-212023802D02*
X153650000Y-212023802D01*
X150450000Y-210773802D02*
X150450000Y-211773802D01*
X150550000Y-211273802D02*
X151450000Y-210773802D01*
X151450000Y-210773802D02*
X151450000Y-211773802D01*
X151450000Y-211773802D02*
X150550000Y-211273802D01*
X153650000Y-210523802D02*
X148250000Y-210523802D01*
X153650000Y-212023802D02*
X153650000Y-210523802D01*
X67006525Y-224086198D02*
X67006525Y-225586198D01*
X67006525Y-225586198D02*
X72406525Y-225586198D01*
X69206525Y-224336198D02*
X69206525Y-225336198D01*
X69306525Y-224836198D02*
X70206525Y-224336198D01*
X70206525Y-224336198D02*
X70206525Y-225336198D01*
X70206525Y-225336198D02*
X69306525Y-224836198D01*
X72406525Y-224086198D02*
X67006525Y-224086198D01*
X72406525Y-225586198D02*
X72406525Y-224086198D01*
X77806525Y-224266198D02*
X77806525Y-225766198D01*
X77806525Y-225766198D02*
X83206525Y-225766198D01*
X80006525Y-224516198D02*
X80006525Y-225516198D01*
X80106525Y-225016198D02*
X81006525Y-224516198D01*
X81006525Y-224516198D02*
X81006525Y-225516198D01*
X81006525Y-225516198D02*
X80106525Y-225016198D01*
X83206525Y-224266198D02*
X77806525Y-224266198D01*
X83206525Y-225766198D02*
X83206525Y-224266198D01*
X83196525Y-223326198D02*
X83196525Y-221826198D01*
X83196525Y-221826198D02*
X77796525Y-221826198D01*
X80996525Y-223076198D02*
X80096525Y-222576198D01*
X80996525Y-222076198D02*
X80996525Y-223076198D01*
X80096525Y-222576198D02*
X80996525Y-222076198D01*
X79996525Y-222076198D02*
X79996525Y-223076198D01*
X77796525Y-223326198D02*
X83196525Y-223326198D01*
X77796525Y-221826198D02*
X77796525Y-223326198D01*
X66946525Y-221706198D02*
X66946525Y-223206198D01*
X66946525Y-223206198D02*
X72346525Y-223206198D01*
X69146525Y-221956198D02*
X69146525Y-222956198D01*
X69246525Y-222456198D02*
X70146525Y-221956198D01*
X70146525Y-221956198D02*
X70146525Y-222956198D01*
X70146525Y-222956198D02*
X69246525Y-222456198D01*
X72346525Y-221706198D02*
X66946525Y-221706198D01*
X72346525Y-223206198D02*
X72346525Y-221706198D01*
X239906525Y-219356198D02*
X239906525Y-220856198D01*
X239906525Y-220856198D02*
X245306525Y-220856198D01*
X242106525Y-219606198D02*
X242106525Y-220606198D01*
X242206525Y-220106198D02*
X243106525Y-219606198D01*
X243106525Y-219606198D02*
X243106525Y-220606198D01*
X243106525Y-220606198D02*
X242206525Y-220106198D01*
X245306525Y-219356198D02*
X239906525Y-219356198D01*
X245306525Y-220856198D02*
X245306525Y-219356198D01*
X77806525Y-229566198D02*
X77806525Y-231066198D01*
X77806525Y-231066198D02*
X83206525Y-231066198D01*
X80006525Y-229816198D02*
X80006525Y-230816198D01*
X80106525Y-230316198D02*
X81006525Y-229816198D01*
X81006525Y-229816198D02*
X81006525Y-230816198D01*
X81006525Y-230816198D02*
X80106525Y-230316198D01*
X83206525Y-229566198D02*
X77806525Y-229566198D01*
X83206525Y-231066198D02*
X83206525Y-229566198D01*
X158846525Y-192686198D02*
X158846525Y-194186198D01*
X158846525Y-194186198D02*
X164246525Y-194186198D01*
X161046525Y-192936198D02*
X161046525Y-193936198D01*
X161146525Y-193436198D02*
X162046525Y-192936198D01*
X162046525Y-192936198D02*
X162046525Y-193936198D01*
X162046525Y-193936198D02*
X161146525Y-193436198D01*
X164246525Y-192686198D02*
X158846525Y-192686198D01*
X164246525Y-194186198D02*
X164246525Y-192686198D01*
X148250000Y-195240000D02*
X148250000Y-196740000D01*
X148250000Y-196740000D02*
X153650000Y-196740000D01*
X150450000Y-195490000D02*
X150450000Y-196490000D01*
X150550000Y-195990000D02*
X151450000Y-195490000D01*
X151450000Y-195490000D02*
X151450000Y-196490000D01*
X151450000Y-196490000D02*
X150550000Y-195990000D01*
X153650000Y-195240000D02*
X148250000Y-195240000D01*
X153650000Y-196740000D02*
X153650000Y-195240000D01*
X66976525Y-226816198D02*
X66976525Y-228316198D01*
X66976525Y-228316198D02*
X72376525Y-228316198D01*
X69176525Y-227066198D02*
X69176525Y-228066198D01*
X69276525Y-227566198D02*
X70176525Y-227066198D01*
X70176525Y-227066198D02*
X70176525Y-228066198D01*
X70176525Y-228066198D02*
X69276525Y-227566198D01*
X72376525Y-226816198D02*
X66976525Y-226816198D01*
X72376525Y-228316198D02*
X72376525Y-226816198D01*
X66976525Y-229466198D02*
X66976525Y-230966198D01*
X66976525Y-230966198D02*
X72376525Y-230966198D01*
X69176525Y-229716198D02*
X69176525Y-230716198D01*
X69276525Y-230216198D02*
X70176525Y-229716198D01*
X70176525Y-229716198D02*
X70176525Y-230716198D01*
X70176525Y-230716198D02*
X69276525Y-230216198D01*
X72376525Y-229466198D02*
X66976525Y-229466198D01*
X72376525Y-230966198D02*
X72376525Y-229466198D01*
X159015000Y-205400000D02*
X159015000Y-206900000D01*
X159015000Y-206900000D02*
X164415000Y-206900000D01*
X161215000Y-205650000D02*
X161215000Y-206650000D01*
X161315000Y-206150000D02*
X162215000Y-205650000D01*
X162215000Y-205650000D02*
X162215000Y-206650000D01*
X162215000Y-206650000D02*
X161315000Y-206150000D01*
X164415000Y-205400000D02*
X159015000Y-205400000D01*
X164415000Y-206900000D02*
X164415000Y-205400000D01*
X66986525Y-219426198D02*
X66986525Y-220926198D01*
X66986525Y-220926198D02*
X72386525Y-220926198D01*
X69186525Y-219676198D02*
X69186525Y-220676198D01*
X69286525Y-220176198D02*
X70186525Y-219676198D01*
X70186525Y-219676198D02*
X70186525Y-220676198D01*
X70186525Y-220676198D02*
X69286525Y-220176198D01*
X72386525Y-219426198D02*
X66986525Y-219426198D01*
X72386525Y-220926198D02*
X72386525Y-219426198D01*
X148250000Y-207870000D02*
X148250000Y-209370000D01*
X148250000Y-209370000D02*
X153650000Y-209370000D01*
X150450000Y-208120000D02*
X150450000Y-209120000D01*
X150550000Y-208620000D02*
X151450000Y-208120000D01*
X151450000Y-208120000D02*
X151450000Y-209120000D01*
X151450000Y-209120000D02*
X150550000Y-208620000D01*
X153650000Y-207870000D02*
X148250000Y-207870000D01*
X153650000Y-209370000D02*
X153650000Y-207870000D01*
X229046525Y-224746198D02*
X229046525Y-226246198D01*
X229046525Y-226246198D02*
X234446525Y-226246198D01*
X231246525Y-224996198D02*
X231246525Y-225996198D01*
X231346525Y-225496198D02*
X232246525Y-224996198D01*
X232246525Y-224996198D02*
X232246525Y-225996198D01*
X232246525Y-225996198D02*
X231346525Y-225496198D01*
X234446525Y-224746198D02*
X229046525Y-224746198D01*
X234446525Y-226246198D02*
X234446525Y-224746198D01*
X148250000Y-197890000D02*
X148250000Y-199390000D01*
X148250000Y-199390000D02*
X153650000Y-199390000D01*
X150450000Y-198140000D02*
X150450000Y-199140000D01*
X150550000Y-198640000D02*
X151450000Y-198140000D01*
X151450000Y-198140000D02*
X151450000Y-199140000D01*
X151450000Y-199140000D02*
X150550000Y-198640000D01*
X153650000Y-197890000D02*
X148250000Y-197890000D01*
X153650000Y-199390000D02*
X153650000Y-197890000D01*
X229046525Y-222096198D02*
X229046525Y-223596198D01*
X229046525Y-223596198D02*
X234446525Y-223596198D01*
X231246525Y-222346198D02*
X231246525Y-223346198D01*
X231346525Y-222846198D02*
X232246525Y-222346198D01*
X232246525Y-222346198D02*
X232246525Y-223346198D01*
X232246525Y-223346198D02*
X231346525Y-222846198D01*
X234446525Y-222096198D02*
X229046525Y-222096198D01*
X234446525Y-223596198D02*
X234446525Y-222096198D01*
X239906525Y-222006198D02*
X239906525Y-223506198D01*
X239906525Y-223506198D02*
X245306525Y-223506198D01*
X242106525Y-222256198D02*
X242106525Y-223256198D01*
X242206525Y-222756198D02*
X243106525Y-222256198D01*
X243106525Y-222256198D02*
X243106525Y-223256198D01*
X243106525Y-223256198D02*
X242206525Y-222756198D01*
X245306525Y-222006198D02*
X239906525Y-222006198D01*
X245306525Y-223506198D02*
X245306525Y-222006198D01*
X148250000Y-205800000D02*
X148250000Y-207300000D01*
X148250000Y-207300000D02*
X153650000Y-207300000D01*
X150450000Y-206050000D02*
X150450000Y-207050000D01*
X150550000Y-206550000D02*
X151450000Y-206050000D01*
X151450000Y-206050000D02*
X151450000Y-207050000D01*
X151450000Y-207050000D02*
X150550000Y-206550000D01*
X153650000Y-205800000D02*
X148250000Y-205800000D01*
X153650000Y-207300000D02*
X153650000Y-205800000D01*
X239906525Y-227306198D02*
X239906525Y-228806198D01*
X239906525Y-228806198D02*
X245306525Y-228806198D01*
X242106525Y-227556198D02*
X242106525Y-228556198D01*
X242206525Y-228056198D02*
X243106525Y-227556198D01*
X243106525Y-227556198D02*
X243106525Y-228556198D01*
X243106525Y-228556198D02*
X242206525Y-228056198D01*
X245306525Y-227306198D02*
X239906525Y-227306198D01*
X245306525Y-228806198D02*
X245306525Y-227306198D01*
X77806525Y-226916198D02*
X77806525Y-228416198D01*
X77806525Y-228416198D02*
X83206525Y-228416198D01*
X80006525Y-227166198D02*
X80006525Y-228166198D01*
X80106525Y-227666198D02*
X81006525Y-227166198D01*
X81006525Y-227166198D02*
X81006525Y-228166198D01*
X81006525Y-228166198D02*
X80106525Y-227666198D01*
X83206525Y-226916198D02*
X77806525Y-226916198D01*
X83206525Y-228416198D02*
X83206525Y-226916198D01*
X229046525Y-227396198D02*
X229046525Y-228896198D01*
X229046525Y-228896198D02*
X234446525Y-228896198D01*
X231246525Y-227646198D02*
X231246525Y-228646198D01*
X231346525Y-228146198D02*
X232246525Y-227646198D01*
X232246525Y-227646198D02*
X232246525Y-228646198D01*
X232246525Y-228646198D02*
X231346525Y-228146198D01*
X234446525Y-227396198D02*
X229046525Y-227396198D01*
X234446525Y-228896198D02*
X234446525Y-227396198D01*
X158995000Y-210350000D02*
X158995000Y-211850000D01*
X158995000Y-211850000D02*
X164395000Y-211850000D01*
X161195000Y-210600000D02*
X161195000Y-211600000D01*
X161295000Y-211100000D02*
X162195000Y-210600000D01*
X162195000Y-210600000D02*
X162195000Y-211600000D01*
X162195000Y-211600000D02*
X161295000Y-211100000D01*
X164395000Y-210350000D02*
X158995000Y-210350000D01*
X164395000Y-211850000D02*
X164395000Y-210350000D01*
X77936525Y-219576198D02*
X77936525Y-221076198D01*
X77936525Y-221076198D02*
X83336525Y-221076198D01*
X80136525Y-219826198D02*
X80136525Y-220826198D01*
X80236525Y-220326198D02*
X81136525Y-219826198D01*
X81136525Y-219826198D02*
X81136525Y-220826198D01*
X81136525Y-220826198D02*
X80236525Y-220326198D01*
X83336525Y-219576198D02*
X77936525Y-219576198D01*
X83336525Y-221076198D02*
X83336525Y-219576198D01*
X158886525Y-202996198D02*
X158886525Y-204496198D01*
X158886525Y-204496198D02*
X164286525Y-204496198D01*
X161086525Y-203246198D02*
X161086525Y-204246198D01*
X161186525Y-203746198D02*
X162086525Y-203246198D01*
X162086525Y-203246198D02*
X162086525Y-204246198D01*
X162086525Y-204246198D02*
X161186525Y-203746198D01*
X164286525Y-202996198D02*
X158886525Y-202996198D01*
X164286525Y-204496198D02*
X164286525Y-202996198D01*
X148250000Y-200540000D02*
X148250000Y-202040000D01*
X148250000Y-202040000D02*
X153650000Y-202040000D01*
X150450000Y-200790000D02*
X150450000Y-201790000D01*
X150550000Y-201290000D02*
X151450000Y-200790000D01*
X151450000Y-200790000D02*
X151450000Y-201790000D01*
X151450000Y-201790000D02*
X150550000Y-201290000D01*
X153650000Y-200540000D02*
X148250000Y-200540000D01*
X153650000Y-202040000D02*
X153650000Y-200540000D01*
X158998525Y-207986198D02*
X158998525Y-209486198D01*
X158998525Y-209486198D02*
X164398525Y-209486198D01*
X161198525Y-208236198D02*
X161198525Y-209236198D01*
X161298525Y-208736198D02*
X162198525Y-208236198D01*
X162198525Y-208236198D02*
X162198525Y-209236198D01*
X162198525Y-209236198D02*
X161298525Y-208736198D01*
X164398525Y-207986198D02*
X158998525Y-207986198D01*
X164398525Y-209486198D02*
X164398525Y-207986198D01*
X158961525Y-197806198D02*
X158961525Y-199306198D01*
X158961525Y-199306198D02*
X164361525Y-199306198D01*
X161161525Y-198056198D02*
X161161525Y-199056198D01*
X161261525Y-198556198D02*
X162161525Y-198056198D01*
X162161525Y-198056198D02*
X162161525Y-199056198D01*
X162161525Y-199056198D02*
X161261525Y-198556198D01*
X164361525Y-197806198D02*
X158961525Y-197806198D01*
X164361525Y-199306198D02*
X164361525Y-197806198D01*
D11*
X147140000Y-193590000D03*
D12*
X154760000Y-193590000D03*
D11*
X157851525Y-201206198D03*
D12*
X165471525Y-201206198D03*
D11*
X157851525Y-195906198D03*
D12*
X165471525Y-195906198D03*
D11*
X227836525Y-220296198D03*
D12*
X235456525Y-220296198D03*
D11*
X147140000Y-203940000D03*
D12*
X154760000Y-203940000D03*
D11*
X238736525Y-230576198D03*
D12*
X246356525Y-230576198D03*
D11*
X238796525Y-225406198D03*
D12*
X246416525Y-225406198D03*
D11*
X227936525Y-230796198D03*
D12*
X235556525Y-230796198D03*
D11*
X147140000Y-211273802D03*
D12*
X154760000Y-211273802D03*
D11*
X65896525Y-224836198D03*
D12*
X73516525Y-224836198D03*
D11*
X76696525Y-225016198D03*
D12*
X84316525Y-225016198D03*
X84306525Y-222576198D03*
D11*
X76686525Y-222576198D03*
X65836525Y-222456198D03*
D12*
X73456525Y-222456198D03*
D11*
X238796525Y-220106198D03*
D12*
X246416525Y-220106198D03*
D11*
X76696525Y-230316198D03*
D12*
X84316525Y-230316198D03*
D11*
X157736525Y-193436198D03*
D12*
X165356525Y-193436198D03*
D11*
X147140000Y-195990000D03*
D12*
X154760000Y-195990000D03*
D11*
X65866525Y-227566198D03*
D12*
X73486525Y-227566198D03*
D11*
X65866525Y-230216198D03*
D12*
X73486525Y-230216198D03*
D11*
X157905000Y-206150000D03*
D12*
X165525000Y-206150000D03*
D11*
X65876525Y-220176198D03*
D12*
X73496525Y-220176198D03*
D11*
X147140000Y-208620000D03*
D12*
X154760000Y-208620000D03*
D11*
X227936525Y-225496198D03*
D12*
X235556525Y-225496198D03*
D11*
X147140000Y-198640000D03*
D12*
X154760000Y-198640000D03*
D11*
X227936525Y-222846198D03*
D12*
X235556525Y-222846198D03*
D11*
X238796525Y-222756198D03*
D12*
X246416525Y-222756198D03*
D11*
X147140000Y-206550000D03*
D12*
X154760000Y-206550000D03*
D11*
X238796525Y-228056198D03*
D12*
X246416525Y-228056198D03*
D11*
X76696525Y-227666198D03*
D12*
X84316525Y-227666198D03*
D11*
X227936525Y-228146198D03*
D12*
X235556525Y-228146198D03*
D11*
X157885000Y-211100000D03*
D12*
X165505000Y-211100000D03*
D11*
X76826525Y-220326198D03*
D12*
X84446525Y-220326198D03*
D11*
X157776525Y-203746198D03*
D12*
X165396525Y-203746198D03*
D11*
X147140000Y-201290000D03*
D12*
X154760000Y-201290000D03*
D11*
X157888525Y-208736198D03*
D12*
X165508525Y-208736198D03*
D11*
X157851525Y-198556198D03*
D12*
X165471525Y-198556198D03*
M02*
