G04 #@! TF.GenerationSoftware,KiCad,Pcbnew,7.0.1-0*
G04 #@! TF.CreationDate,2023-06-03T13:21:34+09:00*
G04 #@! TF.ProjectId,cool536lc,636f6f6c-3533-4366-9c63-2e6b69636164,rev?*
G04 #@! TF.SameCoordinates,Original*
G04 #@! TF.FileFunction,Soldermask,Bot*
G04 #@! TF.FilePolarity,Negative*
%FSLAX46Y46*%
G04 Gerber Fmt 4.6, Leading zero omitted, Abs format (unit mm)*
G04 Created by KiCad (PCBNEW 7.0.1-0) date 2023-06-03 13:21:34*
%MOMM*%
%LPD*%
G01*
G04 APERTURE LIST*
G04 Aperture macros list*
%AMRoundRect*
0 Rectangle with rounded corners*
0 $1 Rounding radius*
0 $2 $3 $4 $5 $6 $7 $8 $9 X,Y pos of 4 corners*
0 Add a 4 corners polygon primitive as box body*
4,1,4,$2,$3,$4,$5,$6,$7,$8,$9,$2,$3,0*
0 Add four circle primitives for the rounded corners*
1,1,$1+$1,$2,$3*
1,1,$1+$1,$4,$5*
1,1,$1+$1,$6,$7*
1,1,$1+$1,$8,$9*
0 Add four rect primitives between the rounded corners*
20,1,$1+$1,$2,$3,$4,$5,0*
20,1,$1+$1,$4,$5,$6,$7,0*
20,1,$1+$1,$6,$7,$8,$9,0*
20,1,$1+$1,$8,$9,$2,$3,0*%
G04 Aperture macros list end*
%ADD10C,0.300000*%
%ADD11RoundRect,0.051000X-0.698500X-0.698500X0.698500X-0.698500X0.698500X0.698500X-0.698500X0.698500X0*%
%ADD12RoundRect,0.051000X-0.650000X-0.475000X0.650000X-0.475000X0.650000X0.475000X-0.650000X0.475000X0*%
%ADD13C,1.499000*%
%ADD14C,2.002000*%
%ADD15C,3.102000*%
%ADD16C,4.202000*%
%ADD17RoundRect,0.051000X-1.088625X-1.415281X1.436558X-1.060389X1.088625X1.415281X-1.436558X1.060389X0*%
%ADD18RoundRect,0.051000X-1.436558X-1.060389X1.088625X-1.415281X1.436558X1.060389X-1.088625X1.415281X0*%
%ADD19RoundRect,0.051000X-1.774291X-0.200045X0.235137X-1.769982X1.774291X0.200045X-0.235137X1.769982X0*%
%ADD20RoundRect,0.051000X-0.685230X-1.648813X1.662058X-0.652449X0.685230X1.648813X-1.662058X0.652449X0*%
%ADD21RoundRect,0.051000X-0.235137X-1.769982X1.774291X-0.200045X0.235137X1.769982X-1.774291X0.200045X0*%
%ADD22RoundRect,0.051000X-1.662058X-0.652449X0.685230X-1.648813X1.662058X0.652449X-0.685230X1.648813X0*%
%ADD23C,1.626000*%
%ADD24RoundRect,0.051000X1.000000X0.600000X-1.000000X0.600000X-1.000000X-0.600000X1.000000X-0.600000X0*%
%ADD25RoundRect,0.051000X0.600000X-1.000000X0.600000X1.000000X-0.600000X1.000000X-0.600000X-1.000000X0*%
G04 APERTURE END LIST*
D10*
X166390000Y-222605000D02*
X166532857Y-222676428D01*
X166532857Y-222676428D02*
X166818571Y-222676428D01*
X166818571Y-222676428D02*
X166961428Y-222605000D01*
X166961428Y-222605000D02*
X167032857Y-222533571D01*
X167032857Y-222533571D02*
X167104285Y-222390714D01*
X167104285Y-222390714D02*
X167104285Y-221962142D01*
X167104285Y-221962142D02*
X167032857Y-221819285D01*
X167032857Y-221819285D02*
X166961428Y-221747857D01*
X166961428Y-221747857D02*
X166818571Y-221676428D01*
X166818571Y-221676428D02*
X166532857Y-221676428D01*
X166532857Y-221676428D02*
X166390000Y-221747857D01*
X165532857Y-222676428D02*
X165675714Y-222605000D01*
X165675714Y-222605000D02*
X165747143Y-222533571D01*
X165747143Y-222533571D02*
X165818571Y-222390714D01*
X165818571Y-222390714D02*
X165818571Y-221962142D01*
X165818571Y-221962142D02*
X165747143Y-221819285D01*
X165747143Y-221819285D02*
X165675714Y-221747857D01*
X165675714Y-221747857D02*
X165532857Y-221676428D01*
X165532857Y-221676428D02*
X165318571Y-221676428D01*
X165318571Y-221676428D02*
X165175714Y-221747857D01*
X165175714Y-221747857D02*
X165104286Y-221819285D01*
X165104286Y-221819285D02*
X165032857Y-221962142D01*
X165032857Y-221962142D02*
X165032857Y-222390714D01*
X165032857Y-222390714D02*
X165104286Y-222533571D01*
X165104286Y-222533571D02*
X165175714Y-222605000D01*
X165175714Y-222605000D02*
X165318571Y-222676428D01*
X165318571Y-222676428D02*
X165532857Y-222676428D01*
X164175714Y-222676428D02*
X164318571Y-222605000D01*
X164318571Y-222605000D02*
X164390000Y-222533571D01*
X164390000Y-222533571D02*
X164461428Y-222390714D01*
X164461428Y-222390714D02*
X164461428Y-221962142D01*
X164461428Y-221962142D02*
X164390000Y-221819285D01*
X164390000Y-221819285D02*
X164318571Y-221747857D01*
X164318571Y-221747857D02*
X164175714Y-221676428D01*
X164175714Y-221676428D02*
X163961428Y-221676428D01*
X163961428Y-221676428D02*
X163818571Y-221747857D01*
X163818571Y-221747857D02*
X163747143Y-221819285D01*
X163747143Y-221819285D02*
X163675714Y-221962142D01*
X163675714Y-221962142D02*
X163675714Y-222390714D01*
X163675714Y-222390714D02*
X163747143Y-222533571D01*
X163747143Y-222533571D02*
X163818571Y-222605000D01*
X163818571Y-222605000D02*
X163961428Y-222676428D01*
X163961428Y-222676428D02*
X164175714Y-222676428D01*
X162818571Y-222676428D02*
X162961428Y-222605000D01*
X162961428Y-222605000D02*
X163032857Y-222462142D01*
X163032857Y-222462142D02*
X163032857Y-221176428D01*
X161532857Y-221176428D02*
X162247143Y-221176428D01*
X162247143Y-221176428D02*
X162318571Y-221890714D01*
X162318571Y-221890714D02*
X162247143Y-221819285D01*
X162247143Y-221819285D02*
X162104286Y-221747857D01*
X162104286Y-221747857D02*
X161747143Y-221747857D01*
X161747143Y-221747857D02*
X161604286Y-221819285D01*
X161604286Y-221819285D02*
X161532857Y-221890714D01*
X161532857Y-221890714D02*
X161461428Y-222033571D01*
X161461428Y-222033571D02*
X161461428Y-222390714D01*
X161461428Y-222390714D02*
X161532857Y-222533571D01*
X161532857Y-222533571D02*
X161604286Y-222605000D01*
X161604286Y-222605000D02*
X161747143Y-222676428D01*
X161747143Y-222676428D02*
X162104286Y-222676428D01*
X162104286Y-222676428D02*
X162247143Y-222605000D01*
X162247143Y-222605000D02*
X162318571Y-222533571D01*
X160961429Y-221176428D02*
X160032857Y-221176428D01*
X160032857Y-221176428D02*
X160532857Y-221747857D01*
X160532857Y-221747857D02*
X160318572Y-221747857D01*
X160318572Y-221747857D02*
X160175715Y-221819285D01*
X160175715Y-221819285D02*
X160104286Y-221890714D01*
X160104286Y-221890714D02*
X160032857Y-222033571D01*
X160032857Y-222033571D02*
X160032857Y-222390714D01*
X160032857Y-222390714D02*
X160104286Y-222533571D01*
X160104286Y-222533571D02*
X160175715Y-222605000D01*
X160175715Y-222605000D02*
X160318572Y-222676428D01*
X160318572Y-222676428D02*
X160747143Y-222676428D01*
X160747143Y-222676428D02*
X160890000Y-222605000D01*
X160890000Y-222605000D02*
X160961429Y-222533571D01*
X158747144Y-221176428D02*
X159032858Y-221176428D01*
X159032858Y-221176428D02*
X159175715Y-221247857D01*
X159175715Y-221247857D02*
X159247144Y-221319285D01*
X159247144Y-221319285D02*
X159390001Y-221533571D01*
X159390001Y-221533571D02*
X159461429Y-221819285D01*
X159461429Y-221819285D02*
X159461429Y-222390714D01*
X159461429Y-222390714D02*
X159390001Y-222533571D01*
X159390001Y-222533571D02*
X159318572Y-222605000D01*
X159318572Y-222605000D02*
X159175715Y-222676428D01*
X159175715Y-222676428D02*
X158890001Y-222676428D01*
X158890001Y-222676428D02*
X158747144Y-222605000D01*
X158747144Y-222605000D02*
X158675715Y-222533571D01*
X158675715Y-222533571D02*
X158604286Y-222390714D01*
X158604286Y-222390714D02*
X158604286Y-222033571D01*
X158604286Y-222033571D02*
X158675715Y-221890714D01*
X158675715Y-221890714D02*
X158747144Y-221819285D01*
X158747144Y-221819285D02*
X158890001Y-221747857D01*
X158890001Y-221747857D02*
X159175715Y-221747857D01*
X159175715Y-221747857D02*
X159318572Y-221819285D01*
X159318572Y-221819285D02*
X159390001Y-221890714D01*
X159390001Y-221890714D02*
X159461429Y-222033571D01*
X157747144Y-222676428D02*
X157890001Y-222605000D01*
X157890001Y-222605000D02*
X157961430Y-222462142D01*
X157961430Y-222462142D02*
X157961430Y-221176428D01*
X156532859Y-222605000D02*
X156675716Y-222676428D01*
X156675716Y-222676428D02*
X156961430Y-222676428D01*
X156961430Y-222676428D02*
X157104287Y-222605000D01*
X157104287Y-222605000D02*
X157175716Y-222533571D01*
X157175716Y-222533571D02*
X157247144Y-222390714D01*
X157247144Y-222390714D02*
X157247144Y-221962142D01*
X157247144Y-221962142D02*
X157175716Y-221819285D01*
X157175716Y-221819285D02*
X157104287Y-221747857D01*
X157104287Y-221747857D02*
X156961430Y-221676428D01*
X156961430Y-221676428D02*
X156675716Y-221676428D01*
X156675716Y-221676428D02*
X156532859Y-221747857D01*
X166390000Y-225106428D02*
X166390000Y-223606428D01*
X166390000Y-225035000D02*
X166532857Y-225106428D01*
X166532857Y-225106428D02*
X166818571Y-225106428D01*
X166818571Y-225106428D02*
X166961428Y-225035000D01*
X166961428Y-225035000D02*
X167032857Y-224963571D01*
X167032857Y-224963571D02*
X167104285Y-224820714D01*
X167104285Y-224820714D02*
X167104285Y-224392142D01*
X167104285Y-224392142D02*
X167032857Y-224249285D01*
X167032857Y-224249285D02*
X166961428Y-224177857D01*
X166961428Y-224177857D02*
X166818571Y-224106428D01*
X166818571Y-224106428D02*
X166532857Y-224106428D01*
X166532857Y-224106428D02*
X166390000Y-224177857D01*
X165104285Y-225035000D02*
X165247142Y-225106428D01*
X165247142Y-225106428D02*
X165532857Y-225106428D01*
X165532857Y-225106428D02*
X165675714Y-225035000D01*
X165675714Y-225035000D02*
X165747142Y-224892142D01*
X165747142Y-224892142D02*
X165747142Y-224320714D01*
X165747142Y-224320714D02*
X165675714Y-224177857D01*
X165675714Y-224177857D02*
X165532857Y-224106428D01*
X165532857Y-224106428D02*
X165247142Y-224106428D01*
X165247142Y-224106428D02*
X165104285Y-224177857D01*
X165104285Y-224177857D02*
X165032857Y-224320714D01*
X165032857Y-224320714D02*
X165032857Y-224463571D01*
X165032857Y-224463571D02*
X165747142Y-224606428D01*
X164461428Y-225035000D02*
X164318571Y-225106428D01*
X164318571Y-225106428D02*
X164032857Y-225106428D01*
X164032857Y-225106428D02*
X163890000Y-225035000D01*
X163890000Y-225035000D02*
X163818571Y-224892142D01*
X163818571Y-224892142D02*
X163818571Y-224820714D01*
X163818571Y-224820714D02*
X163890000Y-224677857D01*
X163890000Y-224677857D02*
X164032857Y-224606428D01*
X164032857Y-224606428D02*
X164247143Y-224606428D01*
X164247143Y-224606428D02*
X164390000Y-224535000D01*
X164390000Y-224535000D02*
X164461428Y-224392142D01*
X164461428Y-224392142D02*
X164461428Y-224320714D01*
X164461428Y-224320714D02*
X164390000Y-224177857D01*
X164390000Y-224177857D02*
X164247143Y-224106428D01*
X164247143Y-224106428D02*
X164032857Y-224106428D01*
X164032857Y-224106428D02*
X163890000Y-224177857D01*
X163175714Y-225106428D02*
X163175714Y-224106428D01*
X163175714Y-223606428D02*
X163247142Y-223677857D01*
X163247142Y-223677857D02*
X163175714Y-223749285D01*
X163175714Y-223749285D02*
X163104285Y-223677857D01*
X163104285Y-223677857D02*
X163175714Y-223606428D01*
X163175714Y-223606428D02*
X163175714Y-223749285D01*
X161818571Y-224106428D02*
X161818571Y-225320714D01*
X161818571Y-225320714D02*
X161889999Y-225463571D01*
X161889999Y-225463571D02*
X161961428Y-225535000D01*
X161961428Y-225535000D02*
X162104285Y-225606428D01*
X162104285Y-225606428D02*
X162318571Y-225606428D01*
X162318571Y-225606428D02*
X162461428Y-225535000D01*
X161818571Y-225035000D02*
X161961428Y-225106428D01*
X161961428Y-225106428D02*
X162247142Y-225106428D01*
X162247142Y-225106428D02*
X162389999Y-225035000D01*
X162389999Y-225035000D02*
X162461428Y-224963571D01*
X162461428Y-224963571D02*
X162532856Y-224820714D01*
X162532856Y-224820714D02*
X162532856Y-224392142D01*
X162532856Y-224392142D02*
X162461428Y-224249285D01*
X162461428Y-224249285D02*
X162389999Y-224177857D01*
X162389999Y-224177857D02*
X162247142Y-224106428D01*
X162247142Y-224106428D02*
X161961428Y-224106428D01*
X161961428Y-224106428D02*
X161818571Y-224177857D01*
X161104285Y-224106428D02*
X161104285Y-225106428D01*
X161104285Y-224249285D02*
X161032856Y-224177857D01*
X161032856Y-224177857D02*
X160889999Y-224106428D01*
X160889999Y-224106428D02*
X160675713Y-224106428D01*
X160675713Y-224106428D02*
X160532856Y-224177857D01*
X160532856Y-224177857D02*
X160461428Y-224320714D01*
X160461428Y-224320714D02*
X160461428Y-225106428D01*
X159175713Y-225035000D02*
X159318570Y-225106428D01*
X159318570Y-225106428D02*
X159604285Y-225106428D01*
X159604285Y-225106428D02*
X159747142Y-225035000D01*
X159747142Y-225035000D02*
X159818570Y-224892142D01*
X159818570Y-224892142D02*
X159818570Y-224320714D01*
X159818570Y-224320714D02*
X159747142Y-224177857D01*
X159747142Y-224177857D02*
X159604285Y-224106428D01*
X159604285Y-224106428D02*
X159318570Y-224106428D01*
X159318570Y-224106428D02*
X159175713Y-224177857D01*
X159175713Y-224177857D02*
X159104285Y-224320714D01*
X159104285Y-224320714D02*
X159104285Y-224463571D01*
X159104285Y-224463571D02*
X159818570Y-224606428D01*
X157818571Y-225106428D02*
X157818571Y-223606428D01*
X157818571Y-225035000D02*
X157961428Y-225106428D01*
X157961428Y-225106428D02*
X158247142Y-225106428D01*
X158247142Y-225106428D02*
X158389999Y-225035000D01*
X158389999Y-225035000D02*
X158461428Y-224963571D01*
X158461428Y-224963571D02*
X158532856Y-224820714D01*
X158532856Y-224820714D02*
X158532856Y-224392142D01*
X158532856Y-224392142D02*
X158461428Y-224249285D01*
X158461428Y-224249285D02*
X158389999Y-224177857D01*
X158389999Y-224177857D02*
X158247142Y-224106428D01*
X158247142Y-224106428D02*
X157961428Y-224106428D01*
X157961428Y-224106428D02*
X157818571Y-224177857D01*
X155961428Y-225106428D02*
X155961428Y-223606428D01*
X155961428Y-224177857D02*
X155818571Y-224106428D01*
X155818571Y-224106428D02*
X155532856Y-224106428D01*
X155532856Y-224106428D02*
X155389999Y-224177857D01*
X155389999Y-224177857D02*
X155318571Y-224249285D01*
X155318571Y-224249285D02*
X155247142Y-224392142D01*
X155247142Y-224392142D02*
X155247142Y-224820714D01*
X155247142Y-224820714D02*
X155318571Y-224963571D01*
X155318571Y-224963571D02*
X155389999Y-225035000D01*
X155389999Y-225035000D02*
X155532856Y-225106428D01*
X155532856Y-225106428D02*
X155818571Y-225106428D01*
X155818571Y-225106428D02*
X155961428Y-225035000D01*
X154747142Y-224106428D02*
X154389999Y-225106428D01*
X154032856Y-224106428D02*
X154389999Y-225106428D01*
X154389999Y-225106428D02*
X154532856Y-225463571D01*
X154532856Y-225463571D02*
X154604285Y-225535000D01*
X154604285Y-225535000D02*
X154747142Y-225606428D01*
X152318571Y-225106428D02*
X152318571Y-224106428D01*
X152318571Y-224249285D02*
X152247142Y-224177857D01*
X152247142Y-224177857D02*
X152104285Y-224106428D01*
X152104285Y-224106428D02*
X151889999Y-224106428D01*
X151889999Y-224106428D02*
X151747142Y-224177857D01*
X151747142Y-224177857D02*
X151675714Y-224320714D01*
X151675714Y-224320714D02*
X151675714Y-225106428D01*
X151675714Y-224320714D02*
X151604285Y-224177857D01*
X151604285Y-224177857D02*
X151461428Y-224106428D01*
X151461428Y-224106428D02*
X151247142Y-224106428D01*
X151247142Y-224106428D02*
X151104285Y-224177857D01*
X151104285Y-224177857D02*
X151032856Y-224320714D01*
X151032856Y-224320714D02*
X151032856Y-225106428D01*
X150318571Y-224963571D02*
X150247142Y-225035000D01*
X150247142Y-225035000D02*
X150318571Y-225106428D01*
X150318571Y-225106428D02*
X150389999Y-225035000D01*
X150389999Y-225035000D02*
X150318571Y-224963571D01*
X150318571Y-224963571D02*
X150318571Y-225106428D01*
X149604285Y-225106428D02*
X149604285Y-223606428D01*
X149461428Y-224535000D02*
X149032856Y-225106428D01*
X149032856Y-224106428D02*
X149604285Y-224677857D01*
X148389999Y-225106428D02*
X148389999Y-224106428D01*
X148389999Y-223606428D02*
X148461427Y-223677857D01*
X148461427Y-223677857D02*
X148389999Y-223749285D01*
X148389999Y-223749285D02*
X148318570Y-223677857D01*
X148318570Y-223677857D02*
X148389999Y-223606428D01*
X148389999Y-223606428D02*
X148389999Y-223749285D01*
X167175714Y-226536428D02*
X166818571Y-227536428D01*
X166818571Y-227536428D02*
X166461428Y-226536428D01*
X165318571Y-227465000D02*
X165461428Y-227536428D01*
X165461428Y-227536428D02*
X165747143Y-227536428D01*
X165747143Y-227536428D02*
X165890000Y-227465000D01*
X165890000Y-227465000D02*
X165961428Y-227322142D01*
X165961428Y-227322142D02*
X165961428Y-226750714D01*
X165961428Y-226750714D02*
X165890000Y-226607857D01*
X165890000Y-226607857D02*
X165747143Y-226536428D01*
X165747143Y-226536428D02*
X165461428Y-226536428D01*
X165461428Y-226536428D02*
X165318571Y-226607857D01*
X165318571Y-226607857D02*
X165247143Y-226750714D01*
X165247143Y-226750714D02*
X165247143Y-226893571D01*
X165247143Y-226893571D02*
X165961428Y-227036428D01*
X164604286Y-227536428D02*
X164604286Y-226536428D01*
X164604286Y-226822142D02*
X164532857Y-226679285D01*
X164532857Y-226679285D02*
X164461429Y-226607857D01*
X164461429Y-226607857D02*
X164318571Y-226536428D01*
X164318571Y-226536428D02*
X164175714Y-226536428D01*
X163675715Y-227393571D02*
X163604286Y-227465000D01*
X163604286Y-227465000D02*
X163675715Y-227536428D01*
X163675715Y-227536428D02*
X163747143Y-227465000D01*
X163747143Y-227465000D02*
X163675715Y-227393571D01*
X163675715Y-227393571D02*
X163675715Y-227536428D01*
X162175714Y-227536428D02*
X163032857Y-227536428D01*
X162604286Y-227536428D02*
X162604286Y-226036428D01*
X162604286Y-226036428D02*
X162747143Y-226250714D01*
X162747143Y-226250714D02*
X162890000Y-226393571D01*
X162890000Y-226393571D02*
X163032857Y-226465000D01*
X161532858Y-227393571D02*
X161461429Y-227465000D01*
X161461429Y-227465000D02*
X161532858Y-227536428D01*
X161532858Y-227536428D02*
X161604286Y-227465000D01*
X161604286Y-227465000D02*
X161532858Y-227393571D01*
X161532858Y-227393571D02*
X161532858Y-227536428D01*
X160532857Y-226036428D02*
X160390000Y-226036428D01*
X160390000Y-226036428D02*
X160247143Y-226107857D01*
X160247143Y-226107857D02*
X160175715Y-226179285D01*
X160175715Y-226179285D02*
X160104286Y-226322142D01*
X160104286Y-226322142D02*
X160032857Y-226607857D01*
X160032857Y-226607857D02*
X160032857Y-226965000D01*
X160032857Y-226965000D02*
X160104286Y-227250714D01*
X160104286Y-227250714D02*
X160175715Y-227393571D01*
X160175715Y-227393571D02*
X160247143Y-227465000D01*
X160247143Y-227465000D02*
X160390000Y-227536428D01*
X160390000Y-227536428D02*
X160532857Y-227536428D01*
X160532857Y-227536428D02*
X160675715Y-227465000D01*
X160675715Y-227465000D02*
X160747143Y-227393571D01*
X160747143Y-227393571D02*
X160818572Y-227250714D01*
X160818572Y-227250714D02*
X160890000Y-226965000D01*
X160890000Y-226965000D02*
X160890000Y-226607857D01*
X160890000Y-226607857D02*
X160818572Y-226322142D01*
X160818572Y-226322142D02*
X160747143Y-226179285D01*
X160747143Y-226179285D02*
X160675715Y-226107857D01*
X160675715Y-226107857D02*
X160532857Y-226036428D01*
X157604287Y-227536428D02*
X157604287Y-226036428D01*
X157604287Y-227465000D02*
X157747144Y-227536428D01*
X157747144Y-227536428D02*
X158032858Y-227536428D01*
X158032858Y-227536428D02*
X158175715Y-227465000D01*
X158175715Y-227465000D02*
X158247144Y-227393571D01*
X158247144Y-227393571D02*
X158318572Y-227250714D01*
X158318572Y-227250714D02*
X158318572Y-226822142D01*
X158318572Y-226822142D02*
X158247144Y-226679285D01*
X158247144Y-226679285D02*
X158175715Y-226607857D01*
X158175715Y-226607857D02*
X158032858Y-226536428D01*
X158032858Y-226536428D02*
X157747144Y-226536428D01*
X157747144Y-226536428D02*
X157604287Y-226607857D01*
X156247144Y-227536428D02*
X156247144Y-226750714D01*
X156247144Y-226750714D02*
X156318572Y-226607857D01*
X156318572Y-226607857D02*
X156461429Y-226536428D01*
X156461429Y-226536428D02*
X156747144Y-226536428D01*
X156747144Y-226536428D02*
X156890001Y-226607857D01*
X156247144Y-227465000D02*
X156390001Y-227536428D01*
X156390001Y-227536428D02*
X156747144Y-227536428D01*
X156747144Y-227536428D02*
X156890001Y-227465000D01*
X156890001Y-227465000D02*
X156961429Y-227322142D01*
X156961429Y-227322142D02*
X156961429Y-227179285D01*
X156961429Y-227179285D02*
X156890001Y-227036428D01*
X156890001Y-227036428D02*
X156747144Y-226965000D01*
X156747144Y-226965000D02*
X156390001Y-226965000D01*
X156390001Y-226965000D02*
X156247144Y-226893571D01*
X155747143Y-226536428D02*
X155175715Y-226536428D01*
X155532858Y-226036428D02*
X155532858Y-227322142D01*
X155532858Y-227322142D02*
X155461429Y-227465000D01*
X155461429Y-227465000D02*
X155318572Y-227536428D01*
X155318572Y-227536428D02*
X155175715Y-227536428D01*
X154032858Y-227536428D02*
X154032858Y-226750714D01*
X154032858Y-226750714D02*
X154104286Y-226607857D01*
X154104286Y-226607857D02*
X154247143Y-226536428D01*
X154247143Y-226536428D02*
X154532858Y-226536428D01*
X154532858Y-226536428D02*
X154675715Y-226607857D01*
X154032858Y-227465000D02*
X154175715Y-227536428D01*
X154175715Y-227536428D02*
X154532858Y-227536428D01*
X154532858Y-227536428D02*
X154675715Y-227465000D01*
X154675715Y-227465000D02*
X154747143Y-227322142D01*
X154747143Y-227322142D02*
X154747143Y-227179285D01*
X154747143Y-227179285D02*
X154675715Y-227036428D01*
X154675715Y-227036428D02*
X154532858Y-226965000D01*
X154532858Y-226965000D02*
X154175715Y-226965000D01*
X154175715Y-226965000D02*
X154032858Y-226893571D01*
X153390000Y-226179285D02*
X153318572Y-226107857D01*
X153318572Y-226107857D02*
X153175715Y-226036428D01*
X153175715Y-226036428D02*
X152818572Y-226036428D01*
X152818572Y-226036428D02*
X152675715Y-226107857D01*
X152675715Y-226107857D02*
X152604286Y-226179285D01*
X152604286Y-226179285D02*
X152532857Y-226322142D01*
X152532857Y-226322142D02*
X152532857Y-226465000D01*
X152532857Y-226465000D02*
X152604286Y-226679285D01*
X152604286Y-226679285D02*
X153461429Y-227536428D01*
X153461429Y-227536428D02*
X152532857Y-227536428D01*
X151604286Y-226036428D02*
X151461429Y-226036428D01*
X151461429Y-226036428D02*
X151318572Y-226107857D01*
X151318572Y-226107857D02*
X151247144Y-226179285D01*
X151247144Y-226179285D02*
X151175715Y-226322142D01*
X151175715Y-226322142D02*
X151104286Y-226607857D01*
X151104286Y-226607857D02*
X151104286Y-226965000D01*
X151104286Y-226965000D02*
X151175715Y-227250714D01*
X151175715Y-227250714D02*
X151247144Y-227393571D01*
X151247144Y-227393571D02*
X151318572Y-227465000D01*
X151318572Y-227465000D02*
X151461429Y-227536428D01*
X151461429Y-227536428D02*
X151604286Y-227536428D01*
X151604286Y-227536428D02*
X151747144Y-227465000D01*
X151747144Y-227465000D02*
X151818572Y-227393571D01*
X151818572Y-227393571D02*
X151890001Y-227250714D01*
X151890001Y-227250714D02*
X151961429Y-226965000D01*
X151961429Y-226965000D02*
X151961429Y-226607857D01*
X151961429Y-226607857D02*
X151890001Y-226322142D01*
X151890001Y-226322142D02*
X151818572Y-226179285D01*
X151818572Y-226179285D02*
X151747144Y-226107857D01*
X151747144Y-226107857D02*
X151604286Y-226036428D01*
X150532858Y-226179285D02*
X150461430Y-226107857D01*
X150461430Y-226107857D02*
X150318573Y-226036428D01*
X150318573Y-226036428D02*
X149961430Y-226036428D01*
X149961430Y-226036428D02*
X149818573Y-226107857D01*
X149818573Y-226107857D02*
X149747144Y-226179285D01*
X149747144Y-226179285D02*
X149675715Y-226322142D01*
X149675715Y-226322142D02*
X149675715Y-226465000D01*
X149675715Y-226465000D02*
X149747144Y-226679285D01*
X149747144Y-226679285D02*
X150604287Y-227536428D01*
X150604287Y-227536428D02*
X149675715Y-227536428D01*
X149175716Y-226036428D02*
X148247144Y-226036428D01*
X148247144Y-226036428D02*
X148747144Y-226607857D01*
X148747144Y-226607857D02*
X148532859Y-226607857D01*
X148532859Y-226607857D02*
X148390002Y-226679285D01*
X148390002Y-226679285D02*
X148318573Y-226750714D01*
X148318573Y-226750714D02*
X148247144Y-226893571D01*
X148247144Y-226893571D02*
X148247144Y-227250714D01*
X148247144Y-227250714D02*
X148318573Y-227393571D01*
X148318573Y-227393571D02*
X148390002Y-227465000D01*
X148390002Y-227465000D02*
X148532859Y-227536428D01*
X148532859Y-227536428D02*
X148961430Y-227536428D01*
X148961430Y-227536428D02*
X149104287Y-227465000D01*
X149104287Y-227465000D02*
X149175716Y-227393571D01*
X147318573Y-226036428D02*
X147175716Y-226036428D01*
X147175716Y-226036428D02*
X147032859Y-226107857D01*
X147032859Y-226107857D02*
X146961431Y-226179285D01*
X146961431Y-226179285D02*
X146890002Y-226322142D01*
X146890002Y-226322142D02*
X146818573Y-226607857D01*
X146818573Y-226607857D02*
X146818573Y-226965000D01*
X146818573Y-226965000D02*
X146890002Y-227250714D01*
X146890002Y-227250714D02*
X146961431Y-227393571D01*
X146961431Y-227393571D02*
X147032859Y-227465000D01*
X147032859Y-227465000D02*
X147175716Y-227536428D01*
X147175716Y-227536428D02*
X147318573Y-227536428D01*
X147318573Y-227536428D02*
X147461431Y-227465000D01*
X147461431Y-227465000D02*
X147532859Y-227393571D01*
X147532859Y-227393571D02*
X147604288Y-227250714D01*
X147604288Y-227250714D02*
X147675716Y-226965000D01*
X147675716Y-226965000D02*
X147675716Y-226607857D01*
X147675716Y-226607857D02*
X147604288Y-226322142D01*
X147604288Y-226322142D02*
X147532859Y-226179285D01*
X147532859Y-226179285D02*
X147461431Y-226107857D01*
X147461431Y-226107857D02*
X147318573Y-226036428D01*
X145532860Y-226036428D02*
X145818574Y-226036428D01*
X145818574Y-226036428D02*
X145961431Y-226107857D01*
X145961431Y-226107857D02*
X146032860Y-226179285D01*
X146032860Y-226179285D02*
X146175717Y-226393571D01*
X146175717Y-226393571D02*
X146247145Y-226679285D01*
X146247145Y-226679285D02*
X146247145Y-227250714D01*
X146247145Y-227250714D02*
X146175717Y-227393571D01*
X146175717Y-227393571D02*
X146104288Y-227465000D01*
X146104288Y-227465000D02*
X145961431Y-227536428D01*
X145961431Y-227536428D02*
X145675717Y-227536428D01*
X145675717Y-227536428D02*
X145532860Y-227465000D01*
X145532860Y-227465000D02*
X145461431Y-227393571D01*
X145461431Y-227393571D02*
X145390002Y-227250714D01*
X145390002Y-227250714D02*
X145390002Y-226893571D01*
X145390002Y-226893571D02*
X145461431Y-226750714D01*
X145461431Y-226750714D02*
X145532860Y-226679285D01*
X145532860Y-226679285D02*
X145675717Y-226607857D01*
X145675717Y-226607857D02*
X145961431Y-226607857D01*
X145961431Y-226607857D02*
X146104288Y-226679285D01*
X146104288Y-226679285D02*
X146175717Y-226750714D01*
X146175717Y-226750714D02*
X146247145Y-226893571D01*
X144461431Y-226036428D02*
X144318574Y-226036428D01*
X144318574Y-226036428D02*
X144175717Y-226107857D01*
X144175717Y-226107857D02*
X144104289Y-226179285D01*
X144104289Y-226179285D02*
X144032860Y-226322142D01*
X144032860Y-226322142D02*
X143961431Y-226607857D01*
X143961431Y-226607857D02*
X143961431Y-226965000D01*
X143961431Y-226965000D02*
X144032860Y-227250714D01*
X144032860Y-227250714D02*
X144104289Y-227393571D01*
X144104289Y-227393571D02*
X144175717Y-227465000D01*
X144175717Y-227465000D02*
X144318574Y-227536428D01*
X144318574Y-227536428D02*
X144461431Y-227536428D01*
X144461431Y-227536428D02*
X144604289Y-227465000D01*
X144604289Y-227465000D02*
X144675717Y-227393571D01*
X144675717Y-227393571D02*
X144747146Y-227250714D01*
X144747146Y-227250714D02*
X144818574Y-226965000D01*
X144818574Y-226965000D02*
X144818574Y-226607857D01*
X144818574Y-226607857D02*
X144747146Y-226322142D01*
X144747146Y-226322142D02*
X144675717Y-226179285D01*
X144675717Y-226179285D02*
X144604289Y-226107857D01*
X144604289Y-226107857D02*
X144461431Y-226036428D01*
X143461432Y-226036428D02*
X142532860Y-226036428D01*
X142532860Y-226036428D02*
X143032860Y-226607857D01*
X143032860Y-226607857D02*
X142818575Y-226607857D01*
X142818575Y-226607857D02*
X142675718Y-226679285D01*
X142675718Y-226679285D02*
X142604289Y-226750714D01*
X142604289Y-226750714D02*
X142532860Y-226893571D01*
X142532860Y-226893571D02*
X142532860Y-227250714D01*
X142532860Y-227250714D02*
X142604289Y-227393571D01*
X142604289Y-227393571D02*
X142675718Y-227465000D01*
X142675718Y-227465000D02*
X142818575Y-227536428D01*
X142818575Y-227536428D02*
X143247146Y-227536428D01*
X143247146Y-227536428D02*
X143390003Y-227465000D01*
X143390003Y-227465000D02*
X143461432Y-227393571D01*
D11*
X147140000Y-193590000D03*
D12*
X149175000Y-193590000D03*
X152725000Y-193590000D03*
D13*
X154760000Y-193590000D03*
D11*
X157851525Y-201206198D03*
D12*
X159886525Y-201206198D03*
X163436525Y-201206198D03*
D13*
X165471525Y-201206198D03*
D11*
X157851525Y-195906198D03*
D12*
X159886525Y-195906198D03*
X163436525Y-195906198D03*
D13*
X165471525Y-195906198D03*
D14*
X192900316Y-210320178D03*
D15*
X196122596Y-214997240D03*
D16*
X197930878Y-209613179D03*
D15*
X202057299Y-211598210D03*
D14*
X202961440Y-208906180D03*
D17*
X205300427Y-211142418D03*
X192852731Y-215456790D03*
D14*
X190199754Y-191467177D03*
D15*
X193422034Y-196144239D03*
D16*
X195230316Y-190760178D03*
D15*
X199356737Y-192745209D03*
D14*
X200260878Y-190053179D03*
D17*
X202599865Y-192289417D03*
X190152169Y-196603789D03*
D11*
X227836525Y-220296198D03*
D12*
X229871525Y-220296198D03*
X233421525Y-220296198D03*
D13*
X235456525Y-220296198D03*
D14*
X204960316Y-227830178D03*
D15*
X208182596Y-232507240D03*
D16*
X209990878Y-227123179D03*
D15*
X214117299Y-229108210D03*
D14*
X215021440Y-226416180D03*
D17*
X217360427Y-228652418D03*
X204912731Y-232966790D03*
D14*
X231290878Y-209723179D03*
D15*
X234513158Y-214400241D03*
D16*
X236321440Y-209016180D03*
D15*
X240447861Y-211001211D03*
D14*
X241352002Y-208309181D03*
D17*
X243690989Y-210545419D03*
X231243293Y-214859791D03*
D11*
X147140000Y-203940000D03*
D12*
X149175000Y-203940000D03*
X152725000Y-203940000D03*
D13*
X154760000Y-203940000D03*
D11*
X238736525Y-230576198D03*
D12*
X240771525Y-230576198D03*
X244321525Y-230576198D03*
D13*
X246356525Y-230576198D03*
D11*
X238796525Y-225406198D03*
D12*
X240831525Y-225406198D03*
X244381525Y-225406198D03*
D13*
X246416525Y-225406198D03*
D14*
X111775963Y-190199199D03*
D15*
X113584245Y-195583260D03*
D16*
X116806525Y-190906198D03*
D15*
X120225947Y-193951728D03*
D14*
X121837087Y-191613197D03*
D18*
X123469075Y-194407520D03*
X110314380Y-195123711D03*
D14*
X245489754Y-174097177D03*
D15*
X248712034Y-178774239D03*
D16*
X250520316Y-173390178D03*
D15*
X254646737Y-175375209D03*
D14*
X255550878Y-172683179D03*
D17*
X257889865Y-174919417D03*
X245442169Y-179233789D03*
D11*
X227936525Y-230796198D03*
D12*
X229971525Y-230796198D03*
X233521525Y-230796198D03*
D13*
X235556525Y-230796198D03*
D14*
X250790878Y-211753179D03*
D15*
X254013158Y-216430241D03*
D16*
X255821440Y-211046180D03*
D15*
X259947861Y-213031211D03*
D14*
X260852002Y-210339181D03*
D17*
X263190989Y-212575419D03*
X250743293Y-216889791D03*
D11*
X147140000Y-211273802D03*
D12*
X149175000Y-211273802D03*
X152725000Y-211273802D03*
D13*
X154760000Y-211273802D03*
D14*
X76008108Y-170721686D03*
D15*
X77816390Y-176105747D03*
D16*
X81038670Y-171428685D03*
D15*
X84458092Y-174474215D03*
D14*
X86069232Y-172135684D03*
D18*
X87701220Y-174930007D03*
X74546525Y-175646198D03*
D11*
X65896525Y-224836198D03*
D12*
X67931525Y-224836198D03*
X71481525Y-224836198D03*
D13*
X73516525Y-224836198D03*
D11*
X76696525Y-225016198D03*
D12*
X78731525Y-225016198D03*
X82281525Y-225016198D03*
D13*
X84316525Y-225016198D03*
D14*
X56495963Y-172799199D03*
D15*
X58304245Y-178183260D03*
D16*
X61526525Y-173506198D03*
D15*
X64945947Y-176551728D03*
D14*
X66557087Y-174213197D03*
D18*
X68189075Y-177007520D03*
X55034380Y-177723711D03*
D14*
X96245963Y-163959199D03*
D15*
X98054245Y-169343260D03*
D16*
X101276525Y-164666198D03*
D15*
X104695947Y-167711728D03*
D14*
X106307087Y-165373197D03*
D18*
X107939075Y-168167520D03*
X94784380Y-168883711D03*
D14*
X90928108Y-201661686D03*
D15*
X92736390Y-207045747D03*
D16*
X95958670Y-202368685D03*
D15*
X99378092Y-205414215D03*
D14*
X100989232Y-203075684D03*
D18*
X102621220Y-205870007D03*
X89466525Y-206586198D03*
D13*
X84306525Y-222576198D03*
D12*
X82271525Y-222576198D03*
X78721525Y-222576198D03*
D11*
X76686525Y-222576198D03*
D14*
X93575401Y-182822200D03*
D15*
X95383683Y-188206261D03*
D16*
X98605963Y-183529199D03*
D15*
X102025385Y-186574729D03*
D14*
X103636525Y-184236198D03*
D18*
X105268513Y-187030521D03*
X92113818Y-187746712D03*
D14*
X133295963Y-173999199D03*
D15*
X135104245Y-179383260D03*
D16*
X138326525Y-174706198D03*
D15*
X141745947Y-177751728D03*
D14*
X143357087Y-175413197D03*
D18*
X144989075Y-178207520D03*
X131834380Y-178923711D03*
D11*
X65836525Y-222456198D03*
D12*
X67871525Y-222456198D03*
X71421525Y-222456198D03*
D13*
X73456525Y-222456198D03*
D14*
X171339754Y-194117177D03*
D15*
X174562034Y-198794239D03*
D16*
X176370316Y-193410178D03*
D15*
X180496737Y-195395209D03*
D14*
X181400878Y-192703179D03*
D17*
X183739865Y-194939417D03*
X171292169Y-199253789D03*
D11*
X238796525Y-220106198D03*
D12*
X240831525Y-220106198D03*
X244381525Y-220106198D03*
D13*
X246416525Y-220106198D03*
D11*
X76696525Y-230316198D03*
D12*
X78731525Y-230316198D03*
X82281525Y-230316198D03*
D13*
X84316525Y-230316198D03*
D14*
X228610316Y-190860178D03*
D15*
X231832596Y-195537240D03*
D16*
X233640878Y-190153179D03*
D15*
X237767299Y-192138210D03*
D14*
X238671440Y-189446180D03*
D17*
X241010427Y-191682418D03*
X228562731Y-195996790D03*
D14*
X51216525Y-210526198D03*
D15*
X53024807Y-215910259D03*
D16*
X56247087Y-211233197D03*
D15*
X59666509Y-214278727D03*
D14*
X61277649Y-211940196D03*
D18*
X62909637Y-214734519D03*
X49754942Y-215450710D03*
D11*
X157736525Y-193436198D03*
D12*
X159771525Y-193436198D03*
X163321525Y-193436198D03*
D13*
X165356525Y-193436198D03*
D14*
X137344549Y-240691078D03*
D15*
X136218536Y-246257952D03*
D16*
X141347644Y-243818638D03*
D15*
X142786185Y-248165856D03*
D14*
X145350739Y-246946198D03*
D19*
X145366920Y-250182147D03*
X133616525Y-244225038D03*
D11*
X147140000Y-195990000D03*
D12*
X149175000Y-195990000D03*
X152725000Y-195990000D03*
D13*
X154760000Y-195990000D03*
D11*
X65866525Y-227566198D03*
D12*
X67901525Y-227566198D03*
X71451525Y-227566198D03*
D13*
X73486525Y-227566198D03*
D14*
X97065963Y-226649199D03*
D15*
X98874245Y-232033260D03*
D16*
X102096525Y-227356198D03*
D15*
X105515947Y-230401728D03*
D14*
X107127087Y-228063197D03*
D18*
X108759075Y-230857520D03*
X95604380Y-231573711D03*
D14*
X109125963Y-209059199D03*
D15*
X110934245Y-214443260D03*
D16*
X114156525Y-209766198D03*
D15*
X117575947Y-212811728D03*
D14*
X119187087Y-210473197D03*
D18*
X120819075Y-213267520D03*
X107664380Y-213983711D03*
D11*
X65866525Y-230216198D03*
D12*
X67901525Y-230216198D03*
X71451525Y-230216198D03*
D13*
X73486525Y-230216198D03*
D14*
X70745963Y-208469199D03*
D15*
X72554245Y-213853260D03*
D16*
X75776525Y-209176198D03*
D15*
X79195947Y-212221728D03*
D14*
X80807087Y-209883197D03*
D18*
X82439075Y-212677520D03*
X69284380Y-213393711D03*
D14*
X127995963Y-211709199D03*
D15*
X129804245Y-217093260D03*
D16*
X133026525Y-212416198D03*
D15*
X136445947Y-215461728D03*
D14*
X138057087Y-213123197D03*
D18*
X139689075Y-215917520D03*
X126534380Y-216633711D03*
D14*
X211090316Y-202910178D03*
D15*
X214312596Y-207587240D03*
D16*
X216120878Y-202203179D03*
D15*
X220247299Y-204188210D03*
D14*
X221151440Y-201496180D03*
D17*
X223490427Y-203732418D03*
X211042731Y-208046790D03*
D11*
X157905000Y-206150000D03*
D12*
X159940000Y-206150000D03*
X163490000Y-206150000D03*
D13*
X165525000Y-206150000D03*
D11*
X65876525Y-220176198D03*
D12*
X67911525Y-220176198D03*
X71461525Y-220176198D03*
D13*
X73496525Y-220176198D03*
D11*
X147140000Y-208620000D03*
D12*
X149175000Y-208620000D03*
X152725000Y-208620000D03*
D13*
X154760000Y-208620000D03*
D11*
X227936525Y-225496198D03*
D12*
X229971525Y-225496198D03*
X233521525Y-225496198D03*
D13*
X235556525Y-225496198D03*
D14*
X184616126Y-234821360D03*
D15*
X188939123Y-238505068D03*
D16*
X189292291Y-232836446D03*
D15*
X193791872Y-233685843D03*
D14*
X193968456Y-230851532D03*
D20*
X196806525Y-232406198D03*
X185899616Y-239795262D03*
D14*
X205768598Y-165156117D03*
D15*
X208990878Y-169833179D03*
D16*
X210799160Y-164449118D03*
D15*
X214925581Y-166434149D03*
D14*
X215829722Y-163742119D03*
D17*
X218168709Y-165978357D03*
X205721013Y-170292729D03*
D14*
X166756594Y-246834172D03*
D15*
X171885702Y-249273487D03*
D16*
X170759689Y-243706612D03*
D15*
X175325790Y-243362489D03*
D14*
X174762784Y-240579052D03*
D21*
X177906525Y-241346198D03*
X169283690Y-251306401D03*
D14*
X208418598Y-184066117D03*
D15*
X211640878Y-188743179D03*
D16*
X213449160Y-183359118D03*
D15*
X217575581Y-185344149D03*
D14*
X218479722Y-182652119D03*
D17*
X220818709Y-184888357D03*
X208371013Y-189202729D03*
D14*
X248129754Y-192907177D03*
D15*
X251352034Y-197584239D03*
D16*
X253160316Y-192200178D03*
D15*
X257286737Y-194185209D03*
D14*
X258190878Y-191493179D03*
D17*
X260529865Y-193729417D03*
X248082169Y-198043789D03*
D14*
X225980316Y-172000178D03*
D15*
X229202596Y-176677240D03*
D16*
X231010878Y-171293179D03*
D15*
X235137299Y-173278210D03*
D14*
X236041440Y-170586180D03*
D17*
X238380427Y-172822418D03*
X225932731Y-177136790D03*
D11*
X147140000Y-198640000D03*
D12*
X149175000Y-198640000D03*
X152725000Y-198640000D03*
D13*
X154760000Y-198640000D03*
D14*
X168700878Y-175253179D03*
D15*
X171923158Y-179930241D03*
D16*
X173731440Y-174546180D03*
D15*
X177857861Y-176531211D03*
D14*
X178762002Y-173839181D03*
D17*
X181100989Y-176075419D03*
X168653293Y-180389791D03*
D11*
X227936525Y-222846198D03*
D12*
X229971525Y-222846198D03*
X233521525Y-222846198D03*
D13*
X235556525Y-222846198D03*
D11*
X238796525Y-222756198D03*
D12*
X240831525Y-222756198D03*
X244381525Y-222756198D03*
D13*
X246416525Y-222756198D03*
D14*
X130665963Y-192849199D03*
D15*
X132474245Y-198233260D03*
D16*
X135696525Y-193556198D03*
D15*
X139115947Y-196601728D03*
D14*
X140727087Y-194263197D03*
D18*
X142359075Y-197057520D03*
X129204380Y-197773711D03*
D11*
X147140000Y-206550000D03*
D12*
X149175000Y-206550000D03*
X152725000Y-206550000D03*
D13*
X154760000Y-206550000D03*
D11*
X238796525Y-228056198D03*
D12*
X240831525Y-228056198D03*
X244381525Y-228056198D03*
D13*
X246416525Y-228056198D03*
D14*
X118161040Y-231044872D03*
D15*
X118514209Y-236713494D03*
D16*
X122837205Y-233029786D03*
D15*
X125351871Y-236856554D03*
D14*
X127513370Y-235014700D03*
D22*
X128366525Y-238136198D03*
X115474702Y-235423299D03*
D14*
X187620316Y-172590178D03*
D15*
X190842596Y-177267240D03*
D16*
X192650878Y-171883179D03*
D15*
X196777299Y-173868210D03*
D14*
X197681440Y-171176180D03*
D17*
X200020427Y-173412418D03*
X187572731Y-177726790D03*
D11*
X76696525Y-227666198D03*
D12*
X78731525Y-227666198D03*
X82281525Y-227666198D03*
D13*
X84316525Y-227666198D03*
D11*
X227936525Y-228146198D03*
D12*
X229971525Y-228146198D03*
X233521525Y-228146198D03*
D13*
X235556525Y-228146198D03*
D14*
X114445963Y-171359199D03*
D15*
X116254245Y-176743260D03*
D16*
X119476525Y-172066198D03*
D15*
X122895947Y-175111728D03*
D14*
X124507087Y-172773197D03*
D18*
X126139075Y-175567520D03*
X112984380Y-176283711D03*
D11*
X157885000Y-211100000D03*
D12*
X159920000Y-211100000D03*
X163470000Y-211100000D03*
D13*
X165505000Y-211100000D03*
D14*
X174000316Y-212950178D03*
D15*
X177222596Y-217627240D03*
D16*
X179030878Y-212243179D03*
D15*
X183157299Y-214228210D03*
D14*
X184061440Y-211536180D03*
D17*
X186400427Y-213772418D03*
X173952731Y-218086790D03*
D11*
X76826525Y-220326198D03*
D12*
X78861525Y-220326198D03*
X82411525Y-220326198D03*
D13*
X84446525Y-220326198D03*
D11*
X157776525Y-203746198D03*
D12*
X159811525Y-203746198D03*
X163361525Y-203746198D03*
D13*
X165396525Y-203746198D03*
D14*
X53876541Y-191673669D03*
D15*
X55684823Y-197057730D03*
D16*
X58907103Y-192380668D03*
D15*
X62326525Y-195426198D03*
D14*
X63937665Y-193087667D03*
D18*
X65569653Y-195881990D03*
X52414958Y-196598181D03*
D11*
X147140000Y-201290000D03*
D12*
X149175000Y-201290000D03*
X152725000Y-201290000D03*
D13*
X154760000Y-201290000D03*
D14*
X73398108Y-189591686D03*
D15*
X75206390Y-194975747D03*
D16*
X78428670Y-190298685D03*
D15*
X81848092Y-193344215D03*
D14*
X83459232Y-191005684D03*
D18*
X85091220Y-193800007D03*
X71936525Y-194516198D03*
D11*
X157888525Y-208736198D03*
D12*
X159923525Y-208736198D03*
X163473525Y-208736198D03*
D13*
X165508525Y-208736198D03*
D11*
X157851525Y-198556198D03*
D12*
X159886525Y-198556198D03*
X163436525Y-198556198D03*
D13*
X165471525Y-198556198D03*
D23*
X148346525Y-155516198D03*
D24*
X146876525Y-155516198D03*
D23*
X148346525Y-158056198D03*
D24*
X146876525Y-158056198D03*
D23*
X148346525Y-160596198D03*
D24*
X146876525Y-160596198D03*
D23*
X148346525Y-163136198D03*
D24*
X146876525Y-163136198D03*
D23*
X148346525Y-165676198D03*
D24*
X146876525Y-165676198D03*
D23*
X148346525Y-168216198D03*
D24*
X146876525Y-168216198D03*
D23*
X148346525Y-170756198D03*
D24*
X146876525Y-170756198D03*
D23*
X148346525Y-173296198D03*
D24*
X146876525Y-173296198D03*
D23*
X148346525Y-175836198D03*
D24*
X146876525Y-175836198D03*
D25*
X150886525Y-177296198D03*
D23*
X150886525Y-175836198D03*
D25*
X153426525Y-177306198D03*
D23*
X153426525Y-175836198D03*
D25*
X155966525Y-177296198D03*
D23*
X155966525Y-175836198D03*
X158506525Y-175836198D03*
D25*
X158496525Y-177306198D03*
X161056525Y-177296198D03*
D23*
X161046525Y-175836198D03*
D24*
X165056525Y-175836198D03*
D23*
X163586525Y-175836198D03*
D24*
X165056525Y-173296198D03*
D23*
X163586525Y-173296198D03*
D24*
X165056525Y-170756198D03*
D23*
X163586525Y-170756198D03*
D24*
X165056525Y-168216198D03*
D23*
X163586525Y-168216198D03*
D24*
X165056525Y-165676198D03*
D23*
X163586525Y-165676198D03*
D24*
X165056525Y-163136198D03*
D23*
X163586525Y-163136198D03*
D24*
X165056525Y-160596198D03*
D23*
X163586525Y-160596198D03*
D24*
X165056525Y-158056198D03*
D23*
X163586525Y-158056198D03*
D24*
X165056525Y-155516198D03*
D23*
X163586525Y-155516198D03*
G36*
X97036124Y-230459123D02*
G01*
X97036478Y-230459207D01*
X97036481Y-230459208D01*
X97037780Y-230460586D01*
X97037347Y-230462430D01*
X97035571Y-230463086D01*
X94534763Y-230111621D01*
X94533187Y-230110389D01*
X94533465Y-230108409D01*
X94535319Y-230107659D01*
X97036124Y-230459123D01*
G37*
G36*
X110190819Y-229742932D02*
G01*
X110191173Y-229743016D01*
X110191176Y-229743017D01*
X110192475Y-229744395D01*
X110192042Y-229746239D01*
X110190266Y-229746895D01*
X107689458Y-229395430D01*
X107687882Y-229394198D01*
X107688160Y-229392218D01*
X107690014Y-229391468D01*
X110190819Y-229742932D01*
G37*
G36*
X127966124Y-215519123D02*
G01*
X127966478Y-215519207D01*
X127966481Y-215519208D01*
X127967780Y-215520586D01*
X127967347Y-215522430D01*
X127965571Y-215523086D01*
X125464763Y-215171621D01*
X125463187Y-215170389D01*
X125463465Y-215168409D01*
X125465319Y-215167659D01*
X127966124Y-215519123D01*
G37*
G36*
X141120819Y-214802932D02*
G01*
X141121173Y-214803016D01*
X141121176Y-214803017D01*
X141122475Y-214804395D01*
X141122042Y-214806239D01*
X141120266Y-214806895D01*
X138619458Y-214455430D01*
X138617882Y-214454198D01*
X138618160Y-214452218D01*
X138620014Y-214451468D01*
X141120819Y-214802932D01*
G37*
G36*
X51186686Y-214336122D02*
G01*
X51187040Y-214336206D01*
X51187043Y-214336207D01*
X51188342Y-214337585D01*
X51187909Y-214339429D01*
X51186133Y-214340085D01*
X48685325Y-213988620D01*
X48683749Y-213987388D01*
X48684027Y-213985408D01*
X48685881Y-213984658D01*
X51186686Y-214336122D01*
G37*
G36*
X64341381Y-213619931D02*
G01*
X64341735Y-213620015D01*
X64341738Y-213620016D01*
X64343037Y-213621394D01*
X64342604Y-213623238D01*
X64340828Y-213623894D01*
X61840020Y-213272429D01*
X61838444Y-213271197D01*
X61838722Y-213269217D01*
X61840576Y-213268467D01*
X64341381Y-213619931D01*
G37*
G36*
X109096124Y-212869123D02*
G01*
X109096478Y-212869207D01*
X109096481Y-212869208D01*
X109097780Y-212870586D01*
X109097347Y-212872430D01*
X109095571Y-212873086D01*
X106594763Y-212521621D01*
X106593187Y-212520389D01*
X106593465Y-212518409D01*
X106595319Y-212517659D01*
X109096124Y-212869123D01*
G37*
G36*
X70716124Y-212279123D02*
G01*
X70716478Y-212279207D01*
X70716481Y-212279208D01*
X70717780Y-212280586D01*
X70717347Y-212282430D01*
X70715571Y-212283086D01*
X68214763Y-211931621D01*
X68213187Y-211930389D01*
X68213465Y-211928409D01*
X68215319Y-211927659D01*
X70716124Y-212279123D01*
G37*
G36*
X122250819Y-212152932D02*
G01*
X122251173Y-212153016D01*
X122251176Y-212153017D01*
X122252475Y-212154395D01*
X122252042Y-212156239D01*
X122250266Y-212156895D01*
X119749458Y-211805430D01*
X119747882Y-211804198D01*
X119748160Y-211802218D01*
X119750014Y-211801468D01*
X122250819Y-212152932D01*
G37*
G36*
X83870819Y-211562932D02*
G01*
X83871173Y-211563016D01*
X83871176Y-211563017D01*
X83872475Y-211564395D01*
X83872042Y-211566239D01*
X83870266Y-211566895D01*
X81369458Y-211215430D01*
X81367882Y-211214198D01*
X81368160Y-211212218D01*
X81370014Y-211211468D01*
X83870819Y-211562932D01*
G37*
G36*
X90898269Y-205471610D02*
G01*
X90898623Y-205471694D01*
X90898626Y-205471695D01*
X90899925Y-205473073D01*
X90899492Y-205474917D01*
X90897716Y-205475573D01*
X88396908Y-205124108D01*
X88395332Y-205122876D01*
X88395610Y-205120896D01*
X88397464Y-205120146D01*
X90898269Y-205471610D01*
G37*
G36*
X104052964Y-204755419D02*
G01*
X104053318Y-204755503D01*
X104053321Y-204755504D01*
X104054620Y-204756882D01*
X104054187Y-204758726D01*
X104052411Y-204759382D01*
X101551603Y-204407917D01*
X101550027Y-204406685D01*
X101550305Y-204404705D01*
X101552159Y-204403955D01*
X104052964Y-204755419D01*
G37*
G36*
X130636124Y-196659123D02*
G01*
X130636478Y-196659207D01*
X130636481Y-196659208D01*
X130637780Y-196660586D01*
X130637347Y-196662430D01*
X130635571Y-196663086D01*
X128134763Y-196311621D01*
X128133187Y-196310389D01*
X128133465Y-196308409D01*
X128135319Y-196307659D01*
X130636124Y-196659123D01*
G37*
G36*
X143790819Y-195942932D02*
G01*
X143791173Y-195943016D01*
X143791176Y-195943017D01*
X143792475Y-195944395D01*
X143792042Y-195946239D01*
X143790266Y-195946895D01*
X141289458Y-195595430D01*
X141287882Y-195594198D01*
X141288160Y-195592218D01*
X141290014Y-195591468D01*
X143790819Y-195942932D01*
G37*
G36*
X53846702Y-195483593D02*
G01*
X53847056Y-195483677D01*
X53847059Y-195483678D01*
X53848358Y-195485056D01*
X53847925Y-195486900D01*
X53846149Y-195487556D01*
X51345341Y-195136091D01*
X51343765Y-195134859D01*
X51344043Y-195132879D01*
X51345897Y-195132129D01*
X53846702Y-195483593D01*
G37*
G36*
X67001397Y-194767402D02*
G01*
X67001751Y-194767486D01*
X67001754Y-194767487D01*
X67003053Y-194768865D01*
X67002620Y-194770709D01*
X67000844Y-194771365D01*
X64500036Y-194419900D01*
X64498460Y-194418668D01*
X64498738Y-194416688D01*
X64500592Y-194415938D01*
X67001397Y-194767402D01*
G37*
G36*
X111746124Y-194009123D02*
G01*
X111746478Y-194009207D01*
X111746481Y-194009208D01*
X111747780Y-194010586D01*
X111747347Y-194012430D01*
X111745571Y-194013086D01*
X109244763Y-193661621D01*
X109243187Y-193660389D01*
X109243465Y-193658409D01*
X109245319Y-193657659D01*
X111746124Y-194009123D01*
G37*
G36*
X73368269Y-193401610D02*
G01*
X73368623Y-193401694D01*
X73368626Y-193401695D01*
X73369925Y-193403073D01*
X73369492Y-193404917D01*
X73367716Y-193405573D01*
X70866908Y-193054108D01*
X70865332Y-193052876D01*
X70865610Y-193050896D01*
X70867464Y-193050146D01*
X73368269Y-193401610D01*
G37*
G36*
X124900819Y-193292932D02*
G01*
X124901173Y-193293016D01*
X124901176Y-193293017D01*
X124902475Y-193294395D01*
X124902042Y-193296239D01*
X124900266Y-193296895D01*
X122399458Y-192945430D01*
X122397882Y-192944198D01*
X122398160Y-192942218D01*
X122400014Y-192941468D01*
X124900819Y-193292932D01*
G37*
G36*
X86522964Y-192685419D02*
G01*
X86523318Y-192685503D01*
X86523321Y-192685504D01*
X86524620Y-192686882D01*
X86524187Y-192688726D01*
X86522411Y-192689382D01*
X84021603Y-192337917D01*
X84020027Y-192336685D01*
X84020305Y-192334705D01*
X84022159Y-192333955D01*
X86522964Y-192685419D01*
G37*
G36*
X93545562Y-186632124D02*
G01*
X93545916Y-186632208D01*
X93545919Y-186632209D01*
X93547218Y-186633587D01*
X93546785Y-186635431D01*
X93545009Y-186636087D01*
X91044201Y-186284622D01*
X91042625Y-186283390D01*
X91042903Y-186281410D01*
X91044757Y-186280660D01*
X93545562Y-186632124D01*
G37*
G36*
X106700257Y-185915933D02*
G01*
X106700611Y-185916017D01*
X106700614Y-185916018D01*
X106701913Y-185917396D01*
X106701480Y-185919240D01*
X106699704Y-185919896D01*
X104198896Y-185568431D01*
X104197320Y-185567199D01*
X104197598Y-185565219D01*
X104199452Y-185564469D01*
X106700257Y-185915933D01*
G37*
G36*
X133266124Y-177809123D02*
G01*
X133266478Y-177809207D01*
X133266481Y-177809208D01*
X133267780Y-177810586D01*
X133267347Y-177812430D01*
X133265571Y-177813086D01*
X130764763Y-177461621D01*
X130763187Y-177460389D01*
X130763465Y-177458409D01*
X130765319Y-177457659D01*
X133266124Y-177809123D01*
G37*
G36*
X146420819Y-177092932D02*
G01*
X146421173Y-177093016D01*
X146421176Y-177093017D01*
X146422475Y-177094395D01*
X146422042Y-177096239D01*
X146420266Y-177096895D01*
X143919458Y-176745430D01*
X143917882Y-176744198D01*
X143918160Y-176742218D01*
X143920014Y-176741468D01*
X146420819Y-177092932D01*
G37*
G36*
X56466124Y-176609123D02*
G01*
X56466478Y-176609207D01*
X56466481Y-176609208D01*
X56467780Y-176610586D01*
X56467347Y-176612430D01*
X56465571Y-176613086D01*
X53964763Y-176261621D01*
X53963187Y-176260389D01*
X53963465Y-176258409D01*
X53965319Y-176257659D01*
X56466124Y-176609123D01*
G37*
G36*
X69620819Y-175892932D02*
G01*
X69621173Y-175893016D01*
X69621176Y-175893017D01*
X69622475Y-175894395D01*
X69622042Y-175896239D01*
X69620266Y-175896895D01*
X67119458Y-175545430D01*
X67117882Y-175544198D01*
X67118160Y-175542218D01*
X67120014Y-175541468D01*
X69620819Y-175892932D01*
G37*
G36*
X114416124Y-175169123D02*
G01*
X114416478Y-175169207D01*
X114416481Y-175169208D01*
X114417780Y-175170586D01*
X114417347Y-175172430D01*
X114415571Y-175173086D01*
X111914763Y-174821621D01*
X111913187Y-174820389D01*
X111913465Y-174818409D01*
X111915319Y-174817659D01*
X114416124Y-175169123D01*
G37*
G36*
X75978269Y-174531610D02*
G01*
X75978623Y-174531694D01*
X75978626Y-174531695D01*
X75979925Y-174533073D01*
X75979492Y-174534917D01*
X75977716Y-174535573D01*
X73476908Y-174184108D01*
X73475332Y-174182876D01*
X73475610Y-174180896D01*
X73477464Y-174180146D01*
X75978269Y-174531610D01*
G37*
G36*
X127570819Y-174452932D02*
G01*
X127571173Y-174453016D01*
X127571176Y-174453017D01*
X127572475Y-174454395D01*
X127572042Y-174456239D01*
X127570266Y-174456895D01*
X125069458Y-174105430D01*
X125067882Y-174104198D01*
X125068160Y-174102218D01*
X125070014Y-174101468D01*
X127570819Y-174452932D01*
G37*
G36*
X89132964Y-173815419D02*
G01*
X89133318Y-173815503D01*
X89133321Y-173815504D01*
X89134620Y-173816882D01*
X89134187Y-173818726D01*
X89132411Y-173819382D01*
X86631603Y-173467917D01*
X86630027Y-173466685D01*
X86630305Y-173464705D01*
X86632159Y-173463955D01*
X89132964Y-173815419D01*
G37*
G36*
X96216124Y-167769123D02*
G01*
X96216478Y-167769207D01*
X96216481Y-167769208D01*
X96217780Y-167770586D01*
X96217347Y-167772430D01*
X96215571Y-167773086D01*
X93714763Y-167421621D01*
X93713187Y-167420389D01*
X93713465Y-167418409D01*
X93715319Y-167417659D01*
X96216124Y-167769123D01*
G37*
G36*
X109370819Y-167052932D02*
G01*
X109371173Y-167053016D01*
X109371176Y-167053017D01*
X109372475Y-167054395D01*
X109372042Y-167056239D01*
X109370266Y-167056895D01*
X106869458Y-166705430D01*
X106867882Y-166704198D01*
X106868160Y-166702218D01*
X106870014Y-166701468D01*
X109370819Y-167052932D01*
G37*
M02*
