G04 #@! TF.GenerationSoftware,KiCad,Pcbnew,7.0.1-0*
G04 #@! TF.CreationDate,2023-07-08T18:50:10+09:00*
G04 #@! TF.ProjectId,cool536lc,636f6f6c-3533-4366-9c63-2e6b69636164,rev?*
G04 #@! TF.SameCoordinates,Original*
G04 #@! TF.FileFunction,Profile,NP*
%FSLAX46Y46*%
G04 Gerber Fmt 4.6, Leading zero omitted, Abs format (unit mm)*
G04 Created by KiCad (PCBNEW 7.0.1-0) date 2023-07-08 18:50:10*
%MOMM*%
%LPD*%
G01*
G04 APERTURE LIST*
G04 #@! TA.AperFunction,Profile*
%ADD10C,0.150000*%
G04 #@! TD*
G04 APERTURE END LIST*
D10*
X137786525Y97133802D02*
X135836525Y83263802D01*
X121976525Y85213802D02*
X123926525Y99083802D01*
X123926525Y99083802D02*
X137786525Y97133802D01*
X135836525Y83263802D02*
X121976525Y85213802D01*
X121086525Y46893802D02*
X107226525Y48843802D01*
X123036525Y60763802D02*
X121086525Y46893802D01*
X109176525Y62713802D02*
X123036525Y60763802D01*
X107226525Y48843802D02*
X109176525Y62713802D01*
X144536525Y37023802D02*
X155566525Y28393802D01*
X155566525Y28393802D02*
X164196525Y39423802D01*
X153166525Y48043802D02*
X144536525Y37023802D01*
X164196525Y39423802D02*
X153166525Y48043802D01*
X126676525Y45393802D02*
X139556525Y39933802D01*
X145016525Y52813802D02*
X132146525Y58283802D01*
X139556525Y39933802D02*
X145016525Y52813802D01*
X132146525Y58283802D02*
X126676525Y45393802D01*
X257631525Y100873802D02*
X255681525Y114743802D01*
X271491525Y102823802D02*
X257631525Y100873802D01*
X269541525Y116693802D02*
X271491525Y102823802D01*
X255681525Y114743802D02*
X269541525Y116693802D01*
X194691525Y101593802D02*
X180831525Y99643802D01*
X180831525Y99643802D02*
X178881525Y113513802D01*
X192741525Y115463802D02*
X194691525Y101593802D01*
X178881525Y113513802D02*
X192741525Y115463802D01*
X231751525Y111683802D02*
X217891525Y109733802D01*
X229801525Y125553802D02*
X231751525Y111683802D01*
X215941525Y123603802D02*
X229801525Y125553802D01*
X217891525Y109733802D02*
X215941525Y123603802D01*
X238131525Y102923802D02*
X236181525Y116793802D01*
X251991525Y104873802D02*
X238131525Y102923802D01*
X250041525Y118743802D02*
X251991525Y104873802D01*
X236181525Y116793802D02*
X250041525Y118743802D01*
X199661525Y102303802D02*
X197711525Y116173802D01*
X197711525Y116173802D02*
X211571525Y118123802D01*
X213521525Y104253802D02*
X199661525Y102303802D01*
X211571525Y118123802D02*
X213521525Y104253802D01*
X122191525Y123438802D02*
X120241525Y109568802D01*
X106381525Y111518802D02*
X108331525Y125388802D01*
X120241525Y109568802D02*
X106381525Y111518802D01*
X108331525Y125388802D02*
X122191525Y123438802D01*
X143441525Y101428802D02*
X145391525Y115298802D01*
X145391525Y115298802D02*
X159251525Y113348802D01*
X159251525Y113348802D02*
X157301525Y99478802D01*
X157301525Y99478802D02*
X143441525Y101428802D01*
X140421525Y116008802D02*
X138471525Y102138802D01*
X124611525Y104088802D02*
X126561525Y117958802D01*
X126561525Y117958802D02*
X140421525Y116008802D01*
X138471525Y102138802D02*
X124611525Y104088802D01*
X100001525Y102758802D02*
X86141525Y104708802D01*
X88091525Y118578802D02*
X101951525Y116628802D01*
X101951525Y116628802D02*
X100001525Y102758802D01*
X86141525Y104708802D02*
X88091525Y118578802D01*
X80501525Y100708802D02*
X66641525Y102658802D01*
X82451525Y114578802D02*
X80501525Y100708802D01*
X66641525Y102658802D02*
X68591525Y116528802D01*
X68591525Y116528802D02*
X82451525Y114578802D01*
X234386525Y92808802D02*
X220526525Y90858802D01*
X220526525Y90858802D02*
X218576525Y104728802D01*
X218576525Y104728802D02*
X232436525Y106678802D01*
X232436525Y106678802D02*
X234386525Y92808802D01*
X202296525Y83428802D02*
X200346525Y97298802D01*
X214206525Y99248802D02*
X216156525Y85378802D01*
X216156525Y85378802D02*
X202296525Y83428802D01*
X200346525Y97298802D02*
X214206525Y99248802D01*
X238816525Y97918802D02*
X252676525Y99868802D01*
X254626525Y85998802D02*
X240766525Y84048802D01*
X240766525Y84048802D02*
X238816525Y97918802D01*
X252676525Y99868802D02*
X254626525Y85998802D01*
X181516525Y94638802D02*
X195376525Y96588802D01*
X195376525Y96588802D02*
X197326525Y82718802D01*
X183466525Y80768802D02*
X181516525Y94638802D01*
X197326525Y82718802D02*
X183466525Y80768802D01*
X260266525Y81998802D02*
X258316525Y95868802D01*
X274126525Y83948802D02*
X260266525Y81998802D01*
X272176525Y97818802D02*
X274126525Y83948802D01*
X258316525Y95868802D02*
X272176525Y97818802D01*
X77866525Y81833802D02*
X64006525Y83783802D01*
X64006525Y83783802D02*
X65956525Y97653802D01*
X79816525Y95703802D02*
X77866525Y81833802D01*
X65956525Y97653802D02*
X79816525Y95703802D01*
X105696525Y106513802D02*
X119556525Y104563802D01*
X117606525Y90693802D02*
X103746525Y92643802D01*
X103746525Y92643802D02*
X105696525Y106513802D01*
X119556525Y104563802D02*
X117606525Y90693802D01*
X97366525Y83883802D02*
X83506525Y85833802D01*
X99316525Y97753802D02*
X97366525Y83883802D01*
X83506525Y85833802D02*
X85456525Y99703802D01*
X85456525Y99703802D02*
X99316525Y97753802D01*
X140806525Y82553802D02*
X142756525Y96423802D01*
X156616525Y94473802D02*
X154666525Y80603802D01*
X154666525Y80603802D02*
X140806525Y82553802D01*
X142756525Y96423802D02*
X156616525Y94473802D01*
X199946525Y63858802D02*
X186086525Y61908802D01*
X184136525Y75778802D02*
X197996525Y77728802D01*
X186086525Y61908802D02*
X184136525Y75778802D01*
X197996525Y77728802D02*
X199946525Y63858802D01*
X223146525Y71998802D02*
X221196525Y85868802D01*
X235056525Y87818802D02*
X237006525Y73948802D01*
X221196525Y85868802D02*
X235056525Y87818802D01*
X237006525Y73948802D02*
X223146525Y71998802D01*
X216826525Y80388802D02*
X218776525Y66518802D01*
X218776525Y66518802D02*
X204916525Y64568802D01*
X204916525Y64568802D02*
X202966525Y78438802D01*
X202966525Y78438802D02*
X216826525Y80388802D01*
X260936525Y77008802D02*
X274796525Y78958802D01*
X274796525Y78958802D02*
X276746525Y65088802D01*
X276746525Y65088802D02*
X262886525Y63138802D01*
X262886525Y63138802D02*
X260936525Y77008802D01*
X243386525Y65188802D02*
X241436525Y79058802D01*
X257246525Y67138802D02*
X243386525Y65188802D01*
X255296525Y81008802D02*
X257246525Y67138802D01*
X241436525Y79058802D02*
X255296525Y81008802D01*
X101126525Y73783802D02*
X103076525Y87653802D01*
X114986525Y71833802D02*
X101126525Y73783802D01*
X116936525Y85703802D02*
X114986525Y71833802D01*
X103076525Y87653802D02*
X116936525Y85703802D01*
X75246525Y62973802D02*
X61386525Y64923802D01*
X61386525Y64923802D02*
X63336525Y78793802D01*
X63336525Y78793802D02*
X77196525Y76843802D01*
X77196525Y76843802D02*
X75246525Y62973802D01*
X82836525Y80843802D02*
X96696525Y78893802D01*
X94746525Y65023802D02*
X80886525Y66973802D01*
X96696525Y78893802D02*
X94746525Y65023802D01*
X80886525Y66973802D02*
X82836525Y80843802D01*
X152046525Y61743802D02*
X138186525Y63693802D01*
X140136525Y77563802D02*
X153996525Y75613802D01*
X138186525Y63693802D02*
X140136525Y77563802D01*
X153996525Y75613802D02*
X152046525Y61743802D01*
X193136525Y52993802D02*
X198596525Y40113802D01*
X198596525Y40113802D02*
X211476525Y45573802D01*
X211476525Y45573802D02*
X206006525Y58463802D01*
X206006525Y58463802D02*
X193136525Y52993802D01*
X217066525Y47073802D02*
X215116525Y60943802D01*
X215116525Y60943802D02*
X228976525Y62893802D01*
X228976525Y62893802D02*
X230926525Y49023802D01*
X230926525Y49023802D02*
X217066525Y47073802D01*
X182586525Y28573802D02*
X193616525Y37203802D01*
X193616525Y37203802D02*
X184986525Y48223802D01*
X173956525Y39603802D02*
X182586525Y28573802D01*
X184986525Y48223802D02*
X173956525Y39603802D01*
X119356525Y66353802D02*
X121306525Y80223802D01*
X133216525Y64403802D02*
X119356525Y66353802D01*
X121306525Y80223802D02*
X135166525Y78273802D01*
X135166525Y78273802D02*
X133216525Y64403802D01*
X162476525Y128203802D02*
X175456525Y128233802D01*
X259790000Y123810000D02*
G75*
G03*
X259790000Y123810000I-1500000J0D01*
G01*
X279610000Y62800000D02*
X271700000Y119370000D01*
X77400000Y119792634D02*
X82400000Y119792634D01*
X81327035Y123572965D02*
G75*
G03*
X81327035Y123572965I-1500000J0D01*
G01*
X261700000Y126850000D02*
G75*
G03*
X260720000Y127830000I-979999J1D01*
G01*
X260720000Y127830000D02*
X175456525Y128233802D01*
X261700000Y121022634D02*
X261700000Y126850000D01*
X268580000Y54280000D02*
G75*
G03*
X268580000Y54280000I-1500000J0D01*
G01*
X255720000Y120042634D02*
X260720000Y120042634D01*
X71059999Y60179003D02*
X65799999Y60859003D01*
X82400000Y119050000D02*
G75*
G03*
X82400000Y119792634I17J371317D01*
G01*
X141126525Y24763802D02*
X196836525Y24763802D01*
X71059999Y60179003D02*
G75*
G03*
X71090000Y61080000I30003J449999D01*
G01*
X72470000Y54230000D02*
G75*
G03*
X72470000Y54230000I-1500000J0D01*
G01*
X162476525Y128203802D02*
X77402965Y128217035D01*
X266960000Y61130000D02*
X279610000Y62800000D01*
X76420000Y120772634D02*
X76422965Y127237035D01*
X266960000Y61129999D02*
G75*
G03*
X266990001Y60229004I2J-450997D01*
G01*
X255720000Y120042634D02*
G75*
G03*
X255720000Y119300000I17J-371317D01*
G01*
X271700000Y119370000D02*
X255720000Y119300000D01*
X76420000Y120772634D02*
G75*
G03*
X77400000Y119792634I980023J23D01*
G01*
X273890000Y49080000D02*
X272250001Y60909003D01*
X58440000Y62750000D02*
X71090000Y61080000D01*
X58440000Y62750000D02*
X66420000Y119120000D01*
X196836525Y24763802D02*
X273890000Y49080000D01*
X260720000Y120042634D02*
G75*
G03*
X261700000Y121022634I59J979941D01*
G01*
X272250001Y60909003D02*
X266990001Y60229003D01*
X65799999Y60859003D02*
X64150000Y48800000D01*
X66420000Y119120000D02*
X82400000Y119050000D01*
X64150000Y48800000D02*
X141126525Y24763802D01*
X77402965Y128217035D02*
G75*
G03*
X76422965Y127237035I36J-980036D01*
G01*
M02*
